<?xml version="1.0" encoding="UTF-8" standalone="no"?>
<!-- Created with Inkscape (http://www.inkscape.org/) -->

<svg
   width="1563mm"
   height="2500mm"
   viewBox="0 0 1563 2500"
   version="1.1"
   id="svg237"
   xml:space="preserve"
   inkscape:version="1.2.2 (b0a8486541, 2022-12-01)"
   sodipodi:docname="cover.svg"
   xmlns:inkscape="http://www.inkscape.org/namespaces/inkscape"
   xmlns:sodipodi="http://sodipodi.sourceforge.net/DTD/sodipodi-0.dtd"
   xmlns="http://www.w3.org/2000/svg"
   xmlns:svg="http://www.w3.org/2000/svg"><sodipodi:namedview
     id="namedview239"
     pagecolor="#ffffff"
     bordercolor="#000000"
     borderopacity="0.25"
     inkscape:showpageshadow="2"
     inkscape:pageopacity="0.0"
     inkscape:pagecheckerboard="0"
     inkscape:deskcolor="#d1d1d1"
     inkscape:document-units="mm"
     showgrid="false"
     inkscape:zoom="0.072938587"
     inkscape:cx="2248.4669"
     inkscape:cy="6080.4578"
     inkscape:window-width="1468"
     inkscape:window-height="864"
     inkscape:window-x="0"
     inkscape:window-y="0"
     inkscape:window-maximized="0"
     inkscape:current-layer="layer1" /><defs
     id="defs234"><rect
       x="1076.2479"
       y="856.88525"
       width="3674.324"
       height="1871.4374"
       id="rect2530" /></defs><g
     inkscape:label="Layer 1"
     inkscape:groupmode="layer"
     id="layer1"><rect
       style="fill:#2a7370;stroke:#000000;stroke-width:0.264999"
       id="rect298"
       width="1560.8125"
       height="97.470627"
       x="1.2825081"
       y="1.2825081" /><rect
       style="fill:#640d0d;fill-opacity:1;stroke:#000000;stroke-width:0.265529"
       id="rect300"
       width="1564.5948"
       height="7.694519"
       x="-0.15532941"
       y="89.775833" /><text
       xml:space="preserve"
       transform="scale(0.26458333)"
       id="text2528"
       style="fill:#640d0d;-inkscape-font-specification:'Gentium Book Plus, Normal';font-family:'Gentium Book Plus';font-size:16px;line-height:0ex;stroke-width:1.0015748;stroke:#000000;fill-opacity:1;font-weight:normal;font-style:normal;font-stretch:normal;font-variant:normal;font-variant-ligatures:normal;font-variant-caps:normal;font-variant-numeric:normal;font-variant-east-asian:normal;white-space:pre;shape-inside:url(#rect2530)" /><text
       xml:space="preserve"
       style="font-style:normal;font-variant:normal;font-weight:normal;font-stretch:normal;font-size:158.75px;line-height:0ex;font-family:'Gentium Book Plus';-inkscape-font-specification:'Gentium Book Plus, Normal';font-variant-ligatures:normal;font-variant-caps:normal;font-variant-numeric:normal;font-variant-east-asian:normal;fill:#640d0d;fill-opacity:1;stroke:#000000;stroke-width:2.47741"
       x="448.98135"
       y="301.14371"
       id="text2536"
       transform="scale(1.1041816,0.90564813)"><tspan
         sodipodi:role="line"
         id="tspan2534"
         style="font-style:normal;font-variant:normal;font-weight:normal;font-stretch:normal;font-size:158.75px;font-family:'Gentium Book Plus';-inkscape-font-specification:'Gentium Book Plus, Normal';font-variant-ligatures:normal;font-variant-caps:normal;font-variant-numeric:normal;font-variant-east-asian:normal;stroke-width:2.47742"
         x="448.98135"
         y="301.14371">Phaedri</tspan></text><text
       xml:space="preserve"
       style="font-style:normal;font-variant:normal;font-weight:normal;font-stretch:normal;font-size:158.75px;line-height:0ex;font-family:'Gentium Book Plus';-inkscape-font-specification:'Gentium Book Plus, Normal';font-variant-ligatures:normal;font-variant-caps:normal;font-variant-numeric:normal;font-variant-east-asian:normal;fill:#640d0d;fill-opacity:1;stroke:#000000;stroke-width:0.264999"
       x="534.94525"
       y="359.12061"
       id="text2540"><tspan
         sodipodi:role="line"
         id="tspan2538"
         style="font-style:normal;font-variant:normal;font-weight:normal;font-stretch:normal;font-size:79.375px;font-family:'Gentium Book Plus';-inkscape-font-specification:'Gentium Book Plus, Normal';font-variant-ligatures:normal;font-variant-caps:normal;font-variant-numeric:normal;font-variant-east-asian:normal;stroke-width:0.265"
         x="534.94525"
         y="359.12061">Augusti Liberti</tspan></text><text
       xml:space="preserve"
       style="font-style:normal;font-variant:normal;font-weight:normal;font-stretch:normal;font-size:79.375px;line-height:0ex;font-family:'Gentium Book Plus';-inkscape-font-specification:'Gentium Book Plus, Normal';font-variant-ligatures:normal;font-variant-caps:normal;font-variant-numeric:normal;font-variant-east-asian:normal;fill:#640d0d;fill-opacity:1;stroke:#000000;stroke-width:0.264999"
       x="321.2374"
       y="591.27942"
       id="text2544"><tspan
         sodipodi:role="line"
         id="tspan2542"
         style="font-style:normal;font-variant:normal;font-weight:normal;font-stretch:normal;font-size:238.125px;font-family:'Gentium Book Plus';-inkscape-font-specification:'Gentium Book Plus, Normal';font-variant-ligatures:normal;font-variant-caps:normal;font-variant-numeric:normal;font-variant-east-asian:normal;stroke-width:0.265"
         x="321.2374"
         y="591.27942">FABVLAE </tspan></text><text
       xml:space="preserve"
       style="font-style:normal;font-variant:normal;font-weight:normal;font-stretch:normal;font-size:238.125px;line-height:0ex;font-family:'Gentium Book Plus';-inkscape-font-specification:'Gentium Book Plus, Normal';font-variant-ligatures:normal;font-variant-caps:normal;font-variant-numeric:normal;font-variant-east-asian:normal;fill:#640d0d;fill-opacity:1;stroke:#000000;stroke-width:0.264999"
       x="453.07043"
       y="769.02606"
       id="text2558"><tspan
         sodipodi:role="line"
         id="tspan2556"
         style="font-style:normal;font-variant:normal;font-weight:normal;font-stretch:normal;font-size:158.75px;font-family:'Gentium Book Plus';-inkscape-font-specification:'Gentium Book Plus, Normal';font-variant-ligatures:normal;font-variant-caps:normal;font-variant-numeric:normal;font-variant-east-asian:normal;stroke-width:0.265"
         x="453.07043"
         y="769.02606">AESOPIAE</tspan></text><rect
       style="fill:#2a7370;fill-opacity:1;stroke:#000000;stroke-width:0.250218;image-rendering:auto"
       id="rect2606"
       width="1563.1478"
       height="818.76294"
       x="-0.073913574"
       y="1683.2544" /><path
       style="fill:#636363;stroke:#640d0d;stroke-width:1.26047;stroke-opacity:1"
       d="m 407.32362,838.99238 v 1.34361 h 11.82234 c 0.36164,19.95049 -1.74027,46.87466 -21.28013,55.09996 7.50241,-13.54345 6.56722,-43.99935 -7.22108,-52.30794 -9.34315,-5.62927 -25.29935,1.29285 -25.8814,13.33472 -15.71546,-5.52294 -21.27859,8.50225 -21.28012,24.19011 l -20.09785,12.09507 7.11423,18.86716 -4.79815,16.07432 10.68838,24.19 c 16.17508,6.035 26.31621,12.3452 43.74254,6.719 1.51796,29.1225 -15.32624,56.99911 -2.36449,84.66541 l -11.82225,-4.0317 c -9.69126,19.9221 3.90358,18.6498 7.91252,34.9883 2.44756,9.9763 0.36304,23.2363 0.36304,33.5504 h 1.18222 l 3.5467,-1.3438 c 2.43658,-9.5203 4.05153,-29.7527 -0.54041,-38.6906 -2.68473,-5.2268 -11.56388,-7.3269 -11.99736,-13.8449 -0.84024,-12.6285 11.42174,-2.4874 14.9019,0.1257 -1.29337,-11.3838 -4.92202,-23.4264 -4.66607,-34.9413 0.22691,-10.2149 5.0467,-20.54101 6.3744,-30.68111 1.45176,-11.0857 -1.6374,-24.937 11.29619,-24.418 0.12147,6.7166 1.77218,13.4545 0.79684,20.1583 -1.74975,12.0316 -7.37126,23.85361 -7.48471,36.28521 -0.266,29.2632 6.37573,59.1794 6.68313,88.6971 0.19759,18.914 -4.12128,49.0477 4.73366,65.8504 v -47.0364 c 15.59948,4.0667 17.76772,8.5998 16.55121,25.5344 h 1.18223 c 5.23253,-18.725 -2.45198,-25.4574 -18.91567,-28.2218 l 1.18223,-8.0632 c 12.34603,4.738 24.41893,9.1099 36.64908,14.3576 4.79041,2.0562 12.53525,4.9461 15.33593,10.1858 3.56087,6.6617 1.13844,20.2805 1.22005,27.8685 0.0558,5.0053 2.94612,12.6647 1.03446,17.2225 -4.83296,11.5245 -19.46188,14.2602 -21.13714,28.4695 l -33.10237,-18.8148 -1.18224,5.3762 27.19124,14.7823 -10.64008,13.4395 c -4.82815,-5.5507 -22.17739,-21.7973 -27.19122,-12.095 6.64648,0.349 20.7836,5.5267 23.15159,13.6869 1.75441,6.0516 -4.41089,19.0055 -5.7196,25.2856 -3.43442,16.4813 -3.25471,30.2891 -3.24523,47.0364 l -41.37805,-21.502 -1.18222,5.3754 c 12.93814,7.7513 29.01896,17.4249 43.74248,17.4702 0.64999,17.2118 -5.79172,18.167 -11.82229,32.2534 -11.22525,-8.3348 -23.13327,-21.4497 -36.64915,-24.1898 v 5.3758 l 36.64915,21.5022 -1.18227,10.7514 -15.36894,-10.7514 12.83426,16.1792 -6.9231,48.3277 c -4.36628,3.8301 -2.46406,10.4611 -2.36446,16.1268 -35.47269,-10.4324 -68.79097,7.7205 -98.12509,28.2217 v 1.3434 l 39.01358,-21.4224 36.64913,-8.123 22.46238,2.6683 v 16.1266 c -6.36019,-0.5871 -12.50383,-3.2283 -18.91567,-3.2634 -21.61686,-0.1192 -38.86346,10.5968 -56.24531,23.7148 -7.89565,5.9586 -14.47781,10.1515 -19.41742,19.8655 28.83256,-16.0665 51.63056,-49.0832 87.48501,-37.6296 v 1.3446 l -30.738,18.6195 -10.73304,5.7633 8.85568,13.6284 6.85894,13.2943 15.01052,2.1849 11.92809,8.3285 c -1.11484,10.8115 8.90695,27.6265 13.00455,37.6286 -8.43392,-1.4166 -21.20717,-9.5134 -29.53832,-6.3657 -7.74109,2.9246 -13.29458,15.6205 -4.67703,21.1727 4.99985,3.2211 10.00118,0.081 15.2997,0.081 7.97208,0 18.46638,5.2261 23.64454,11.9887 -8.24367,-1.7403 -23.91221,-7.5826 -31.70214,-2.6452 -5.87439,3.7229 -11.45958,20.0267 -4.43435,25.4521 5.67539,4.3839 20.82808,-3.6556 27.86093,-3.6254 9.81482,0.08 21.97997,6.9158 30.73797,11.58 3.74643,1.9942 9.39754,7.3865 13.82853,5.807 4.26901,-1.5215 3.83277,-9.7649 3.90491,-13.7228 l 68.56931,-4.5355 31.79604,0.746 7.80628,11.4608 13.51882,12.7696 1.26138,13.1531 c -3.47685,0.6427 -8.3465,-0.2859 -10.80791,3.1347 -6.32848,8.7825 0.30021,25.5441 10.70151,24.2554 7.292,-0.9034 9.569,-13.8118 15.47542,-17.9832 v -26.8781 c 10.40836,5.5237 21.39129,8.4386 22.03557,23.9377 0.24225,5.8309 -6.67365,6.0841 -8.99793,10.1881 -7.99658,14.1259 7.07684,20.9551 16.51807,19.6304 -0.67373,-9.5014 1.76629,-16.7736 10.64008,-18.8148 l -4.72889,-41.6603 c -13.57557,-4.9285 -18.14963,-20.16 -20.09791,-34.9417 31.99349,19.1601 60.23573,47.6646 93.39608,64.453 23.63401,11.9666 38.8162,-6.4824 39.01358,-33.5429 60.81865,5.6387 122.81361,10.1958 183.24558,-4.0279 14.60531,-3.438 33.57773,-4.5705 47.13201,-11.5467 6.67602,-3.4363 5.58366,-15.7522 12.09061,-20.7043 13.26228,-10.0951 30.44721,-15.342 44.81364,-23.2053 9.3266,-5.1047 19.3626,-14.449 29.5558,-16.9339 3.9415,-0.9609 6.9172,3.3826 10.6401,4.1159 5.3507,1.0538 12.3519,-1.408 17.7334,-2.1698 26.4027,-3.7365 56.8547,-7.4483 81.5738,-19.0045 6.4691,-3.0244 10.7418,-10.0895 16.5512,-14.2799 4.6391,-3.3459 10.2938,-2.9032 14.9079,-5.8222 3.9701,-2.5101 6.9421,-9.61 8.8537,-14.0919 2.5336,-5.9427 9.2887,-17.7631 8.4294,-24.19 -1.5961,-11.9387 -13.5236,-31.5036 -10.2097,-43.5739 4.3837,-15.9728 23.1847,-27.7036 23.7202,-45.1287 0.2848,-9.2348 -11.4381,-24.7409 -19.6925,-24.1846 l -5.9111,-25.5338 -4.7289,5.3754 h -1.1823 l -15.0001,-80.6337 -15.7378,-43.0048 27.1912,-6.7189 v -1.3447 c -11.224,0.5478 -25.8919,9.3915 -34.2846,-1.3434 l 28.3734,-8.0634 -39.0135,1.3436 v -2.6874 c 8.2024,-2.2252 25.0954,-2.0292 30.738,-9.4075 -13.7102,2.0134 -27.8982,9.9586 -41.378,4.0315 l 18.9157,-6.7189 v -1.3443 c -9.1221,0.4842 -19.5848,8.3554 -27.1913,1.3443 18.6862,-5.6784 37.2957,-11.2751 55.5647,-18.5259 16.3338,-6.4824 33.3448,-16.2395 50.8359,-17.2552 30.4529,-1.7698 63.2939,12.2735 89.8495,27.7178 0,-21.2805 -32.5787,-29.6408 -48.4718,-32.0725 -14.38,-2.1999 -32.8974,-7.8816 -47.2888,-4.9317 -36.6254,7.5055 -70.3922,35.7153 -107.5829,38.9273 -6.8475,0.5951 -12.1958,-5.935 -17.7334,-9.534 -9.5607,-6.2127 -21.9942,-13.2452 -33.1024,-13.8919 9.8184,-23.5839 14.1241,-57.619 33.3034,-74.2441 8.3015,-7.1984 19.2844,-6.208 28.1725,-11.8792 6.0518,-3.862 10.9143,-11.0974 17.7335,-13.4094 12.3199,-4.1776 26.1332,10.4665 38.7652,0.2777 9.8824,-7.9681 3.9699,-19.2647 8.3786,-27.8613 2.8325,-5.52621 10.3172,-6.02461 12.3898,-12.77291 1.2979,-4.2236 -0.097,-11.5039 -4.1427,-13.1647 -8.3004,-3.4064 -27.5365,10.9356 -36.4753,13.2863 9.1848,-13.5213 30.0736,-14.4635 37.42,-27.9838 4.3493,-8.0029 9.8374,-26.7028 -1.1137,-31.6615 -4.755,-2.1522 -11.2701,1.5501 -16.2083,1.8048 -17.159,0.8849 -31.5738,5.0095 -48.1334,7.9967 -7.2778,1.3126 -16.1161,-3.9189 -23.4815,-4.8246 -10.1482,-1.2483 -19.8673,1.6754 -30.057,0.9119 v -1.3436 c 7.8098,-2.9468 2.9368,-12.2537 1.4602,-18.81475 -3.3659,-14.96169 -9.7772,-27.90907 -17.6933,-40.31681 -4.178,-6.54832 -6.9492,-14.44581 -14.5048,-9.40702 0.4706,-6.37211 -2.1624,-9.44826 -7.0934,-12.09504 l 5.9112,67.19492 -29.7568,-33.3121 -13.98574,-12.38076 h -1.1822 c -6.24814,32.77888 18.42984,60.58476 23.15514,90.04136 0.928,5.7857 -5.3531,14.1769 -6.604,20.1584 -11.56804,-2.3222 -14.69634,7.3484 -23.69074,13.157 -22.80396,14.72591 -38.0394,42.10021 -68.45456,37.10021 -8.23194,-1.353 -4.9961,-16.722 -9.2167,-22.4251 -4.3045,-5.818 -10.88596,-9.0084 -15.42694,-14.53301 -13.90296,-16.9132 -16.5027,-29.7402 -39.26534,-30.7704 -0.15498,-4.0258 -0.17251,-19.3621 -3.93809,-20.8335 -6.57197,-2.5699 -19.03035,21.9416 -22.07092,27.5535 l -1.18232,-5.3753 -5.91108,9.4069 c -13.86996,-7.5515 -12.11313,14.134 -18.59416,20.5713 -2.6943,2.67671 -7.67502,0.78561 -10.96161,1.34651 -6.80847,1.1597 -10.59988,6.0637 -13.00457,13.0238 -7.77192,-15.51261 -23.62444,-25.44631 -37.8313,-31.84481 -6.36155,-2.8657 -12.12379,-8.8807 -18.91571,-10.3737 -4.27962,-0.9411 -8.67635,1.2564 -13.00448,1.1017 -20.9196,-0.7463 -46.96765,2.0562 -64.6384,16.4061 -8.64685,7.0206 -13.98462,19.87661 -19.12257,30.08601 -11.97712,23.8045 -22.49307,44.7238 -21.45748,72.5702 -12.30583,-4.1165 -21.06139,-16.8736 -33.1024,-21.4845 -19.22067,-7.3609 -36.67512,4.9451 -54.3826,9.3696 -9.51575,2.3769 -20.77884,1.3597 -29.5557,6.6317 -9.54883,5.7349 -16.97797,17.4038 -21.48226,28.3298 -1.72608,4.1904 -2.2557,14.9665 -7.45756,15.5998 -4.76078,0.5793 -12.72547,-5.315 -17.16714,-7.3443 -11.58936,-5.2968 -23.23081,-9.3469 -35.46687,-12.2872 v 6.7189 h -1.18223 l -2.36446,-10.7506 4.72888,1.3436 c -0.27297,-17.3846 -0.53548,-35.1829 -2.71908,-52.4118 -2.10321,-16.5919 -5.9372,-31.6004 -2.85509,-48.3802 2.1103,-11.48731 12.59779,-32.26001 0.84529,-41.66061 v -1.3444 c 11.88615,0.5794 31.87411,3.7 42.56026,-3.4452 8.78636,-5.8744 10.62707,-15.1909 16.09957,-24.0027 1.89512,-3.0516 5.80241,-7.2801 4.77623,-11.4046 -1.16447,-4.6817 -6.69848,-7.7348 -10.23575,-9.52765 l 8.08644,-27.41147 -13.99761,-4.84197 c 5.85559,-15.60691 3.32565,-38.65496 -15.36895,-24.18931 l -2.36449,-12.09507 3.54669,-6.71972 c -7.50473,-4.47217 -13.32131,-3.88645 -21.28013,-1.34363 m -20.09786,5.37532 8.2756,32.25344 3.54669,-1.34362 -1.18223,16.12673 c -4.43454,-0.35714 -19.22151,-4.82929 -20.0979,-9.40779 l 5.91116,1.34442 c -8.24479,-10.17682 -15.3328,-19.28699 -15.36904,-33.59786 l 18.91572,-5.37532 m 89.84943,9.40698 1.18226,1.34442 -1.18226,-1.34442 m -121.43114,6.33325 c 9.3884,-3.13329 20.1012,20.55523 21.38674,28.60827 0.60738,3.80392 1.13562,10.96176 -3.13884,12.44981 -15.58531,5.42532 -38.8923,-34.16932 -18.2479,-41.05808 m 55.22625,35.32804 c 1.7367,-5.78962 4.16974,-10.82526 6.8239,-16.12677 2.16577,-4.32769 16.4282,-28.69638 22.01781,-15.69896 7.0579,16.41483 -18.00301,31.18602 -28.84171,31.82573 m -13.00449,-29.11774 c 0.91385,0 0.18916,0.66665 -0.39376,0.44443 l 0.39376,-0.44443 m 643.13304,-0.45237 -1.1824,1.34442 1.1824,-1.34442 m 23.6444,68.53864 -19.7739,5.1975 -6.5579,-13.2609 -3.2239,-55.09914 c 17.0501,9.44985 25.1225,43.88977 29.5557,63.16254 M 377.76756,876.61037 v 2.68806 h -2.36449 v -2.68806 h 2.36449 m -14.18676,36.28517 h 1.18219 l 5.91118,-9.40695 c 1.05955,12.08942 17.62347,26.0337 12.08004,39.8881 -2.15991,5.4007 -9.83745,1.2534 -12.37196,-1.6538 -5.47745,-6.2825 -8.84598,-17.6831 -6.80145,-26.13932 l -3.54669,2.68732 h -1.18222 l -26.00908,-10.75067 c -0.35747,-3.49443 -1.8794,-7.22929 -1.63832,-10.74671 0.51805,-7.56174 7.31692,-13.7061 13.46156,-9.80537 8.74852,5.5547 14.73872,15.89022 18.91475,25.9274 m 28.3735,12.09495 h 1.18219 l 4.72897,-21.5019 h 1.18223 l 1.18219,2.68718 c 9.96977,-7.88557 19.90287,-6.81576 18.91572,8.06335 h 4.7289 l -2.36449,-6.7189 c 2.45315,-8.61254 20.2611,-30.68524 28.28839,-15.54421 6.23395,11.75771 -19.32114,22.86948 -25.9239,23.60756 l -1.18221,9.40692 -4.72897,-2.688 c -3.3232,12.6142 -15.28971,18.2664 -26.00902,20.1583 l -1.18222,-17.4703 -5.91116,6.7198 c -3.84339,-7.9102 -12.35867,-35.9677 -2.0949,-41.47711 14.52843,-7.79907 10.90962,28.48851 9.18829,34.75731 m 16.55122,-32.2534 1.18222,4.03172 -1.18222,-4.03172 m 14.18676,1.34359 1.18221,2.68813 h -2.36449 l 1.18228,-2.68813 m 578.11021,0 c 2.1222,17.89812 9.0146,47.06511 19.0032,61.39351 4.0374,5.7913 12.5411,2.811 14.5213,-3.7317 1.654,-5.4601 -1.7957,-13.2498 -2.7864,-18.6886 h -1.1822 l -1.1824,22.8466 c -15.5747,-4.9103 -22.9741,-38.4725 -23.6444,-55.10004 7.9847,3.08568 13.7079,11.65137 19.0066,18.83384 13.3569,18.1062 28.2234,41.4002 28.2824,65.8317 4.9714,-3.2897 5.5755,-8.6294 4.729,-14.7832 6.0507,-4.3889 11.5314,-10.1428 16.0571,-16.5117 2.4352,-3.4277 2.8054,-8.7284 6.579,-10.7174 12.3318,-6.4983 24.2701,2.943 36.4754,2.5048 12.8638,-0.4603 25.3601,-7.5293 39.0135,-7.5293 l -1.1821,8.0635 c -11.2716,-1.6105 -24.3446,1.5173 -34.2847,8.0633 10.4557,0.6429 30.4152,-2.615 40.0267,-7.5095 7.9517,-4.049 11.3423,-9.6291 21.4491,-9.9609 0,7.0372 1.0771,16.2132 -2.5298,22.4037 -8.7154,14.9594 -32.9559,13.0727 -42.065,30.255 -6.3414,11.96261 -1.0971,30.17351 12.6746,29.58061 7.3465,-0.3174 12.6192,-7.739 18.9158,-11.0125 4.9122,29.8676 -32.3458,11.994 -42.5603,14.1893 -6.8239,1.4668 -12.4784,9.7141 -18.9157,12.8492 -9.6386,4.6918 -23.4235,4.9417 -31.2226,13.5846 -17.912,19.8505 -22.9956,48.0025 -31.4863,73.6074 -7.934,23.9284 -19.3555,47.0406 -32.7773,67.1952 -6.4385,9.6665 -12.11913,19.3344 -21.55453,25.5337 1.7615,-8.7284 6.9917,-15.9721 10.01463,-24.1902 4.9252,-13.3863 6.2848,-31.7605 18.3589,-40.3166 l -5.9111,24.1897 c 10.4083,-11.6727 8.7709,-29.2629 7.0934,-44.3482 l -4.6154,16.1266 -9.5713,20.1586 c -6.14303,-2.5796 -6.32633,5.6227 -7.59953,10.7513 -3.9486,15.8981 -10.8564,28.9314 -18.24176,43.0041 -19.97263,38.0581 -11.27732,79.982 -8.54878,122.2949 1.12428,17.4276 -0.95877,39.9621 4.22299,56.4381 2.03818,6.4815 6.94675,18.4315 10.67075,23.8124 4.2584,6.1506 11.243,9.7164 12.4029,17.8536 -8.5039,0 -28.39129,2.9928 -32.67221,-8.3119 -1.62199,-4.2855 1.75923,-8.5799 -0.19265,-12.8076 -3.72164,-8.0602 -8.4104,-10.5469 -8.5133,-20.541 l -8.27567,17.4703 h -1.18221 c 0.0104,-11.3173 6.28946,-30.898 0,-40.3167 v -1.3436 c 6.39006,-15.0992 -6.7978,-26.7013 -3.54663,-40.317 -5.66057,-4.2673 -6.74698,-15.6673 -8.41269,-22.8465 -2.35388,-10.1434 -1.94958,-20.9281 -4.33769,-30.9098 -3.52179,-14.725 -11.01005,-30.2765 -8.52979,-45.6919 -5.89101,3.1131 -7.0177,6.1925 -7.09336,13.4386 l -26.00901,-4.0317 c -3.97826,-9.1239 -13.4089,-19.4203 -14.46348,-29.5655 -1.37601,-13.2349 7.93159,-25.1203 3.56562,-38.848 -2.24503,-7.0593 -9.09365,-7.2164 -13.54353,-11.6409 -6.06487,-6.0278 -6.29541,-13.6339 -6.29656,-22.0814 8.82295,-1.3509 42.68788,-10.1388 29.55564,-25.5338 6.75533,-4.8253 13.24579,-3.8546 16.55124,-13.4394 19.6227,0 25.44274,-10.138 21.36888,-30.9089 -0.81935,-4.173 0.24222,-8.1015 -1.67407,-12.0427 -3.55497,-7.3088 -10.79611,-11.85 -14.96588,-18.8672 13.15594,-1.0566 27.90297,-0.9009 33.10248,16.1266 l -1.18232,1.3436 -18.91565,-16.1268 c 12.15218,13.5388 16.7132,24.5719 21.28017,43.005 h 1.18221 l -2.36441,-21.502 h 1.1822 l 4.72884,5.3754 8.27567,-21.5021 -10.64009,13.4386 c -3.09745,-9.5125 2.25453,-19.1974 9.45788,-24.1902 l 3.54673,14.7832 h 2.36442 c 2.63169,-8.8744 8.69645,-18.7195 15.36902,-24.1902 0.88311,7.7246 2.61385,12.7857 8.2756,17.4705 -9.28175,-16.553 -6.93977,-38.4422 11.8223,-45.6923 -3.7194,17.8522 -6.8996,29.9052 -3.5468,48.3804 l -8.2755,-2.6881 8.2755,5.3755 -1.1822,28.2217 h 1.1822 c 2.7393,-8.4787 6.44563,-21.6687 1.1824,-29.5655 l 1.1822,-5.3754 h 1.1822 c 7.89253,0.8975 6.97993,-17.9616 7.09333,-24.19 6.0318,2.8833 15.3502,13.6037 22.3395,9.4229 3.8327,-2.2929 6.1452,-7.7125 9.5807,-10.7674 v -1.3436 c -4.827,-6.2818 -4.7241,-14.8672 -4.7288,-22.84651 7.1595,3.2483 13.3626,4.4699 18.9156,-2.6871 -14.9728,3.1482 -19.3567,-6.0317 -27.1912,-18.815 -13.0011,-21.213 -29.10063,-52.7087 -26.00913,-79.29001 h 3.54663 m -603.33071,2.24049 -0.39518,0.89519 0.39518,-0.89519 m 7.48707,0.44439 v 4.03173 h -1.18228 l 1.18228,-4.03173 m -42.56027,1.34368 2.36441,6.71977 -2.36441,-6.71977 m 263.63716,1.34446 1.18228,1.34359 -1.18228,-1.34359 m -204.52573,1.34359 -1.1822,1.34359 1.1822,-1.34359 m 1.18228,9.40704 -1.18228,1.34436 1.18228,-1.34436 m -59.11149,29.56616 c -5.486,-1.4849 -11.02001,-1.0667 -16.55125,-2.1706 -6.36226,-1.2699 -23.8831,-11.3181 -12.39694,-20.6385 11.77677,-9.55631 30.44184,9.049 28.94819,22.8091 m 55.5648,-21.5028 v 1.3444 l 3.54669,1.3436 v -4.0317 l -3.54669,1.3437 m 34.28468,6.7197 c -6.57087,17.6386 -27.0412,23.3259 -41.37806,14.7831 v -2.688 c 14.28129,-11.0863 23.86211,-23.41401 41.37806,-12.0951 m -75.66272,24.1901 c -8.05155,13.3768 -30.51941,7.488 -35.46689,-6.7196 12.28795,-4.7287 24.4727,-0.389 35.46689,6.7196 m 30.73797,-8.0634 c -3.31614,15.7331 -11.14846,20.4584 -24.82681,18.8148 4.85421,-10.3054 13.86874,-19.56 24.82681,-18.8148 m 659.68416,14.7831 -21.2802,-6.7197 c 2.1256,-7.7277 14.6502,-13.6633 20.5542,-7.0714 2.9663,3.3127 1.1161,9.7094 0.726,13.7911 m -677.41761,-14.7831 -1.18227,1.3438 1.18227,-1.3438 m 50.83586,5.3753 v 2.6881 c -10.30907,7.7206 -24.48158,11.8664 -36.64909,8.0633 l 5.91109,-13.4387 30.738,2.6873 m 728.25335,-2.6873 -3.5465,9.4072 c 4.5514,-1.8166 6.3367,-3.9635 7.0932,-9.4072 h -3.5467 m -78.027,28.2219 c 6.8262,3.0611 11.0029,3.5475 17.7334,0 l -13.0045,5.3753 c 6.4005,10.0498 22.4681,-3.6205 23.0487,-13.4379 0.5096,-8.6212 -11.6225,-15.0735 -18.1141,-11.7157 -6.0897,3.15 -8.109,13.1688 -9.6635,19.7783 m -710.52004,-20.1585 1.18218,5.3753 h -5.9111 l 4.72892,-5.3753 m 675.05314,16.1267 -5.9112,-16.1267 c 10.2039,0.2779 14.6242,7.8308 5.9112,16.1267 m 104.0361,-8.0633 4.729,-4.0317 -4.729,4.0317 m -43.7424,-2.6881 -5.9112,13.4388 3.5467,-13.4388 h 2.3645 m -15.369,1.3436 5.9111,8.0635 v 2.6881 c -8.1136,2.6268 -10.0005,-2.3954 -8.2756,-10.7516 h 2.3645 m -258.90843,4.0318 c 1.27103,26.7178 24.91092,29.3709 39.99494,41.30891 4.90155,3.8801 14.44333,12.0396 17.16237,18.0696 2.56897,5.696 1.8183,12.645 3.99361,18.5677 3.45677,9.4073 9.83024,12.9525 14.99426,20.4379 1.58766,2.301 3.06667,7.0652 -0.66186,7.9421 -4.15443,0.9768 -8.04983,-5.3993 -10.5065,-8.2421 -4.65912,-5.3888 -12.17817,-10.8005 -15.29097,-17.5029 -2.56312,-5.518 -0.85952,-12.0665 -5.11904,-16.8886 -8.72839,-9.876 -20.26338,-0.5001 -29.19747,3.5024 v 1.3437 c 12.39086,0.1192 12.93709,4.0623 16.55114,16.1265 -7.52375,-0.6665 -7.08867,-6.0849 -7.09336,-13.4386 -15.19047,12.6633 13.32615,16.3268 15.36903,20.1585 v -5.3754 c 11.83283,-5.2485 24.68257,14.4173 30.73784,24.1902 l -9.45777,2.6872 11.82229,2.6882 c -1.52149,8.7552 -5.86502,17.3989 -14.20445,19.6289 -17.66248,4.7196 -28.95045,-14.4616 -47.2703,-3.723 -9.15992,5.3688 -12.68056,18.7315 -2.3018,25.5394 10.96518,7.1909 23.7238,5.642 35.40302,2.9031 -2.60915,7.9331 -9.73444,9.73 -16.55124,11.0761 -20.18771,3.987 -28.97642,-6.4824 -46.10697,-15.1079 -2.00969,20.5365 -23.35726,39.1479 -32.062,56.4437 -6.77893,13.4711 -4.47707,32.0097 -4.58702,47.0366 h 1.18219 c 3.3954,-20.7878 -1.19401,-49.9715 18.91574,-61.8198 0.23526,9.2451 2.99456,16.1831 0.6765,25.5347 -2.99932,12.0957 -8.78162,26.3765 -16.15516,35.8644 -5.33072,6.8602 -11.91931,10.3814 -15.9235,19.2346 -4.64143,10.2633 -4.64379,23.6806 -5.24674,34.9416 -19.10596,-12.3278 4.19223,-41.4637 9.98513,-53.7555 5.71373,-12.1261 -1.43524,-23.6569 1.21061,-36.2851 1.62673,-7.7699 4.93346,-17.822 9.56069,-23.9102 3.6933,-4.8561 9.99811,-7.5196 12.32594,-13.7203 1.95543,-5.2077 -2.63169,-9.5689 -2.31011,-14.7815 0.47618,-7.7466 6.92081,-14.2228 10.60581,-20.1584 -14.09215,7.8064 -15.36898,27.0965 -20.75875,41.608 -3.30078,8.8833 -7.62774,17.8561 -11.16145,26.9305 l -8.27559,-6.7196 c 1.78157,3.8666 4.0467,7.7802 4.87195,12.0949 4.81289,25.156 -20.37216,29.7005 -27.33435,48.3803 l 3.54668,-4.0316 h 1.18228 v 8.0632 h 1.18221 c 2.04758,-18.3052 16.10789,-21.5052 23.6446,-36.285 h 1.18222 c -10e-4,18.4067 -9.66947,24.4966 -14.56036,40.3166 -2.5666,8.3023 -0.72232,19.1007 -5.45952,26.5046 -4.04321,6.3205 -12.46304,4.995 -15.95185,12.595 -4.71947,10.2791 0.46916,22.0077 -5.40634,32.1271 9.70494,-5.9386 3.93685,-20.8091 7.96589,-30.6223 2.52052,-6.1374 12.72904,-9.3 18.04321,-11.0389 l -13.00454,38.9734 c 4.15557,-5.3594 4.90385,-12.8823 8.64441,-18.7627 3.65786,-5.7456 10.26062,-9.4808 12.46432,-16.2314 7.33689,-22.4695 0.79325,-39.5724 22.63373,-53.703 4.68164,22.3512 -8.95537,28.6313 -13.41355,47.1572 -2.00741,8.3372 3.55614,18.2687 -0.36791,26.3836 -2.55131,5.2769 -9.43072,5.1935 -13.23984,9 -5.4489,5.4426 -5.54938,15.9568 -6.08139,23.6265 l -11.82225,-13.4386 v 5.3753 l -13.00456,6.7198 c 0.8075,10.696 -10.33858,12.7347 -17.73344,13.4386 v 2.688 l 14.18675,-4.0316 -15.36895,26.878 14.18676,12.0952 c -3.70748,-11.5832 -0.13964,-20.868 7.09336,-29.5661 l -11.82232,20.1583 -7.09338,-4.0316 15.60423,-24.1902 9.22257,-13.4386 c -0.13118,7.2125 -0.29672,15.8147 -5.9111,20.1583 4.73009,7.6778 0.86062,16.9062 1.39977,25.5337 0.98239,15.7055 5.27387,35.475 15.15138,47.0367 -10.21444,-24.9402 -14.95751,-47.7604 -10.86583,-75.2585 0.76847,-5.1641 -0.18916,-15.3188 2.61861,-19.4972 4.34824,-6.4691 10.15067,8.8537 14.96473,7.8983 2.91059,-0.5793 3.23809,-7.3731 3.92257,-9.9032 l 24.8269,17.4705 c -2.28058,10.7634 -6.12754,25.4646 -6.45736,36.2852 -0.19269,6.2967 2.75225,12.3878 2.60444,18.8148 -0.1913,8.2768 -2.41648,18.825 0.91859,26.7042 3.31022,7.8214 14.80386,9.1952 16.73917,17.7841 1.94951,8.6449 -4.99487,13.6631 -11.44044,14.6432 -1.35012,-10.5094 -12.86141,-29.4691 -20.09792,-36.2851 2.87519,12.4951 27.64176,44.6803 2.36686,44.2738 -2.80307,-0.08 -5.53403,-0.6902 -8.27795,-1.2697 7.16074,-12.7617 -1.41399,-25.144 -3.54669,-40.3168 -9.0618,11.603 6.04828,20.3362 4.82231,30.8369 -1.24016,10.6331 -16.41641,8.5355 -19.97973,1.2713 -3.98766,-8.1276 3.08331,-13.7339 2.85395,-21.3569 -0.17939,-5.9712 -6.45614,-8.8767 -8.75207,-13.6622 -2.6494,-5.5216 0.24016,-10.9889 -3.77129,-15.9032 0.77551,5.4341 0.88669,12.6078 -4.00776,15.8601 -4.52084,3.0024 -10.00523,-2.3166 -9.41406,-7.7927 0.65486,-6.061 6.39819,-9.6506 8.69285,-14.787 -10.31254,-0.8763 -13.36862,-11.6768 -21.28011,-17.4704 2.59027,7.8394 4.60837,17.8181 13.00455,18.814 -1.95188,7.3928 -10.65899,23.9941 1.25082,28.4424 6.89237,2.5761 12.6179,-4.6912 17.49935,5.1617 5.45835,11.0189 -10.13054,18.1101 3.71215,29.559 v 2.6884 l -18.91565,5.3752 c 9.43537,18.5497 30.04759,-2.0415 42.56027,0 -1.86677,7.491 -6.624,10.3522 -13.00457,12.095 v 1.3436 c 6.2422,2.004 12.67943,5.0937 18.71356,0.3493 8.58415,-6.7501 6.90779,-20.6545 17.93562,-23.1927 l -9.45785,21.5022 c 13.97633,-5.85 34.38635,-26.0901 22.39851,-45.4064 -4.41207,-7.1086 -14.67616,-7.3874 -16.98863,-16.4666 -1.59127,-6.2472 0.69538,-13.6361 0.45519,-20.1043 -0.70815,-19.0862 -2.04639,-38.0685 4.77507,-56.4436 5.08118,5.319 9.13507,11.1134 16.55122,10.7506 l 8.27556,20.1585 h -8.27556 c 6.5826,9.2029 14.76247,5.2588 23.64458,6.7197 -2.93193,14.5119 5.28331,31.9645 5.86502,47.0365 0.51461,13.3617 -5.26797,29.2496 -3.19315,41.8891 1.6917,10.3048 13.12859,30.2644 10.05128,40.0884 -5.26327,16.8037 -37.07356,30.2359 -51.73676,28.3422 -8.35365,-1.0786 -15.10294,-9.1679 -23.6446,-9.2808 -9.33486,-0.1191 -17.24871,7.1889 -26.00785,9.6801 -9.35851,2.6635 -19.90286,-1.2683 -29.5569,-0.1024 -7.88789,0.9499 -15.63502,6.807 -23.64461,5.9697 -11.17444,-1.1691 -19.32353,-11.0212 -29.5557,-14.8537 -15.9377,-5.9681 -43.72832,-8.953 -60.29371,-7.6579 v 2.6881 l 53.20032,9.0848 36.64909,16.9371 30.738,-4.2913 23.64454,-0.4046 22.4624,-10.2039 26.00902,9.8658 34.28467,-8.8914 c -1.15977,7.6604 -4.7017,31.5893 -10.12454,36.2528 -8.22362,7.0714 -27.64887,1.7468 -37.50154,2.6181 -23.53116,2.0786 -47.40393,11.3165 -70.5969,16.2284 l -5.91109,-12.0951 c -14.49773,-0.3492 -28.74949,-9.7292 -42.56025,-14.2029 -31.56436,-10.2286 -61.83772,-21.7084 -92.21391,-35.9398 -19.91345,-9.3292 -43.90213,-23.7134 -66.20489,-19.7395 0,-12.0658 -15.79694,-23.4958 -22.46233,-33.5971 -18.38135,-27.859 -35.04127,-50.0993 -48.47143,-80.6337 -2.74275,-6.2357 -14.35347,-28.847 -16.55122,-28.2217 l -8.2756,-30.9099 c -5.46663,-22.106 -8.11953,-48.4771 -5.69361,-71.2267 1.00251,-9.3894 5.5683,-19.0189 5.69361,-28.2218 l 5.91118,-10.7505 h 7.09337 l 23.64454,-26.8782 h -4.7289 v -1.3436 l 4.7289,1.3436 h 1.18228 l 3.54669,-4.0317 c 5.85086,13.1784 6.33553,25.14 -4.7928,35.2621 -4.39431,3.9968 -12.26328,6.9467 -13.91131,13.6935 -4.34936,17.806 8.77337,37.982 -1.39382,51.8364 16.50864,-12.4657 -2.90123,-33.9065 7.02006,-52.2911 9.00743,-16.6896 29.91276,-27.833 37.67177,-46.2501 2.96149,-7.0285 0.93157,-19.7967 2.47794,-27.8051 3.05134,-15.7974 10.83869,-27.606 19.21949,-40.2899 8.95895,-13.5603 34.67483,-18.5205 38.82919,-34.948 -30.50509,3.4753 -65.07469,20.0149 -70.41365,57.7873 -2.4472,17.3068 4.2998,39.5176 -2.88461,55.1 -8.14908,-6.5985 -10.32323,-28.414 -9.69076,-38.9732 1.65989,-27.6972 2.60096,-68.9728 32.1531,-77.7266 8.16094,-2.4175 16.56779,-2.0222 24.82683,-4.8246 11.03614,-3.7452 18.60951,-10.9974 30.73798,-10.0562 23.1386,1.7929 43.02726,20.3958 65.0226,28.5439 14.87486,5.5105 31.30903,2.72 46.44389,4.2 17.07967,1.6708 33.22659,9.1959 50.49898,8.796 l -1.18227,4.0316 c 6.21025,1.6809 14.04842,-0.1259 17.73344,6.719 -9.21429,0.096 -17.48521,2.7618 -22.46236,12.0951 h -1.18219 l 5.91111,-18.8141 c -17.43199,10.7293 -2.90949,30.302 -4.72892,47.0359 -3.05133,1.5443 -5.52222,3.5276 -8.27794,5.6919 -2.73807,2.1499 -5.72911,4.011 -8.11607,6.6855 -10.83394,12.1365 2.1387,24.4926 3.38948,37.3472 -11.31156,-2.2729 -17.35393,5.3117 -11.82227,17.4703 l 2.36449,-8.0633 c 4.31389,1.0024 8.96125,2.388 11.60946,-2.8532 4.41207,-8.7324 -3.94982,-18.9369 -0.0127,-28.0494 5.44893,-12.6197 19.77753,-11.719 22.68938,-26.8845 -6.95743,-2.5619 -8.62795,-12.2593 -5.63924,-19.0451 4.90624,-11.1395 13.98696,-19.1491 24.5549,-22.6163 v 8.0636 l -10.64008,6.7195 20.09793,-8.0633 -11.82234,22.8466 c 14.13117,-9.2857 9.57606,-18.4133 15.31584,-32.2535 3.5963,-8.6721 11.09282,-14.7159 13.05766,-24.1902 h -1.1822 l -21.28013,30.9088 c -3.08443,-15.3013 7.84292,-22.1631 14.18676,-33.5969 -5.33067,4.0087 -10.0738,8.3545 -13.24569,14.784 -1.54281,3.1285 -3.29845,10.187 -6.97519,10.8561 -6.14995,1.1183 -5.67234,-12.4967 -3.5869,-15.9465 3.96405,-6.558 12.6144,-8.9612 17.76779,-14.2348 5.29518,-5.4173 8.54158,-14.5584 13.13336,-20.9924 l -8.27559,4.0317 c -2.58677,20.1338 -28.00704,20.5369 -27.1913,41.6603 h -9.45786 l 3.54669,-6.7196 c -26.80823,-2.4889 -52.07123,-12.0959 -79.20935,-12.0952 -8.8029,0 -24.45917,3.0523 -30.90115,-6.0458 -2.99576,-4.2311 -1.25313,-10.6747 -0.47405,-15.4562 2.25569,-13.8635 5.49032,-24.9854 10.95459,-37.6289 6.97509,-16.1377 13.50221,-34.7169 26.6699,-46.09281 17.60458,-15.2093 54.55868,-18.8538 75.32454,-13.0388 l -2.3644,2.6881 v 1.3436 l 9.45779,12.0951 c 12.80237,0.6191 26.25617,25.26001 36.64915,33.59721 l -24.82681,-29.5599 -14.18676,-17.47601 c 13.99873,1.6284 25.16139,13.1657 36.63136,21.29401 6.02105,4.2652 12.11899,9.035 9.47559,17.6783 l -8.27565,-6.7186 5.91116,17.4702 c 5.88632,-0.8683 15.93407,-1.989 20.97391,-5.4135 4.24898,-2.8864 5.41939,-8.3252 10.94747,-9.1505 8.81471,-1.3168 22.80633,6.2092 23.46851,17.252 0.44677,7.4571 -1.67292,15.4022 -2.18961,22.8457 14.18911,-18.5576 4.21235,-45.9326 -18.91559,-44.1223 -11.29503,0.8841 -19.09781,13.6228 -30.73799,15.9006 2.17528,-9.5238 7.03541,-24.26 16.55242,-26.4139 3.85052,-0.8722 10.48989,3.2142 13.4892,1.0118 3.17549,-2.3318 4.12129,-12.28141 5.42525,-16.25851 h 1.18223 c 0.46567,8.6778 0.0629,19.20691 5.91116,25.53381 -1.59838,-9.6418 -5.71491,-24.57581 1.18221,-32.25341 l 17.7334,41.66121 h 1.18232 c -2.30306,-17.8592 -17.55849,-25.03691 -14.18676,-45.69301 l 11.82223,22.84661 c -4.42034,-7.73421 -10.89066,-22.13701 -1.1822,-28.22171 l 9.45777,34.94131 9.45788,8.0636 h 1.18221 l 2.36452,-4.032 c -15.04979,-5.8205 -22.19637,-29.68921 -17.73345,-45.69291 h 1.18221 c 1.96252,16.5544 12.55408,33.1853 26.00912,40.31691 v -1.3436 c -13.97518,-8.24111 -25.71951,-24.86861 -21.28018,-43.00491 h 3.54673 m 173.78771,9.4078 c 3.8552,8.9807 -2.0783,15.5592 -4.074,24.1901 -1.6847,7.28241 -0.6584,15.39651 -0.6548,22.84561 -15.52633,-9.6808 -5.1108,-36.78361 4.7288,-47.03571 m -139.50303,20.1585 c -8.53688,-0.9946 -22.23539,-7.5144 -24.8269,-17.4712 10.60116,2.3388 19.16288,6.4252 24.8269,17.4712 m 145.41433,-12.0952 9.4577,40.31691 c -10.3918,0.9381 -10.6354,-11.211 -10.64,-20.1585 h -1.1823 c -1.2804,11.7753 2.3835,17.6251 5.9112,28.2218 -18.7573,-7.315 -10.3871,-33.31121 -5.9112,-48.38021 h 2.3646 m 155.8839,0.938 c 7.441,0.4684 1.6741,10.607 -1.0391,13.1341 -7,6.51891 -22.3891,17.63551 -31.8706,16.24891 -6.2917,-0.9199 -7.8014,-10.0649 -3.1931,-14.56001 6.053,-5.904 18.2643,-6.3849 25.6332,-10.3079 3.0879,-1.6443 6.9077,-4.7396 10.4696,-4.5151 m -472.72151,7.1254 v 1.3436 l 5.91116,1.3436 v -1.3436 l -5.91116,-1.3436 m 297.92181,0 c -1.9507,7.0865 -10.81853,11.8166 -16.55113,14.78241 1.2862,-9.28241 9.0144,-13.30141 16.55113,-14.78241 m 20.098,0 -1.1822,2.6872 1.1822,-2.6872 M 614.21592,1095.6681 c 19.42517,-7.8491 15.21649,-49.0509 21.29667,-67.1943 3.0584,-9.1284 14.79327,-28.3257 23.64574,-30.82021 5.5447,-1.5608 10.60698,3.99691 16.53353,2.59841 v -2.68801 c -18.20753,-8.918 -32.16966,-0.08 -41.58613,20.15841 -10.89071,23.3861 -10.79848,53.092 -19.88981,77.9457 M 712.3408,990.84419 v 1.3446 l 5.91109,2.687 v -1.3434 l -5.91109,-2.6882 m -13.00457,1.3446 v 1.3436 l 7.09339,1.3434 v -1.3434 l -7.09339,-1.3436 m 36.64911,1.3436 v 1.3434 l 23.6446,21.50321 c -5.69125,-9.1848 -14.31801,-18.74671 -23.6446,-22.84661 m -28.3735,1.3434 v 1.3446 c 17.49814,13.41901 33.51974,21.95611 44.92472,43.00411 h 1.18222 c -2.0476,-20.9244 -29.94349,-39.0453 -46.10694,-44.34871 m 11.82232,0 1.1822,1.3446 -1.1822,-1.3446 m 301.46854,0 v 4.0319 h 1.1822 l -1.1822,-4.0319 m -18.9157,1.3446 -1.1823,47.03581 h -4.72883 c -1.797,-13.8974 -3.0585,-35.4677 5.91113,-47.03581 m -20.09793,8.06321 c -1.37019,7.4747 -5.58484,8.8223 -11.82222,9.407 2.54047,-6.0084 6.1038,-8.3752 11.82222,-9.407 m -192.7034,6.7191 v 1.3443 c 3.48286,1.0025 5.0966,1.6079 5.91116,-2.688 l -5.91116,1.3437 m -67.38708,0 c 4.02666,5.8839 8.88801,9.437 15.36902,10.7514 l -15.36902,-10.7514 m 113.49396,0 7.09346,8.0633 -7.09346,-8.0633 m -59.11137,6.7197 v 1.3436 l 7.09337,-2.687 -7.09337,1.3434 m 202.16123,-2.688 -16.55123,33.5979 c -7.59701,-14.5506 3.28896,-31.2448 16.55123,-33.5979 m 284.91709,1.3446 -1.182,2.687 1.182,-2.687 m -466.98046,8.0632 v 1.3436 l 15.36903,12.0949 -14.18675,-6.7195 10.64006,8.0633 -5.91119,2.6879 v 1.3438 c 6.48689,0.5239 10.99475,1.4461 13.00457,-6.719 h -1.18228 v 2.6873 c -2.15162,-9.996 -7.96937,-17.149 -17.73344,-14.7823 m 163.14772,0 c -1.3903,9.7362 -11.20051,18.2013 -17.73355,24.1901 1.01315,-11.1911 8.44234,-20.6266 17.73355,-24.1901 m -221.07695,1.3436 c 1.3525,6.7022 9.14691,14.9022 8.42815,21.4824 -0.59346,5.4275 -7.4658,9.1948 -10.05963,13.5837 -8.37374,14.1688 -23.05702,32.0805 -23.19534,49.5994 l 13.36033,-19.5968 19.74208,-12.6568 h -4.72891 c 5.95252,-12.5871 12.2231,-11.6143 22.46236,-18.0258 7.90323,-4.9484 13.89239,-10.492 22.46241,-14.2277 l 1.18219,4.0317 c -9.11143,4.0183 -18.25602,7.2721 -21.28012,18.8148 h 5.91117 l -1.18228,4.0318 17.73345,-10.7516 v -1.3436 l -18.91566,5.3753 c 2.87638,-5.8849 13.40766,-14.3632 19.76099,-11.226 6.90891,3.4126 18.98894,17.6379 26.34596,5.8507 -14.63127,-0.7619 -28.22926,-12.4197 -29.5557,-29.5661 h -1.18228 c -3.66491,14.6672 -8.86199,14.5395 -20.09785,22.8466 l -1.18228,-5.3755 17.73344,-9.4078 v -1.3438 l -18.91567,10.7516 3.54671,-10.7516 -11.82228,13.4386 v 1.3447 l 8.27557,-1.3447 -18.44988,14.5 -14.6525,17.7538 c 7.91971,-12.6793 11.64373,-21.8007 23.64454,-29.5653 l 2.36447,-14.7833 c -9.70611,5.2818 -11.50306,-7.3722 -17.73344,-13.4387 m 147.77865,14.783 -18.91565,-12.095 c 8.68111,-6.7411 22.08052,-1.1587 18.91565,12.095 m -127.68072,-1.3443 5.91111,-5.3753 -5.91111,5.3753 m 267.18386,-2.6873 c -8.5428,10.2618 -13.6583,29.0544 -14.1868,43.0042 h 1.1823 c 3.1554,-12.5475 15.0296,-29.8719 13.0045,-43.0042 m -86.3028,2.6873 v 6.7197 l -4.72894,-5.3754 4.72894,-1.3443 m 91.0317,0 -15.369,56.4436 h 1.1822 c 5.2586,-13.8889 19.2527,-41.6621 16.5513,-56.4436 h -2.3645 m -59.11144,8.0633 3.54662,5.3762 v -5.3762 h -3.54662 m 33.10234,2.6881 -2.3644,17.4704 h 1.1822 l 1.1822,-17.4704 m 5.9112,0 c -5.6676,16.702 -8.2756,34.5256 -8.2756,52.4119 l -4.72893,-1.3436 c 3.06313,23.6806 -3.7371,33.0042 -11.8223,53.7554 18.71583,-4.2926 15.80643,-29.4795 17.01463,-45.6921 0.8335,-11.1816 3.1861,-22.4433 4.4795,-33.598 0.9257,-7.9974 5.4677,-17.6178 3.3327,-25.5336 m 27.1913,1.3434 -16.5512,49.7249 c 8.4883,-5.3627 22.8997,-39.813 16.5512,-49.7249 m -183.24559,2.6885 v 1.3435 c 6.67017,2.4046 20.19836,8.1149 24.8268,0 l -24.8268,-1.3435 m 133.59196,0 -8.27565,43.0047 h -1.18221 v -6.7198 h -1.1822 l -1.18232,13.4386 c 9.35508,-6.1491 18.82938,-39.2066 11.82238,-49.7235 m -22.46246,2.6878 c 1.42463,19.8234 4.82349,33.6941 1.18231,53.7557 11.95233,-7.4914 4.74428,-42.0859 1.18221,-53.7557 h -2.36452 m -73.2982,5.3753 c -0.0104,10.9838 -2.57721,18.2761 -13.0045,20.1586 v 1.3436 c 12.84493,3.9729 19.05633,-9.1143 15.36892,-21.5022 h -2.36442 m -99.30726,2.6881 c -10.22983,8.9379 -22.84424,17.1258 -26.00902,32.2535 6.59207,-5.4556 27.38518,-22.6623 26.00902,-32.2535 m 135.95646,1.3436 7.09336,48.3802 c 8.61965,-10.4585 2.03808,-40.1772 -7.09336,-48.3802 m 28.37343,0 3.87297,28.2217 -5.05518,22.8466 c 12.3129,-8.1658 10.65073,-40.8239 1.18221,-51.0683 m -199.79678,5.3753 v 1.3446 l 8.27567,-5.3762 -8.27567,4.0316 m 243.53924,-1.3436 -12.34133,38.9732 -14.84989,22.8455 c 15.35479,-4.9132 30.78292,-44.5381 27.19122,-61.8187 m -198.61451,2.6882 -15.36893,14.7822 v 1.3445 c 7.71048,-1.3152 16.65524,-5.6318 15.36893,-16.1267 m 121.76958,0 c 3.02419,10.8472 1.85732,27.0654 -11.82219,22.8456 v -1.3438 c 6.20899,-5.8165 5.91115,-11.5537 5.91115,-20.1582 l 5.91104,-1.3436 m -153.68976,1.3436 -7.09339,9.407 7.09339,-9.407 m 180.88108,0 -2.36452,40.3167 c 11.84014,-8.1974 5.19596,-27.9464 4.72904,-40.3167 h -2.36452 m -114.67623,36.2852 h 1.18221 c 5.14503,-19.2491 7.28486,-28.0741 26.00901,-33.5971 -21.61705,-10.3119 -27.19122,16.0867 -27.19122,33.5971 m 65.02263,-30.9099 v 1.3443 l 9.45788,2.6874 -9.45788,-4.0317 m -184.42782,169.3307 -3.54668,-4.0318 h -1.18219 c 1.04152,14.4902 6.47269,34.5773 -13.00457,32.2535 v -17.4705 l 8.27561,9.407 1.18227,-1.3436 c -8.12903,-18.0845 -8.74497,-35.5484 2.47554,-52.3579 4.69818,-7.0379 12.63564,-12.7576 16.42473,-20.3378 3.14824,-6.2999 0.35957,-15.3632 4.27497,-21.0035 4.10939,-5.9183 10.33977,-6.2571 13.47384,-13.8126 h -2.36447 l 17.11275,-38.9525 25.44751,-32.2732 c -5.98322,3.2395 -8.44938,9.4871 -13.11445,14.5337 -8.11013,8.7729 -15.12307,12.1785 -20.19601,24.4386 -2.94028,7.1071 -2.10909,14.8823 -6.45736,21.4449 -3.58096,5.4039 -14.7152,16.1118 -19.34361,8.1215 l -12.14511,24.19 -19.77509,43.004 1.1822,1.3445 h 2.36448 l 23.64456,-59.1316 h 7.09337 c -2.71323,9.1099 -1.2248,19.9742 -5.94544,28.2163 -7.03425,12.2863 -20.29294,18.6384 -21.2458,34.9469 l -5.91117,-2.688 c 2.78297,17.2059 -13.17832,8.1372 -21.28013,9.4069 7.00233,9.261 14.28365,6.9405 23.64461,5.3762 l -1.18227,36.2852 c -9.17406,-10.7648 -17.96517,-25.325 -30.73791,-30.9098 l 2.36441,6.7196 c -5.97737,1.4547 -3.50767,11.6744 -0.59136,16.0149 3.70867,5.5197 9.64232,8.7356 12.74211,15.1926 2.47201,5.1513 0.52711,11.949 3.61169,17.1727 6.29538,10.6593 11.97721,14.2021 14.97532,26.8773 l -1.18227,1.3445 -9.45779,-1.3445 3.54669,14.7833 -10.64007,-13.4388 v -1.3445 h 4.72891 l -19.61675,-13.5783 -1.63265,-14.6434 -8.30632,-22.8456 h -1.18229 l 2.36449,20.1584 h 3.54671 c -0.14315,7.8775 -3.51479,19.1546 -0.81694,26.6486 6.09675,16.9364 30.45544,23.3839 44.5594,24.4187 2.13869,-21.7805 -6.99522,-33.5288 -16.96261,-49.7435 -3.65663,-5.9467 -1.83604,-12.6959 -4.52913,-18.7933 -4.04442,-9.1587 -12.26089,-14.5259 -16.33956,-24.1917 l 40.19579,29.566 v -1.3442 l -2.36449,-4.0318 8.27565,-2.6872 -1.18229,9.4068 5.91118,-12.0949 2.36447,17.4703 h 1.18222 c 2.42949,-6.8522 2.23561,-16.9165 -3.54669,-21.502 1.30872,-9.3499 -1.78751,-19.2918 2.37865,-28.2201 3.84104,-8.2316 13.04469,-10.9556 15.70114,-20.1616 3.81039,-13.2038 -6.89829,-23.1784 6.74702,-32.2518 l -1.1822,5.3751 7.75537,-11.7061 19.43586,-16.5156 c -7.16787,17.125 -24.26995,29.9637 -22.46233,51.0683 h -2.36448 l -1.18222,-14.7831 h -1.1822 l 0.87362,34.9207 -14.5473,22.8671 1.04747,25.5337 -6.2895,13.4388 9.45786,-5.3754 c -2.6813,-17.2512 7.55325,-31.8542 18.91564,-41.6604 l -2.36441,-12.095 h -1.18228 c -0.43843,11.3903 -5.72553,13.2466 -10.94977,21.7314 -2.81375,4.5714 -3.29842,10.9029 -5.60139,15.8974 -4.1083,-19.6253 11.02664,-22.6608 14.81329,-38.9733 3.14832,-13.5601 3.04547,-25.7996 8.36313,-38.9724 4.14725,-10.2759 12.70539,-18.4409 16.10664,-28.7917 2.44492,-7.4441 0.37353,-14.5521 4.08582,-22.2243 4.03609,-8.3426 12.73735,-11.1798 17.23452,-18.921 3.16962,-5.4571 1.30998,-11.7411 3.44384,-17.4108 4.11299,-10.93 12.47494,-21.4973 17.52659,-32.2589 -25.04794,4.287 -44.34665,41.0492 -51.89872,65.8506 -2.04173,6.7061 -0.91978,15.3242 -3.69919,21.4821 -5.29523,11.7346 -21.16312,15.4767 -25.87783,27.0233 -2.3952,5.8642 3.12583,13.3165 1.79938,20.0329 -2.54656,12.8952 -19.47132,18.1053 -16.08424,32.2537 m 293.19294,-166.6426 v 4.0316 h 1.1822 l -1.1822,-4.0316 m -261.27274,16.1266 13.00455,-14.783 c -6.94921,2.368 -10.0194,7.53 -13.00455,14.783 m 63.84039,-12.095 -11.82227,30.9098 c 7.6644,-7.0118 12.55885,-20.0243 14.18676,-30.9098 h -2.36449 m 177.72811,2.2403 0.3952,0.8944 -0.3952,-0.8944 m -183.63927,0.4445 -24.82683,43.0042 h 1.18227 l 9.45781,-12.095 c -0.80388,8.4181 -4.60596,15.9591 -11.82229,18.8146 l 1.18221,-6.7196 h -1.18221 l -14.18676,33.598 c -6.03055,-2.4129 -4.28555,-9.0627 -2.52406,-14.7833 4.23948,-13.7671 13.44785,-20.6679 20.2575,-32.2533 l -10.64005,8.0632 c 1.36193,-6.6729 5.03629,-20.8988 13.00454,-16.1268 2.71322,-11.16 11.29026,-13.4869 17.73345,-21.502 h 2.36442 m -42.56026,1.3438 -7.09338,10.7512 7.09338,-10.7512 m 244.72157,0 -1.1822,14.7828 1.1822,-14.7828 m -109.94745,13.4386 c -6.4915,13.0133 -19.33529,10.5688 -29.55574,5.5763 -3.20849,-1.5677 -11.61775,-4.9311 -10.09501,-10.531 1.09476,-4.0197 7.34748,-3.15 10.09501,-3.0357 10.50066,0.4366 18.83529,7.8888 29.55574,7.9904 m -43.74245,-4.0318 c 4.86492,11.3412 16.62095,14.2157 26.00901,18.815 -7.05203,5.4759 -21.17843,1.93 -28.01526,-3.216 -6.03179,-4.5427 -3.23333,-12.5925 2.00625,-15.599 m -338.1176,6.7198 c -6.99882,9.7069 -17.92968,14.7545 -25.20515,24.4187 -12.1273,16.1076 -14.33693,35.5604 -19.71959,54.8712 -8.34184,-30.8304 12.13087,-83.0542 44.92474,-79.2899 m -256.54383,51.0682 26.00903,-13.4394 v -5.3754 l 1.18227,4.0318 c 8.32062,-4.5429 28.08586,-6.7117 30.73792,-17.4704 5.49492,3.949 10.90007,-1.5874 16.55124,-3.3745 12.26867,-3.8788 26.25793,-7.0769 39.01358,-7.3769 v 20.1584 c -6.97044,-1.0016 -15.92702,-3.4269 -22.46143,0.5792 -10.65628,6.5396 -11.2541,27.891 -1.18321,35.702 -1.02922,-6.7999 -4.10687,-13.0665 -3.3186,-20.1585 1.68115,-15.1228 16.95898,-15.9195 26.96324,-12.095 v 6.7197 c -15.13376,2.2332 -17.91729,14.242 -13.00457,29.5654 h 2.36449 l 1.1822,-1.3436 c -6.45448,-18.9813 3.72829,-16.2235 10.62466,-29.7076 4.34,-8.4845 5.02931,-25.3955 3.5621,-34.7993 -7.72807,2.4081 -14.81014,-0.7938 -22.46232,0.6268 -23.51422,4.3627 -45.14119,12.8238 -67.3871,22.1314 -11.24927,4.7065 -28.20763,9.6959 -28.3735,25.6204 m 523.72766,-45.693 1.18223,1.3445 -1.18223,-1.3445 m 34.28467,4.0316 -11.82231,28.2219 16.55125,-26.8774 -4.72894,-1.3445 m -48.4714,1.3445 -9.45787,9.407 c 4.70767,-1.1024 8.54633,-3.7672 9.45787,-9.407 m -349.93994,4.0317 -1.1822,1.3438 1.1822,-1.3438 m -102.85397,2.6874 v 2.6879 l -2.36449,-2.6879 h 2.36449 m 498.90085,49.7244 c -10.53605,-10.5323 -4.77736,-24.1875 1.66338,-34.9415 1.6587,-2.7714 7.38544,-15.5678 11.68159,-11.0845 2.9189,3.0452 -1.84427,8.6966 -3.31024,11.0845 -6.34143,10.335 -9.80656,22.3862 -10.03473,34.9415 m 258.90826,-45.6927 3.5467,5.3759 -3.5467,-5.3759 m -359.39773,4.0316 -15.36904,18.8148 c -1.0238,-11.0713 7.17618,-16.0934 15.36904,-18.8148 m -419.69151,1.3443 -1.1822,1.3438 1.1822,-1.3438 m 543.82561,2.6873 -14.18681,29.5664 c -7.88659,-9.6095 1.68826,-35.9472 14.18681,-29.5664 m 359.39773,217.711 c -2.109,12.3974 -11.6153,24.5717 -17.7346,34.9414 -8.2378,13.9594 -21.1619,44.1391 -34.3307,51.8484 -24.3007,14.2268 -54.6817,17.6864 -80.3444,28.2003 -8.2283,3.3708 -19.3744,4.6889 -26.009,11.3366 26.6581,-3.9167 54.7845,-15.6712 80.3916,-24.965 10.4638,-3.7959 24.9829,-6.3267 33.8957,-13.8726 8.3629,-7.0801 10.9829,-21.8639 19.3045,-29.7013 l 11.8223,36.2853 -9.4579,21.502 h -1.1821 c -7.0816,-4.061 -24.069,8.6198 -31.9201,10.8912 -21.3773,6.1833 -43.1066,9.7687 -65.0227,12.0563 -7.2814,0.7617 -16.5051,4.4235 -23.6445,1.83 -6.3427,-2.3048 -11.5115,-8.4975 -16.2085,-13.535 -8.0758,-8.6622 -14.8228,-12.0948 -15.6018,-26.0238 -1.0475,-18.7069 2.1185,-37.7156 2.2545,-56.4453 17.9273,6.5841 30.5666,11.8879 49.6536,6.7197 -2.8693,-7.3365 -3.3988,-16.0419 -7.1099,-22.8465 -7.8689,-14.4252 -20.9171,-24.8028 -27.8178,-40.3169 -6.6005,-14.8362 -3.6697,-34.4383 -6.9303,-50.0666 -1.5192,-7.2807 -5.8106,-13.776 -7.3949,-21.1593 -3.0335,-14.1431 -2.894,-28.9145 -5.6641,-43.0101 -1.7117,-8.7128 -5.6793,-20.5942 -4.6626,-29.5553 0.7436,-6.5524 8.1976,-12.2839 11.5326,-17.4768 5.9183,-9.2141 10.5148,-22.1756 11.3979,-33.5961 6.2185,2.5435 14.2601,8.3792 15.3689,16.1266 h 1.1824 l 1.1822,-2.688 50.8358,31.9623 14.461,7.8829 8.064,23.3179 16.5229,73.9142 30.7035,61.8195 c -7.7942,3.0476 -7.9444,9.6031 -10.6458,17.4704 -5.1285,14.9426 -17.9144,28.6963 -20.092,44.3487 h 1.1822 c 5.1616,-12.3476 13.9704,-22.4148 19.0328,-34.9418 3.6967,-9.1475 4.3363,-21.0488 14.0696,-24.1901 -1.2342,-19.3489 -19.7668,-39.185 -27.2136,-56.4436 -11.5717,-26.8145 -10.963,-59.2537 -20.935,-87.3526 -2.3988,-6.7584 -3.0136,-16.9146 -7.7745,-22.0979 -4.0112,-4.3667 -10.2414,-5.8563 -15.0106,-8.9164 -15.9625,-10.2406 -32.8979,-18.9451 -48.4714,-29.8861 -3.5645,-2.505 -19.5139,-8.9865 -19.0552,-14.3029 0.8985,-10.4214 12.5151,-4.1541 16.6907,-1.697 16.8586,9.9126 34.1677,18.5545 50.8359,28.9393 6.0825,3.7895 14.6099,7.6546 19.3944,13.3879 39.6733,47.5358 19.5068,130.7005 70.455,170.3061 m -798.0049,-216.3664 2.3644,2.687 -2.3644,-2.687 m 399.59357,1.3434 c 1.73195,6.873 0.54946,13.6999 -5.91117,16.1268 l 3.54669,-16.1268 h 2.36448 m 49.65358,25.5338 c -11.70761,-2.8142 -8.66098,-15.3346 -8.27557,-25.5338 7.28257,2.7453 6.55548,17.9745 8.27557,25.5338 m -445.70046,-24.1902 1.18219,1.3446 -1.18219,-1.3446 m 449.24719,0 v 12.0952 l -4.72894,-12.0952 h 4.72894 m 236.44592,0 1.1822,1.3446 -1.1822,-1.3446 m -683.32872,2.6882 3.54669,5.3754 -3.54669,-5.3754 m 309.74416,1.3436 -3.54666,8.0634 3.54666,-8.0634 m 120.5874,4.0318 c 2.59506,11.6734 -3.46272,23.2574 -3.11519,34.9414 0.32885,11.0657 5.39216,21.1758 5.26328,32.2536 -0.0981,8.4219 -5.01729,15.9972 -6.43358,24.19 -2.09257,12.103 1.3736,24.4504 -0.98613,36.2851 -2.24501,11.2578 -9.52508,19.1434 -12.78336,29.5653 -3.99589,12.7794 8.25668,26.3475 -0.82519,38.3353 -7.71522,10.1839 -19.44881,0.08 -15.40449,-11.457 l 8.27566,4.0316 -10.64007,-10.7513 -1.18227,13.4394 c -4.6556,-1.3523 -9.69426,-2.5642 -14.2151,-4.1435 -15.68705,-5.4833 -0.18915,-22.3544 3.06196,-29.594 1.98026,-4.408 1.90459,-9.8443 1.69535,-14.6426 7.08387,-7.0818 13.6713,-30.964 15.36894,-41.6614 12.22073,12.2501 -1.36188,27.9496 -3.18606,41.6614 -1.21183,9.1069 1.51914,15.5752 -2.72509,24.1901 l 7.09338,-1.3445 4.72896,17.4712 h 2.36441 c -0.46917,-11.6745 -10.23687,-22.1608 -7.90318,-33.5978 3.2263,-15.8166 20.30834,-22.8022 18.54327,-40.317 h -1.18221 c -1.31704,11.3212 -6.31077,20.3092 -15.36899,25.5346 l 10.64005,-26.878 h -1.18225 l -4.7289,8.0632 c 0,-8.2626 -2.96972,-9.4395 -5.91116,-16.1268 -2.50043,-5.6864 0.73299,-21.0385 -7.09338,-18.8148 -0.65839,-17.7219 7.02719,-34.7479 15.36903,-49.7237 4.36475,16.952 -8.83363,33.1297 -13.00456,48.3804 l 16.55122,-32.2538 h 1.18221 l 9.45788,6.7198 c -7.06028,17.9497 -11.86962,32.9977 -11.82234,52.4119 h 1.18225 l 3.54673,-22.8464 h 1.18221 l 1.18221,24.1902 h 2.36442 c 0,-10.2094 -3.30075,-22.5293 -2.08181,-32.2538 1.31569,-10.4958 7.83923,-18.7862 7.96342,-30.135 0.20246,-18.4927 -9.45308,-29.0957 4.75847,-45.1231 m -455.15837,1.3443 2.36449,14.7823 h 1.18219 l -1.18219,-14.7823 h -2.36449 m 28.3735,0 1.18229,12.095 h 1.1822 l -2.36449,-12.095 m 31.13169,3.584 0.39517,0.8944 -0.39517,-0.8944 m 309.35048,-0.8967 v 2.688 l 2.36441,-2.688 h -2.36441 m 229.35246,6.7196 3.54676,-4.0316 -3.54676,4.0316 m 154.8721,-2.6878 v 1.3443 l 9.4579,-1.3443 h -9.4579 m -280.18841,0 c 4.88736,9.5085 16.16342,17.1885 19.20296,26.878 3.05247,9.73 -5.64868,20.7616 -4.71715,30.9098 1.02034,11.1182 10.74768,20.452 14.03309,30.9091 3.81276,12.1395 -0.85002,21.7298 -1.85137,33.598 -0.9883,11.7092 11.86957,28.1486 -0.81579,37.3209 -13.15458,9.5107 -21.06488,-14.1928 -24.49451,-25.2465 -2.27821,-7.3427 7.01883,-18.814 8.12663,-26.8576 1.80995,-13.1356 -4.81169,-26.2021 -5.93713,-38.9734 h 1.18222 c 5.46541,11.6255 10.88,20.0475 11.82228,33.598 h 1.18222 c -0.48456,-14.7013 -8.70835,-24.0116 -11.17912,-37.6296 -1.83133,-10.0927 3.01814,-20.8258 0.68065,-30.9091 -1.95772,-8.4488 -10.96163,-25.8255 -7.23519,-33.5976 m 354.66892,0 c 0,9.7824 1.0568,26.1162 -3.8766,34.5675 -2.764,4.7355 -9.5264,6.5223 -13.8571,8.8379 -11.6483,6.2286 -26.7429,11.8071 -36.6489,21.1013 14.9622,4.8762 36.409,-14.4329 49.6536,-21.5018 l 2.3645,10.7513 h 1.1822 l 5.9111,-40.3168 h 1.1822 c 5.5908,15.1829 12.3449,29.7107 -4.7289,38.9723 v 1.3445 c 12.5458,-0.9086 12.4619,-7.2444 15.369,-18.8148 10.3009,5.084 22.7401,6.5459 26.0089,20.1583 -9.31,1.6841 -16.767,-1.3435 -18.9153,12.095 h 1.182 l 9.458,-8.0631 -8.2761,10.7514 7.0935,-1.3447 1.1826,4.0318 c 5.6663,-3.3825 5.2124,-8.2092 5.9106,-14.7823 h 2.3647 c 4.4976,9.0763 14.9541,13.9871 14.1867,25.5338 l -14.1867,1.6286 -17.7333,-4.3167 v 1.3445 l 18.9153,9.4069 -2.3639,6.7198 c -9.2605,0 -19.363,-2.5808 -28.3737,0.081 -19.0599,5.6116 -37.5145,31.1121 -42.5601,52.3388 l 8.2755,-1.3438 c 2.8682,5.4658 6.1264,8.2842 11.8223,8.0635 v -1.3445 l -8.2758,-9.4071 3.5468,2.6881 16.5513,-2.6881 v -1.3436 c -9.4437,-5.9039 -18.8979,-1.8664 -28.3736,2.6874 10.9711,-18.8741 24.2784,-38.6257 43.7425,-46.8683 5.8924,-2.4934 11.6872,2.2287 17.628,2.3491 9.4887,0.1908 7.2533,-6.2595 13.485,-10.3354 5.5897,-3.6573 10.2318,-2.303 12.7549,-10.9974 3.9285,-13.5371 -10.041,-16.5847 -14.1736,-25.9212 -2.0239,-4.5704 -0.118,-9.4864 -3.4118,-13.8362 -2.6377,-3.4808 -7.714,-4.3596 -9.3185,-8.8736 -3.4084,-9.5929 -0.4748,-22.7123 -3.9594,-33.345 h -2.3646 c -2.5853,9.0175 -5.4143,25.1037 -14.1866,28.222 l -10.6402,-28.222 h -3.5465 m -497.71872,2.6874 v 4.0317 h 1.18221 l -1.18221,-4.0317 m 28.37351,2.688 v 2.688 h -2.36448 v -2.688 h 2.36448 m 100.48957,0 c 15.58642,16.5761 7.47752,30.6423 5.91105,51.0684 -10.68611,-8.5245 -11.05033,-38.7099 -5.91105,-51.0684 m -104.03626,1.3437 v 2.6879 h -2.36448 v -2.6879 h 2.36448 m -316.83755,2.6879 c 4.81052,7.223 22.91516,12.8691 30.73799,14.7824 v -1.3434 l -30.73799,-13.439 m 291.61703,0.4447 0.78733,0.4522 -0.78733,-0.4522 m 21.28013,0.4522 -0.39515,0.8952 0.39515,-0.8952 m 87.87858,-0.8958 c 5.97742,9.6551 8.17632,21.9519 7.09347,33.5969 -8.91165,-6.6419 -15.02849,-23.2253 -7.09347,-33.5969 m -437.42482,1.3435 -8.27565,12.095 c 5.23849,-0.9826 9.0902,-5.8715 8.27565,-12.095 m 322.74865,0 c 1.76977,17.5513 -17.1932,15.8885 -20.09794,32.2534 -12.66048,-11.0053 13.87824,-24.5695 17.73346,-32.2534 h 2.36448 m 145.41423,1.3437 3.54662,9.4075 h -1.18221 l -2.36441,-9.4075 m 388.95355,1.3443 c 0,10.814 1.9362,22.6338 -10.6399,17.4702 l 8.2753,-17.4702 h 2.3646 m -763.72033,8.0632 -1.1822,1.3438 1.1822,-1.3438 m -67.38708,4.0318 v 1.3436 l 30.738,16.1268 c -5.82607,-8.4641 -21.06029,-20.4584 -30.738,-17.4704 m 445.70048,-1.3444 c 7.34999,11.2285 1.27687,26.452 0.45387,38.9733 -0.9044,13.779 5.51626,26.3877 5.45592,40.3168 -0.0417,10.0641 -6.2835,17.3361 -6.71619,26.8781 -0.5216,11.5037 8.43169,16.6934 5.53525,29.5655 l 1.1821,1.3436 c 11.77502,-0.5159 1.96263,16.021 -1.1821,5.376 h -1.18222 c 2.50625,13.6204 9.29935,1.3225 14.18671,-2.688 -0.0783,10.7729 -1.9046,21.8948 -13.0045,22.8465 v 1.3436 c 11.08571,0.9136 9.30405,-7.8029 16.55113,-13.4386 l 23.64459,57.7872 c 10.1187,0.5318 27.47739,14.3457 10.64009,21.502 l -15.35128,-12.2602 -10.65773,-14.617 c 1.44697,14.8552 38.86459,34.9555 14.18191,46.5793 -3.00394,1.4136 -6.32723,2.1428 -9.45308,3.1443 l -1.18219,-1.3436 c 5.51039,-15.38 -1.26852,-28.5853 -14.18673,-36.2852 3.19317,7.2865 10.40007,12.731 12.69831,20.2109 3.39656,11.057 -9.93784,20.2767 -16.69546,11.3515 -3.09025,-4.0812 0.32884,-9.4808 0.0751,-14.092 -0.52702,-9.5602 -6.32723,-18.0633 -6.71734,-28.2218 h -1.18221 c -0.0125,5.7777 -4.15913,28.2543 -12.20301,15.8133 -3.23813,-5.0085 -1.60665,-13.9586 -1.98381,-19.8449 h -1.18221 l -2.36442,16.1268 h -1.18221 c -4.37431,-11.1904 -3.34813,-39.3884 4.72884,-48.3804 l 14.18682,30.9099 c -4.24189,-9.1673 -17.81036,-30.4447 -7.09346,-37.6295 -5.46657,-9.3602 -10.75938,-12.245 -17.73345,-2.6873 l 10.64009,-4.0317 -3.54663,13.4386 c -17.39886,-2.076 -14.60645,-22.1861 -13.00461,-36.285 h -1.18283 l -2.36442,16.1267 c -3.17896,-3.1579 -2.78541,-8.9665 -1.59725,-13.4388 1.78646,-6.7235 7.26127,-10.9059 9.102,-17.4908 3.05613,-10.938 -3.72634,-29.0965 5.49976,-36.2654 l 3.97586,40.297 -8.7047,29.5861 h 1.18211 l 8.27567,-24.1901 v 21.502 h 1.1822 l 2.07127,-24.19 -5.16632,-42.1779 9.64103,-26.3608 -4.33163,-17.4703 6.06122,-37.6297 m 360.58017,2.688 c -0.7555,2.2445 -1.4259,4.4501 -2.0394,6.7532 -4.3755,16.4213 7.8182,7.9079 2.0394,-6.7532 m -698.69777,182.7696 17.73344,10.7512 5.91118,-5.3752 c 1.32764,6.5784 4.15906,12.8227 9.45786,16.1268 0.31417,18.6988 19.58476,33.1201 30.7379,43.797 19.5896,18.756 43.87968,28.5001 63.77661,47.0421 10.40951,9.7014 12.91587,25.8359 22.1573,36.0723 3.69209,4.0895 9.96618,3.1398 14.55565,5.0388 6.67839,2.7644 11.44395,8.5333 17.73345,11.8458 6.46559,-13.4909 3.27476,-29.3827 3.98883,-44.3484 0.3107,-6.5135 1.88092,-14.0545 -2.4555,-19.4886 -10.06906,-12.6165 -28.71751,-9.6498 -41.72918,-13.2998 -15.46941,-4.3388 -29.63376,-16.5246 -44.92467,-19.6235 l 20.09785,-33.5971 c -6.08493,2.0039 -10.05723,8.5902 -16.55117,9.8587 -8.33122,1.626 -14.56033,-4.4778 -10.0383,-13.888 1.56522,-3.2563 3.67785,-6.1816 5.30934,-9.4093 l -14.18676,-4.0316 v 2.687 c 13.60394,6.4389 -7.78616,28.3417 11.82234,29.5663 -2.56896,18.3076 -17.3102,0.6268 -23.14332,-6.7349 -8.5783,-10.8205 -17.63059,-19.9728 -24.39418,-32.6216 -6.00925,-11.2403 -12.40391,-31.5506 -22.21405,-38.5898 2.67774,-6.0595 -4.03261,-14.5071 -6.59209,-20.1585 -8.22832,-18.1649 -16.61743,-35.882 -25.3281,-53.7556 12.38624,-0.9356 35.22098,-18.838 43.18921,-29.5915 5.26917,-7.1086 7.34753,-16.7688 13.55779,-22.8204 1.14793,10.1047 4.18628,19.8616 -0.32953,29.5655 -2.89768,6.2292 -9.06772,10.5125 -10.77957,17.4711 -1.95066,7.9356 1.65161,20.9244 1.65161,29.5655 l 5.91107,2.688 -3.31258,-27.9932 13.95266,-31.1384 30.73799,18.8148 c -4.49131,-12.6029 -31.41772,-16.0974 -27.1913,-29.5664 l -7.09339,-12.095 15.36905,1.3445 v -1.3445 l -14.18676,-2.6871 c 2.46964,-9.1586 10.5419,-3.9659 16.55115,-1.8007 12.40282,4.4679 37.20479,11.2814 42.56026,25.9906 l -1.1822,1.3438 -14.18673,-8.0633 14.18673,14.783 -1.18219,1.3436 -8.27567,-4.0316 8.27567,5.3753 c -2.9154,10.1871 -8.77569,18.249 -11.71593,28.2218 -4.41444,14.9766 -0.6919,31.3868 4.07043,45.6928 3.87183,11.6311 10.71575,20.2712 15.75672,30.9091 2.72272,5.7452 1.82418,12.6451 6.00816,17.5682 6.67838,7.8568 22.90092,6.9139 24.83861,19.8384 1.49553,9.9739 -7.77794,12.5546 -11.76677,19.037 l 15.36904,-5.3752 c 2.04877,9.6704 1.75442,16.2559 -1.18229,25.5337 h -1.1822 c 0.96941,-7.0485 -0.28973,-17.4784 -5.91117,-21.5021 l 1.18229,26.8781 c 11.30798,-3.8213 19.16984,-25.2052 7.09337,-33.5978 l 1.1822,-14.7824 -5.10367,-9.1015 -25.63432,-13.745 c 5.95843,-1.4515 3.20508,-11.2689 0.42657,-15.6035 -12.08471,-18.858 -22.79807,-33.6163 -22.8891,-58.3104 h -1.1822 v 5.3754 h -1.18231 c 1.47427,-12.3301 10.049,-32.9432 17.73344,-41.6603 0.64582,8.41 3.77376,16.0027 5.29882,24.1899 2.89404,15.5378 0.54735,26.4426 18.3458,28.2218 l -7.09337,-26.8782 h -1.18219 l 1.18219,21.5022 h -4.72888 l -3.21918,-30.9092 -2.692,-22.8465 c -6.11092,-1.7673 -6.13697,-7.48 -4.7289,-13.4386 h 2.36448 c 4.62367,9.6904 18.40614,19.5267 27.19124,24.1901 1.23549,-9.1269 -11.07629,-15.8276 -16.55117,-20.9465 -19.8331,-18.5458 -43.00478,-26.7448 -67.38708,-34.1534 v -2.6882 l 28.3735,-1.3435 c -5.40283,-8.0676 -27.57312,-7.0318 -34.17471,-0.9168 -12.03745,11.1491 -17.59039,29.0917 -28.53429,41.005 -12.70895,13.8355 -31.94742,17.7609 -44.21185,31.0908 -6.82856,7.4237 -10.97226,28.5718 -10.76182,39.0199 0.25204,12.5349 5.63924,24.1704 7.69394,36.2854 0.91152,5.372 -0.76491,11.2394 1.94949,16.1068 3.47575,6.2331 10.42252,12.7466 17.00756,12.115 m -104.03618,-177.3942 1.18223,1.3445 -1.18223,-1.3445 m -33.10239,8.0635 3.54669,-4.0319 -3.54669,4.0319 m 768.44919,1.3443 v 1.3436 c 6.559,1.0429 20.4798,-0.611 24.8269,-6.7198 l -24.8269,5.3762 m 67.3871,-4.0316 -1.1822,1.3436 1.1822,-1.3436 m -770.8137,6.719 -2.36447,2.688 v -2.688 h 2.36447 m 730.6179,0 -22.4624,9.4076 c 4.7077,-0.1661 23.4283,-2.6023 22.4624,-9.4076 m -165.5121,2.688 2.3645,10.7514 -9.4579,-4.0318 7.0934,-6.7196 m -282.15924,2.2403 0.39517,0.8943 -0.39517,-0.8943 m -248.66187,1.7913 -19.8674,33.4765 -12.8733,14.956 3.21808,13.3864 -1.21538,29.5662 h 1.18227 l 1.18222,-8.0634 c 7.02125,12.6912 13.87579,30.5948 15.07461,45.6921 0.44472,5.5961 -2.48626,15.3659 -8.01077,16.7418 -3.77493,0.9421 -7.17856,-4.7111 -10.61053,-5.9904 l 9.62569,13.7569 3.37885,26.5601 20.09786,-9.4078 v 9.4078 c -15.41037,9.8506 1.02029,24.1068 10.64005,28.2217 l -10.64005,16.1267 c 8.62675,-0.1192 13.39231,-7.5919 13.00454,-17.4712 l 4.7289,-1.3436 -7.09339,17.4705 c 10.4143,-3.7825 13.21973,-11.3999 10.64008,-22.8459 -4.75495,0.6905 -9.58548,2.4311 -14.16904,0 -10.21801,-5.4482 -9.75693,-16.3957 -0.0209,-21.4907 l -10.64005,-10.7508 5.91116,-17.4712 h -1.18255 c -3.97465,8.8516 -10.15532,17.7777 -17.73343,22.8466 -0.13692,-12.5195 -2.89293,-22.4536 10.64005,-18.8148 -0.95641,-6.2578 -4.36241,-6.5778 -9.45784,-6.7189 l 5.42879,-21.5028 -17.88473,-51.0136 2.77348,-12.2743 -6.86871,-16.0014 c 11.87428,-3.5239 19.19463,-19.0981 26.34121,-29.5663 3.51359,-5.1467 7.94103,-11.1889 4.3967,-17.4703 m -44.92474,3.1357 c 0.9139,0 0.18916,0.6665 -0.39376,0.4444 l 0.39376,-0.4444 m 27.97989,0.4444 -0.39517,0.8954 0.39517,-0.8954 m 262.84932,-0.8962 -2.36441,5.3763 h 1.18221 l 1.1822,-5.3763 m 450.42957,9.4081 v 1.3435 l 26.009,-9.4069 -26.009,8.0634 m -601.75489,-8.0634 c 4.97837,7.0307 22.88795,14.406 30.73793,16.1266 v -1.3436 l -30.73793,-14.783 m 16.55116,0 1.18229,1.3434 -1.18229,-1.3434 m 325.11311,17.4702 3.54663,-13.4386 v -2.6882 c -10.57027,-2.5252 -10.92019,10.6992 -3.54663,16.1268 m 86.30292,-17.4702 7.0933,12.095 -7.0933,-5.3754 16.5511,18.814 -1.1822,20.1585 -8.2756,-6.7191 10.6401,16.1269 c -15.9306,-4.6976 -36.29824,-23.7513 -36.64924,-43.0049 h 1.1823 c 4.3435,10.7482 15.1892,18.9625 23.64454,25.5338 -6.0139,-7.3564 -18.66504,-15.4389 -20.09794,-25.5338 l 10.6401,4.0316 -5.9111,-5.3754 2.3645,-6.7196 5.91104,2.688 1.1824,-6.7196 m 146.2027,2.2403 -0.3952,0.8944 0.3952,-0.8944 m -552.88977,0.4445 v 1.3435 l 8.27561,2.6883 -8.27561,-4.0318 m 125.31631,1.3435 -8.27557,10.7515 c 4.06095,-2.1603 8.37723,-5.2762 8.27557,-10.7515 m 458.70516,12.0953 v 1.3435 c 8.5652,-1.834 19.5564,-3.6617 26.009,-10.7505 l -26.009,9.407 m -574.56366,-9.407 v 1.3436 l 5.91117,2.688 v -1.3446 l -5.91117,-2.687 m 82.75609,2.687 v 4.0319 l -9.45784,-1.3437 9.45784,-2.6882 m 157.23648,0 c 0,12.7753 -0.39866,31.3236 -9.45788,40.3169 -3.2038,-15.2958 3.51239,-26.1804 7.09336,-40.3169 h 2.36452 m -266.0016,1.3446 v 1.3436 l 31.9202,18.8148 v -1.3445 l -31.9202,-18.8139 m 268.36612,1.3436 c 4.61769,7.6833 3.53598,23.1806 -2.36452,29.5655 l 2.36452,-29.5655 m 347.57567,8.0634 v 1.3436 l 9.4578,-2.6874 -20.098,20.1586 c 7.9623,-4.6764 25.2607,-14.7713 26.009,-25.5345 l -15.3688,6.7197 m -483.53212,-4.0316 -1.1822,6.7196 h 1.1822 v -6.7196 m 521.36302,0 4.7293,5.3752 -4.7293,-5.3752 m -854.75172,1.3435 -1.18221,1.3443 v 2.6874 l 20.09786,10.7514 -18.91565,-14.7831 m 231.32333,0.4444 0.7873,0.4524 -0.7873,-0.4524 m 390.52935,-0.4444 v 1.3443 l 7.09344,4.0318 v -1.3444 l -7.09344,-4.0317 m 160.78334,6.7197 v 1.3436 l 13.0046,-6.719 -13.0046,5.3754 m -548.55459,-4.0316 1.18227,1.3436 -1.18227,-1.3436 m 318.01969,0 c -1.31924,6.0903 -4.4002,15.4117 -2.48621,21.5021 1.56407,4.9728 5.709,8.2085 6.84038,13.4393 3.55373,16.4372 3.46032,33.086 8.2212,49.7239 2.81609,9.8371 -0.75537,18.0806 7.52259,25.5337 -5.82609,-23.0005 -15.01785,-55.1642 -10.64008,-79.2893 -12.65229,-10.3521 -4.84593,-17.2316 -7.09336,-30.9097 h -2.36452 m 52.01816,1.3436 5.9111,18.8147 -1.1822,-6.7197 c 11.6734,4.4752 21.85594,25.3758 34.28474,24.1901 l 2.3645,13.4395 c -9.7854,-4.0793 -28.85714,-16.768 -34.28484,-26.878 h -1.1822 l 3.5467,10.7512 c 6.747,-1.2634 12.31534,4.404 17.73354,8.5102 5.073,3.8467 14.1821,8.7024 17.3576,14.7038 8.6219,16.2925 2.3573,40.9247 11.0017,57.1895 2.7346,5.1445 8.0463,7.8109 11.3412,12.446 3.0631,4.3102 3.4509,10.1426 6.7647,14.2251 2.8338,3.4904 8.2047,5.9237 8.8501,11.1863 0.9624,7.8562 -10.6341,10.9514 -15.1194,8.0651 -5.2113,5.1307 -10.1767,3.2602 -16.5514,2.6879 l -3.5466,-43.005 h -1.1822 l -8.2756,17.4705 -30.73813,-22.8457 c 8.1989,12.9562 26.22203,18.0332 29.11133,34.9422 2.0725,12.1284 2.8102,28.0458 1.2721,40.3154 -2.3999,19.1426 -8.077,38.6168 5.0836,53.7563 v 1.3437 c -34.89013,28.3242 -80.76059,28.232 -121.76982,32.4804 -10.54543,1.0927 -21.33673,1.6945 -31.92016,1.7096 -3.03474,0 -7.27306,1.6086 -9.94493,-0.6352 -4.58346,-3.849 -5.31285,-16.929 -7.02594,-22.8027 -2.28531,-7.8364 -6.11914,-17.2465 -6.4148,-25.5344 -0.22824,-6.4048 2.71799,-12.3767 2.58087,-18.8141 -0.23315,-10.9639 -2.47442,-24.352 -0.47547,-34.9415 5.52219,2.7427 9.17641,-1.5452 14.18682,-4.0315 5.34592,10.0481 -3.24878,21.856 7.09335,28.2217 l -11.8224,18.8148 47.28929,-20.1585 c 0,9.0975 0.0282,16.3211 -8.27567,20.1585 v -14.7832 l -11.8223,22.8464 c 21.87838,-5.6878 25.57163,-22.0997 24.82681,-45.6928 7.35822,2.9403 4.98076,14.3862 4.72893,21.5028 10.99356,-7.3809 15.56878,-22.3037 5.91115,-33.5982 1.19056,-11.9939 -8.96957,-16.4479 -17.73344,-18.8137 -2.62334,-22.1314 -25.78442,-38.967 -27.19132,-61.8196 21.86073,-3.8787 10.72169,-22.4593 8.68236,-37.6289 -0.87841,-6.5379 1.64213,-21.0211 4.69701,-26.6773 4.48536,-8.303 20.55423,-0.8754 27.99866,-2.8881 l 3.54673,4.0318 9.27337,47.0357 4.07991,26.878 7.53794,21.5022 5.11779,68.5385 5.91115,-8.0632 c 13.37229,7.4776 1.98266,15.3284 4.84603,25.5344 3.82809,13.642 28.19255,26.3575 39.96295,20.6917 8.71423,-4.1959 2.89523,-27.8781 -1.6954,-33.6938 -6.9491,-8.8033 -15.04979,-20.1577 -18.75609,-31.3669 -2.01564,-6.0978 -0.27573,-13.7722 -0.59486,-20.1379 -0.74358,-14.799 -1.89386,-29.5058 -2.52994,-44.3486 -0.33584,-7.8283 -3.46272,-14.9568 -3.79615,-22.8466 -0.81225,-19.232 0.75067,-39.8126 1.4789,-59.1315 6.05663,4.5478 8.48022,16.7666 11.32114,24.1901 7.7731,20.3148 15.9541,40.8147 22.17503,61.8197 2.5833,8.7245 4.1177,24.7276 11.4287,29.5655 -2.6861,-34.9709 -22.79703,-66.195 -33.47493,-98.1041 -2.82549,-8.4441 -11.97237,-29.4113 -1.9921,-33.598 m -270.73029,2.6882 v 8.0634 h 1.18153 l -1.18228,-8.0634 m 296.73967,0 5.9111,5.3754 v -1.3436 l -5.9111,-4.0318 m 170.2411,2.688 v 1.3438 l 8.2758,-2.688 -8.2758,1.3442 m -374.76687,-1.3442 c 1.85853,13.2807 -4.29972,23.1892 -8.28737,34.9414 -1.98497,5.8482 -1.50853,12.2213 -4.71711,17.4702 -7.24,-19.1275 2.72621,-36.973 13.00448,-52.4116 m 358.21577,12.0948 15.369,-9.4068 -15.369,9.4068 m 37.8313,0 10.6399,-6.7189 c -4.8175,-1.3251 -8.2731,2.1824 -10.6399,6.7189 m -568.65252,-6.7189 -1.18228,1.3437 1.18228,-1.3437 m -231.71702,1.3437 5.91118,4.0316 v -1.3436 l -5.91118,-2.688 m -28.37352,1.3436 -1.18219,5.376 30.73792,12.0952 -29.55573,-17.4712 m 203.34352,2.688 -2.44957,25.5337 13.71855,21.5029 20.3462,56.4436 9.76281,20.1585 -16.44952,-47.0365 -11.59648,-36.051 -11.26547,-13.7309 -2.06652,-26.8203 m 433.87824,1.3436 1.1823,1.3444 -1.1823,-1.3444 m 187.9745,9.408 16.5513,-9.408 -16.5513,9.408 m -591.11481,-8.0636 10.64005,10.7506 v -1.3434 l -10.64005,-9.4072 m 562.74141,28.2218 24.8267,-25.5344 c -9.9376,4.346 -19.2537,15.4133 -24.8267,25.5344 m -580.47485,-24.19 1.18227,1.3436 -1.18227,-1.3436 m 578.11045,12.095 11.8223,-10.7514 -11.8223,10.7514 m 28.3734,-6.7196 -3.5467,5.3754 3.5467,-5.3754 m -827.56074,1.3434 c -1.14187,8.8888 24.47682,15.4428 31.9202,17.4712 l -31.9202,-17.4712 m 505.99424,0 c -0.91515,12.731 -6.8192,22.6221 3.54663,32.2537 l -3.54663,-32.2537 m -186.79229,5.8231 c 0.91385,0 0.18916,0.6666 -0.39377,0.4522 l 0.39377,-0.4522 m -178.51662,0.8969 c 7.8263,16.2434 14.09921,33.4905 21.79908,49.7236 2.90827,6.1301 5.12852,13.9324 11.30331,16.1269 v 1.3443 l -2.36449,1.3436 5.9112,5.3753 c -2.69193,11.5792 12.74085,29.7368 18.21817,38.9718 12.25967,20.6733 29.4706,42.196 48.34134,55.3252 17.49461,12.1737 39.19679,15.9593 56.39235,27.9981 l -2.36447,4.0316 c 16.96021,7.9103 22.28381,20.9172 35.46689,33.5971 -1.00844,7.2048 1.82298,14.7077 -4.7289,18.8149 -8.1314,-18.2663 -10.41546,-35.9821 -28.37352,-45.693 11.42859,12.7244 20.72804,24.3449 23.64456,43.0049 -9.21901,-2.8199 -8.87148,-13.0276 -12.79286,-21.4822 -3.65903,-7.8904 -10.01115,-14.0992 -16.76286,-18.4197 -31.22858,-19.9782 -66.6612,-36.6763 -92.1075,-66.3179 -18.88136,-21.9948 -31.83746,-52.1341 -43.94702,-79.2378 -7.99303,-17.8868 -29.19399,-43.6538 -19.99975,-64.5067 h 2.36447 m 485.89628,0 1.1822,1.3436 -1.1822,-1.3436 m 190.33913,1.3436 -11.8225,17.4712 c 4.6369,-3.0985 11.9454,-11.1746 11.8225,-17.4712 m -777.11865,3.5839 -0.39517,0.8954 0.39517,-0.8954 m 587.96172,-0.8959 3.5466,9.407 h 2.3646 l 1.18223,-1.3438 v -2.6878 l -7.09343,-5.3754 m -590.32614,7.6159 -0.39518,0.895 0.39518,-0.895 m 297.13324,-0.8963 v 4.0318 l -2.36441,-1.3444 v -1.3438 l 2.36441,-1.3436 m 301.46863,1.3436 15.369,12.0952 -15.369,-12.0952 m -3.15314,3.5842 0.3951,0.8951 -0.3951,-0.8951 m -430.72517,9.8547 c -4.85777,13.4616 -5.15218,26.6416 10.64006,28.2218 -3.14475,6.8403 -8.89981,8.702 -15.36897,8.0632 l 7.09338,6.7197 v -5.3753 h 1.18222 c 0.84407,6.019 3.3433,7.6294 8.27557,9.407 -3.06669,10.9961 -3.12346,17.3538 8.27566,17.4704 v 6.7198 l 4.72889,-8.0634 c -10.19078,-5.1728 -13.58618,-14.7268 -1.1822,-21.5021 v -1.3443 h -4.72896 c 3.92503,-8.3587 1.29928,-15.4681 0,-24.1902 l -9.4578,6.7198 5.91111,-24.1901 -10.64007,25.5336 h -1.1822 c -4.5256,-11.2226 0.0698,-16.4258 3.54668,-26.8772 -5.27862,-3.7769 -15.48961,-3.0809 -7.09337,2.6873 m 132.40967,-6.7189 c 0.0628,4.1363 -0.35117,7.5069 3.54669,8.0632 1.92115,5.7803 5.45603,8.0506 10.64006,9.407 l 1.18228,-6.7197 c -7.28257,-0.1191 -10.75716,-5.0094 -15.36903,-10.7505 m -200.97897,1.3436 c 3.81269,18.2473 15.57703,37.8906 24.27472,53.7553 5.03629,9.1856 12.49495,17.0409 13.55657,28.2218 -10.46271,-3.3754 -23.97915,-4.0101 -30.72729,-15.1711 -4.8968,-8.1001 -1.44939,-27.0845 -10.65068,-30.5208 l 1.18221,-36.2852 h 2.36447 m 334.57089,1.3434 -10.64009,29.5663 h -1.18221 c -3.13408,-12.0815 3.38591,-20.3735 9.45778,-29.5663 h 2.36452 m 166.69442,0 c 1.5168,7.4485 3.451,15.9816 9.4579,20.1585 l -9.4579,-20.1585 m 18.9158,4.0319 3.5466,2.688 -3.5466,-2.688 m 192.7034,4.0316 2.3645,5.3761 h 1.1822 c 7.5202,-4.9428 20.1026,-0.973 28.3736,-0.246 18.8386,1.6493 38.915,0.246 57.929,0.246 v -9.4077 c -29.4125,0.1817 -61.0169,-3.7922 -89.8493,4.0316 m -425.60275,-2.6873 c 3.69331,7.5442 -4.15318,11.607 -7.26127,17.476 -2.30062,4.3435 -2.5678,9.8855 -3.37879,14.7775 -19.00557,-12.4261 3.53601,-22.5074 10.64006,-32.2535 m 88.66717,0 c 1.41754,9.2365 -1.83844,13.495 -7.09336,20.1585 l 3.54674,1.3436 c 5.11194,-7.4317 10.91195,-13.1031 3.54663,-21.5021 m -444.51828,1.3437 -1.1822,5.3753 15.36895,1.3444 c -5.35431,19.0363 -2.17409,22.9442 14.18677,28.2217 l -7.09339,13.4388 c 15.45651,-7.0284 5.97143,-20.718 1.18227,-33.5969 h -1.18227 l 1.18227,12.0948 c -13.2836,-1.703 -3.19794,-14.329 -1.18227,-22.8464 l -21.28013,-4.0317 m 800.36945,0 v 2.6879 h -2.3645 v -2.6879 h 2.3645 m -874.84993,1.3436 10.64008,10.015 30.738,18.2068 c -6.34271,-11.2404 -30.06803,-24.987 -41.37808,-28.2218 m 375.94899,0 c 0.37002,12.9888 -10.27826,5.0935 -16.55116,4.0317 v 4.0317 h 4.72889 l 3.65071,20.1529 -13.10858,16.1321 h 8.27566 l -2.36447,1.3446 v -1.3446 l 9.45785,-13.4386 9.45779,2.688 1.18228,-1.3444 -11.82235,-16.1267 c 4.14727,2.5936 9.30651,6.1484 13.00457,1.3445 l -14.18678,-4.0315 v -2.6885 c 5.6558,-1.5362 15.60663,-2.4958 8.27559,-10.7512 m 468.16314,4.0317 -1.1823,1.3444 1.1823,-1.3444 m -533.18572,2.688 v 1.3437 l 3.54669,4.0316 h 1.1822 l -4.72889,-5.3753 m 164.32979,2.688 v 4.032 h 1.18231 l 1.18221,-4.032 h -2.36452 m -138.32078,1.3435 -1.18219,1.3438 1.18219,-1.3438 m -20.09785,1.3438 2.36441,2.6881 -2.36441,-2.6881 m 336.93546,2.6881 v 2.6881 h 2.3644 l -2.3644,-2.6881 m 171.8171,2.2405 0.3951,0.8943 -0.3951,-0.8943 m -596.23755,0.4443 c 1.01785,9.1611 -3.302,33.2385 -13.00456,16.1268 7.17619,-2.3175 8.54752,-8.7063 10.64007,-16.1268 h 2.36449 m 617.12395,0 5.9111,5.3754 -2.3645,5.3752 1.1822,5.3762 -9.4577,-6.7197 4.7289,9.407 -8.2756,-5.3754 c 4.6214,17.476 17.4662,4.8309 17.7334,-8.0633 l -9.4578,-5.3754 m -405.50486,1.3435 -2.36447,4.0319 2.36447,-4.0319 m 386.58906,2.6885 2.3647,6.7186 5.9109,-1.3435 -1.1821,-5.3751 h -7.0935 m 12.2161,2.2396 0.3951,0.895 -0.3951,-0.895 m 5.5174,-0.8962 3.5467,4.0317 -3.5467,-4.0317 m -413.78041,2.6881 1.1822,4.0316 h -2.36443 l 4.72892,4.0317 1.1822,-9.4078 -4.72889,1.3445 m -380.67794,0 c -0.22342,8.5657 -4.49363,15.4315 -3.8044,24.1948 1.42929,18.1967 8.98257,45.928 17.00284,61.7348 2.10432,4.1484 6.34737,4.8191 8.63853,8.5632 8.68111,14.1904 14.00942,30.1178 23.72141,43.9279 7.04731,10.0213 12.62621,26.4975 23.01096,32.2538 -5.22075,-13.3183 -15.38083,-24.2927 -22.5806,-36.2854 -8.16451,-13.6013 -13.42065,-29.2862 -21.41369,-42.8262 -2.52764,-4.2803 -7.23998,-5.1928 -9.45548,-9.7643 -10.39061,-21.4449 -12.05518,-46.3064 -16.30179,-69.7036 l 8.2756,16.1268 c -0.0629,13.7567 12.07763,34.3026 18.71947,45.6919 16.83964,28.8791 32.81041,58.2817 51.21654,85.9893 6.30241,9.4881 18.21698,16.5825 21.09567,28.2416 l -5.91111,1.3442 v 1.3438 c 19.29868,0 40.0255,3.5993 57.92923,12.0952 v 1.3436 c -6.62638,-1.95 -17.99,-8.0213 -23.64462,-2.6874 11.65918,1.0842 27.03408,4.404 36.64917,12.095 1.75324,-9.1092 28.11456,8.2149 33.10242,11.0492 24.62224,13.9958 53.68385,18.133 79.20933,29.7527 11.55043,5.2588 24.11987,6.0715 28.37351,21.0171 l -16.55116,-9.407 10.64006,12.0951 -10.64006,-5.3762 c 5.66877,5.6302 15.36898,11.9919 14.18675,21.5028 l -17.73344,-12.6973 -28.37351,-8.8055 c 3.16836,6.8849 17.21324,14.527 23.64455,10.7516 8.1893,2.3276 15.26613,7.2378 18.91571,16.1266 l -9.45785,-1.3437 3.54669,4.0319 v 2.6871 c -4.83419,0.7779 -6.92081,-1.7117 -10.64006,-5.115 -6.90068,-6.3117 -26.76927,-12.4442 -27.19132,-23.1068 l -34.28461,-22.8456 -1.18226,4.0318 26.00909,17.4702 c -15.52864,1.035 -31.37522,-14.2815 -43.76026,-23.1003 -8.24487,-5.8714 -17.40951,-9.8935 -25.99011,-15.1039 -6.44911,-3.9165 -14.38182,-11.4847 -16.55243,-19.5828 l 7.09338,-2.6882 -22.46233,-4.0317 v 1.3437 l 11.82226,4.0316 v 1.3446 h -5.9111 c 6.12273,8.017 13.83796,13.5543 18.80568,22.8456 4.9725,9.3029 5.97023,20.6306 10.92024,29.5454 3.36469,6.0627 9.55716,9.4254 12.82368,15.3069 10.16479,18.3031 0.28134,35.1566 -14.1761,42.501 l -1.18226,-5.3754 c 10.78192,-5.5307 14.04131,-26.3232 2.2108,-33.9881 -8.59959,-5.5724 -17.4497,-7.9819 -25.74894,-14.8746 -8.53808,-7.0895 -14.26363,-17.6496 -24.93323,-21.2884 -9.28764,-3.1683 -21.10518,-1.0754 -30.73797,-1.0754 v 4.0317 c 22.70471,0 35.06962,1.0428 51.62205,20.4838 2.51101,2.9483 6.81787,5.5475 8.30161,9.3625 2.4188,6.2238 -0.56413,15.9949 -0.81219,22.5657 -4.13544,2.591 -4.58115,5.5393 -4.72896,10.7512 h -2.36441 v -5.376 h -7.09337 c 2.55947,-6.5792 9.29819,-15.9681 5.7728,-23.7529 -2.64822,-5.8491 -9.97332,-10.1466 -13.80018,-15.2194 -4.27495,-5.6661 -6.28588,-12.1786 -13.2575,-13.931 -23.45311,-5.8934 -46.62953,0.7223 -69.74683,4.1348 -8.9861,1.3264 -18.1744,-0.2221 -27.1913,0.389 l 1.18221,-20.1584 c -8.30748,5.7563 -5.53046,21.3386 -7.09337,30.9098 -24.50406,-2.4324 -39.12464,-19.1814 -65.02261,-9.407 l 7.09339,-12.0951 -10.64008,-1.3443 v 1.3443 l 5.91118,1.3437 v 2.6882 c -8.79802,4.5419 -10.02791,-6.4929 -3.14439,-10.6309 5.00557,-3.0087 11.08236,0.1974 16.14889,1.3539 5.95256,1.3596 11.78685,0.1661 17.73342,2.2532 6.60991,2.3158 11.99138,7.139 18.91573,8.3672 v -1.3434 l -8.27565,-6.7199 11.82234,-6.7197 -17.73344,5.3761 3.54669,-5.3761 -3.54669,2.688 h -1.18227 c -9.34435,-9.5561 -21.64095,-16.0972 -34.28462,-13.4386 l 2.36441,-5.3761 -13.00447,-1.3436 v -2.6881 h 13.00447 l -9.45779,-5.3753 31.92021,4.0315 4.72887,16.1271 h 1.18221 l 2.36448,-4.0319 5.91119,6.7198 4.72888,-26.8781 -8.27557,22.8464 c -12.22193,-19.3441 -15.20349,-43.1677 -29.10513,-61.7943 -7.71781,-10.3395 -21.016,-1.4159 -25.27747,-16.1521 l 14.18675,2.688 c -2.93566,-10.5656 -19.77028,-3.5181 -21.37314,-14.8379 -0.71052,-5.0181 9.12952,-6.4547 11.91535,-7.6197 5.96968,-2.4943 10.51139,-9.0792 16.55116,-10.707 5.97804,-1.611 12.90804,1.7119 18.91573,2.2548 l 1.18219,13.4393 c 0.28974,-13.5989 8.79935,-15.8314 18.91566,-18.8146 1.68237,11.4919 -1.75087,23.4898 -13.00449,24.19 l 1.1822,4.0319 c 7.05793,-1.3438 8.914,5.2522 13.00457,10.7512 l -4.72897,-14.7831 15.36903,16.1267 -10.64006,-21.5021 c 13.86043,12.0858 22.40795,29.068 39.05964,38.021 7.13478,3.8372 14.91977,3.0834 22.434,4.8428 6.52471,1.5277 17.92264,6.003 23.62687,1.4849 l 9.45785,-2.688 c -36.79577,0 -92.24468,-12.5451 -92.21395,-64.5071 l -15.36898,5.3754 v -16.1266 l -8.27556,2.6878 -0.24367,-29.5654 9.13628,-34.9414 3.11159,-33.5447 11.64025,-16.1792 m 264.81942,1.3436 -5.91116,4.0316 3.54669,-1.3436 v -1.3443 h -2.36449 l 4.72896,-1.3437 m -320.38421,5.3754 1.1822,4.0316 3.54669,-2.6871 -4.72889,-1.3445 m 5.91116,2.688 1.18222,1.3436 -1.18222,-1.3436 m 85.12052,0 4.72892,13.4387 -4.72892,-13.4387 m 383.04237,0 2.36442,16.1267 h 1.18221 l 1.18221,-4.0316 c 8.64688,5.0722 2.6896,16.2641 0,24.1902 h 1.18231 l 5.91104,-17.4705 c 12.04104,5.5014 0.421,25.2607 -9.45777,25.5338 l -9.3196,-22.8464 6.95518,-21.5022 m -465.79847,1.3436 v 1.3446 l 4.72896,1.3435 v -1.3435 l -4.72896,-1.3446 m 338.11767,0 -3.5467,10.7515 3.5467,-10.7515 m -330.23607,4.4793 0.78811,0.4524 -0.78811,-0.4524 m 225.01761,0.8969 c -5.25851,10.834 -0.49428,15.8846 9.45788,16.1266 -2.45901,-4.1887 -5.32835,-3.2284 -9.45788,-2.688 v -13.4386 m 109.94735,2.6874 1.18227,5.376 -4.72896,-1.3445 v -2.6873 l 1.18226,-1.3442 h 2.36443 m -352.30435,6.7195 v 6.7197 l 34.2846,13.4389 c -5.03748,-11.1729 -24.33271,-16.0475 -34.2846,-20.1586 m 477.62068,2.6881 -2.36442,9.4069 2.36442,-9.4069 m -366.49113,5.3752 -1.18221,1.3438 1.18221,-1.3438 m 138.32084,0 -4.72888,16.1269 c 4.2359,-3.9968 6.67369,-9.961 4.72888,-16.1269 m 29.55579,1.3438 2.3644,2.6879 v -2.6879 h -2.3644 m -126.49858,5.3762 c 0.27159,5.934 1.20113,10.3894 5.91117,13.4386 l -1.18227,4.0316 c 22.08881,1.8206 19.21242,31.6932 -3.54669,25.5339 4.02311,9.3108 10.11993,8.0758 17.73344,5.3758 v 8.0636 l 4.72896,-1.3446 c 2.76048,3.1461 5.68294,0.08 6.03168,-4.057 0.67373,-7.995 -3.12108,-13.2991 -0.12083,-21.4766 l -8.27559,-10.7514 -3.54669,1.3442 -17.73344,-20.1581 m 82.75605,0 -4.7289,14.7821 17.73345,4.0318 -1.18222,-4.0318 9.45778,-5.3752 c -8.70948,1.4572 -14.63476,5.1699 -22.46233,-1.3438 v -1.3442 l 1.18222,-6.7189 m 43.74254,0 c 0.52012,18.2305 36.55923,32.4113 9.45311,45.0969 -3.16842,1.4823 -6.06602,1.8458 -9.45311,1.9388 v 1.3442 c 15.10175,4.0889 14.84524,7.4318 10.64006,24.1902 18.76546,-3.153 14.22691,-14.7036 13.2551,-30.9098 -0.43005,-7.1854 0.9056,-14.8449 -3.47575,-21.0419 -6.2079,-8.779 -15.56282,-7.6044 -18.05503,-20.6184 h -2.36438 m -307.3797,8.0631 23.64454,-2.6878 c -6.03284,-5.2222 -19.12642,-4.8088 -23.64454,2.6878 m 26.00903,-5.3761 c 3.72179,5.9898 27.35336,12.0349 34.28467,13.4396 -8.24283,-10.9317 -22.40996,-12.3736 -34.28467,-13.4396 m 677.41757,1.3446 c 2.3479,7.8667 7.2152,23.7701 0,29.5655 l -4.7289,-26.8782 4.7289,-2.6873 m -715.24894,5.3753 7.09345,-1.3438 -7.09345,1.3438 m 196.25014,-2.688 -1.1822,1.3442 1.1822,-1.3442 m -13.00453,2.688 2.36445,14.7833 11.82229,16.1265 -11.82229,-30.9098 h -2.36445 m 127.68076,2.6881 2.36449,5.3752 -2.36449,-5.3752 m 292.40435,0.8958 0.39522,0.8954 -0.39522,-0.8954 m -377.52485,1.7913 -1.18223,38.9732 5.91119,-2.688 -3.54669,-29.5654 h 2.36442 c 3.27124,11.7752 5.44178,15.9293 2.36447,28.2218 11.29264,-8.0126 1.79701,-25.9281 -3.54669,-34.9416 h -2.36447 m 312.10857,0 1.18221,1.3445 -1.18221,-1.3445 m -556.83008,12.095 c 19.83924,-5.3688 43.70421,-3.4021 63.8404,-1.1142 7.85039,0.8914 16.05349,7.2308 23.6446,5.1459 -14.62493,-14.3013 -49.05176,-14.4828 -67.38707,-11.302 -6.96324,1.2069 -16.12313,-0.492 -20.09793,7.2703 m 435.06046,-5.3752 4.72889,-4.0317 -4.72889,4.0317 m 130.04519,-4.0317 -1.18221,4.0317 h 1.18221 v -4.0317 m -235.26364,4.0317 13.00454,12.0952 c -2.13512,-5.412 -7.00115,-15.3652 -13.00454,-12.0952 m -299.89226,7.6159 0.39448,0.895 -0.39448,-0.895 m 5.12308,-0.4524 0.78811,0.4524 -0.78811,-0.4524 m 200.97937,1.7927 -0.39515,0.8953 0.39515,-0.8953 M 280.8225,1423.579 c 32.78831,-17.8299 58.58725,-22.6696 94.57831,-17.4712 -4.98315,-7.6922 -17.22754,-6.719 -24.82683,-6.719 -19.65311,0 -59.53581,0.5634 -69.75148,24.1902 m 247.08599,-18.8148 1.1822,9.407 -4.72888,-8.0634 1.18219,-1.3436 h 2.36449 m 393.68241,2.6879 c 1.91159,8.2151 3.73573,15.0942 -2.36452,21.5021 v -21.5021 h 2.36452 m -269.54832,1.3438 c 0,9.5291 1.23421,17.7702 -7.09337,22.8464 l 2.36441,-22.8464 h 4.72896 m -386.98316,7.1662 0.78817,0.4526 -0.78817,-0.4526 m 355.06296,0.8969 -5.91117,16.1269 -4.72888,-2.6881 c 2.85508,-6.4182 3.61285,-12.8015 10.64005,-13.4388 m 613.57722,14.7833 2.364,36.2851 -28.3731,-28.2218 c -0.027,12.8245 -1.9318,24.8092 0.4432,37.6288 0.8489,4.5768 4.7633,11.0847 2.1718,15.603 -2.6316,4.5879 -9.1244,5.7047 -13.255,7.6904 -13.2174,6.3585 -26.7753,9.191 -40.1959,14.4713 -22.2235,8.7448 -42.2458,16.756 -66.2048,17.8821 -15.2544,0.7141 -32.2938,-3.0723 -47.2892,-0.104 -9.245,1.8285 -16.2367,8.8531 -24.8268,12.1983 -11.911,4.638 -24.70043,6.1539 -36.64923,10.2054 6.4609,12.7068 11.8896,18.8576 24.82693,16.1267 -5.235,9.0397 -7.25193,19.8361 -13.55793,28.1647 -4.21,5.561 -12.50097,7.3466 -15.48603,13.6752 -3.83038,8.1195 0.83229,25.7526 -9.96977,25.355 0,17.1911 5.05768,28.5417 21.2802,17.4705 -4.5563,-13.4443 -6.0141,-31.0949 9.4579,-34.9407 l -7.0934,21.5019 c 5.5469,-4.1658 6.2918,-12.8243 10.27113,-18.6694 5.9089,-8.6801 22.0002,-12.5372 31.1069,-10.8957 -10.6506,10.7908 -26.4205,7.1567 -31.9202,24.1898 l 4.729,6.7189 h -4.729 l 1.1822,6.72 -10.64003,-5.3754 c 3.0596,21.3703 29.36423,0 13.00443,-9.4078 7.3736,-10.9516 14.7733,-8.3483 24.9321,-12.307 6.7056,-2.6142 11.9535,-10.7014 18.8152,-11.8879 17.9971,-3.1126 37.4057,6.9205 55.6653,6.6037 19.813,-0.3491 37.7936,-8.2292 56.6418,-13.318 0,29.1877 16.5798,13.0952 33.0563,8.6959 5.9844,-1.596 13.1819,3.2904 18.4913,-1.6302 4.315,-3.999 2.6635,-9.8958 1.6528,-15.129 6.7232,-1.926 23.1608,-13.9228 11.4463,-22.8092 -5.0376,-3.8211 -16.2108,-1.381 -22.0865,-1.381 v -1.3443 l 24.8316,-16.0012 22.4113,5.1674 19.1296,-11.5254 5.7431,-12.5815 c -2.074,-6.1246 -4.4849,-12.9163 -4.5958,-19.5887 -0.076,-4.4229 2.3143,-8.1968 0.9752,-12.664 -2.6495,-8.8316 -11.5022,-12.8316 -13.5994,-21.5045 -4.3993,-18.1926 -2.64,-45.2033 -24.1575,-51.0667 m -62.6583,1.3438 1.1823,6.7197 c -19.132,3.7435 -52.3338,20.8474 -66.2048,36.2853 l 1.1822,1.3434 c 21.5887,-12.6085 44.7249,-30.3948 68.5694,-36.2851 l -4.7291,-8.0633 m -290.82854,4.0316 c -2.69191,7.0531 -7.34278,10.9221 -14.18671,10.7516 4.03378,-4.739 8.08051,-11.0214 14.18671,-10.7516 m -491.8074,2.6881 1.1822,12.0952 -17.73345,-2.6883 16.55125,-9.4069 m 852.38774,1.3436 c 7.5269,13.8666 16.1842,28.4344 11.822,45.6923 l -9.4581,-1.3438 c -1.9268,-13.9872 -8.4122,-30.0456 -4.7286,-44.3485 h 2.3647 m -256.54413,1.7912 c 0.9139,0 0.1892,0.6665 -0.3937,0.4524 l 0.3937,-0.4524 m -7.48697,4.481 -0.39522,0.8951 0.39522,-0.8951 m 8.66917,1.7911 -3.5466,-2.688 3.5466,2.688 m 249.45043,57.7872 1.182,1.3446 8.2762,-16.1268 c 12.2241,0 16.2296,5.6712 23.6441,16.1268 v 1.3436 l -1.182,9.4069 -14.1868,-10.7505 -4.7288,9.407 9.4574,-4.0317 1.1828,5.3752 -14.1867,2.6881 c 9.8643,9.5254 12.8602,6.1023 23.6441,2.6879 1.5924,8.6993 -11.1421,13.4738 -2.3641,18.8142 -6.097,11.8618 -23.7313,-0.4446 -31.9202,-4.0319 l -2.3645,6.72 20.098,5.3753 v 2.6878 l -23.6447,-3.9497 -35.4669,24.1083 c -0.1822,-10.4556 -1.9105,-21.2496 -11.8223,-24.1902 10.5194,22.5441 2.3504,31.1932 -2.3644,53.7556 6.0447,-1.5747 20.0683,-8.6372 24.8267,-2.6872 h 1.1823 1.1823 v -2.688 l 5.9111,1.3435 -1.1823,4.0317 -4.7288,-2.6872 -3.5467,2.6872 8.2755,2.6879 v 1.3438 l -41.378,10.7514 -7.0933,-41.6605 -1.1823,22.8457 c -8.7402,-1.7547 -13.2244,3.685 -21.2801,5.9753 -11.5717,3.2896 -25.9003,5.7802 -37.8314,4.0022 -6.3757,-0.9507 -15.3158,1.0738 -17.7334,-7.2894 h -3.5466 v 4.0315 l -31.9203,-3.2933 -20.098,0.603 c -7.0425,10.5633 -27.8628,8.9919 -37.81003,16.1338 -12.9679,9.3136 -4.5812,21.4385 -7.1205,33.3852 -1.2438,5.8501 -5.35085,2.1461 -4.72311,-2.4824 l -7.09336,5.3754 1.18221,-12.0952 h 4.72894 c -2.92014,-21.2345 10.61042,-29.3909 20.78592,-43.2327 6.99303,-9.5125 7.92683,-23.4179 15.30643,-33.2294 6.0034,-7.9824 15.9423,-9.8145 21.837,-17.6102 -13.8297,2.7937 -39.13193,33.3954 -46.10703,6.7198 9.0038,-1.9285 18.66033,-2.993 27.19133,-6.9858 8.9968,-4.2116 21.0767,-13.8331 30.7379,-14.6083 31.5537,-2.5318 61.8449,16.2702 93.3963,2.7793 l -43.7426,1.3436 v -2.6874 l 42.5603,-2.6878 -3.5467,-1.3438 c 5.2195,-6.2332 16.2614,-7.3309 23.6445,-8.0632 v -1.3446 l -7.0932,1.3446 c 3.8008,-4.531 9.525,-6.7628 14.1867,-2.6884 h 1.1821 l 5.9111,-2.6879 v -2.6872 l 3.5468,2.6872 c 6.2776,-11.2641 28.5261,-16.7798 39.0136,-22.8455 l -16.5512,14.7822 8.2756,1.3444 c -0.2045,-14.5815 14.1642,-4.295 20.0979,-4.0318 -9.9946,-12.1426 -14.928,-28.0272 -16.6092,-44.3485 -0.3288,-3.1808 -3.0075,-14.0132 1.5688,-14.8894 4.4782,-0.8571 9.6696,10.234 11.9618,13.5451 9.4604,13.6665 20.1431,27.3885 10.1718,44.3486 m -245.90363,-57.7874 -1.1822,1.3438 1.1822,-1.3438 m -595.84372,18.8151 5.91119,-12.0954 c -5.63213,1.9081 -11.28442,5.8563 -5.91119,12.0954 m 384.22463,-10.7516 1.1822,1.3436 -1.1822,-1.3436 m 28.3735,1.3436 c -0.4182,7.0959 -2.76523,11.3753 -8.27557,14.7831 l 3.54668,-14.7831 h 4.72889 m -440.97163,22.8466 c 1.94654,-0.6986 4.0648,-1.2423 5.76518,-2.605 18.8406,-15.0973 -22.95524,-26.8129 -10.67197,-4.3482 1.35954,2.4858 3.27888,4.6944 4.90679,6.9532 m 334.57097,-5.3754 -1.18218,1.3436 -28.37351,-17.4704 c 10.1695,0.1041 25.77018,4.0572 29.55569,16.1268 m -368.85559,-14.7832 1.18222,1.3437 -1.18222,-1.3437 m 885.48997,0 c 0.947,6.4761 7.3073,20.9591 13.0045,22.8465 -3.2062,-8.8832 -5.9584,-17.0687 -13.0045,-22.8465 m -848.84086,2.688 c 4.84856,3.7588 4.54296,7.2246 3.54668,13.4388 h -1.18221 l -1.18229,-4.0317 h -1.18218 v 5.3754 l -4.7289,-2.6873 v -2.6881 h 4.7289 v -9.4071 m 301.46851,0 2.36447,4.032 -2.36447,-4.032 m -14.18675,1.3436 11.82235,9.407 -11.82235,-9.407 m 104.03623,1.3438 v 1.3446 c -4.82238,3.5665 -8.46122,5.798 -14.18675,4.0315 4.21343,-4.4792 8.45528,-6.9635 14.18675,-5.3761 m -83.93832,0 v 2.688 l -2.36447,-2.688 h 2.36447 m 3.54669,1.3446 c 8.86433,6.5457 19.4536,12.152 20.09794,25.5334 -4.60247,-1.6101 -21.06735,-20.7258 -20.09794,-25.5334 m 106.40064,1.3434 c -2.35261,7.8602 -7.01536,12.1435 -14.18674,13.4388 3.06195,-7.5912 7.21513,-11.2762 14.18674,-13.4388 m 316.44396,4.4793 0.7873,0.4526 -0.7873,-0.4526 m 72.5095,-0.4443 c -2.7769,10.6379 -15.5604,9.9234 -22.4623,16.4289 -20.4466,19.2728 -51.2058,19.9244 -76.8449,25.8354 -8.4399,1.9461 -19.7834,7.9935 -28.3735,6.4762 -13.131,-2.3175 -18.6519,-24.6632 -14.1867,-36.6457 8.4943,3.7136 15.5191,11.5976 24.8268,13.3395 30.2568,5.6596 69.1474,-8.8681 98.1251,-18.0283 6.5389,-2.0664 12.1237,-6.2489 18.9155,-7.406 m -518.9987,2.6879 c 13.72448,8.345 24.08675,20.5751 24.82681,38.9724 -11.25717,-3.3419 -12.16752,-14.7377 -18.34225,-24.1902 -2.9355,-4.4925 -7.6845,-8.849 -6.48456,-14.7822 m -268.36613,4.0317 2.36449,9.4069 h 1.1822 l -3.54669,-9.4069 m 644.31523,1.3435 c -5.8568,13.1714 -4.6391,21.2688 0,34.9418 -13.52,2.7738 -26.4394,15.5361 -39.01363,21.952 -10.97238,5.5991 -26.6476,8.1965 -36.40093,15.5934 -6.23039,4.7251 -5.84613,17.2662 -12.39566,20.779 -9.102,4.8824 -22.84194,5.2427 -32.77738,7.5317 -26.35299,6.0688 -58.24371,14.7853 -85.12049,10.7456 l 14.93394,-52.4117 11.45933,-21.4639 18.5315,-0.5954 48.47139,-2.3569 57.92927,-10.6435 22.46243,-3.6684 31.92023,-20.4012 m -653.37897,2.2404 0.39447,0.8952 -0.39447,-0.8952 m 17.33939,0.4445 7.09339,13.4386 -7.09339,-13.4386 m -24.82681,1.3436 c 1.20524,9.1348 10.4556,22.0671 16.55116,28.2219 -0.15222,-11.2405 -10.22932,-20.4822 -16.55116,-28.2219 m 35.46688,2.6881 14.18676,18.8139 h 1.18222 l -15.36898,-18.8139 m -14.18675,4.0317 8.2756,13.4386 h 1.18219 l -9.45779,-13.4386 m -8.27565,1.3436 1.18227,1.3436 -1.18227,-1.3436 m 1.18227,2.688 3.54669,8.0636 h 1.18221 l -4.7289,-8.0636 m 37.83131,2.6874 8.27564,12.0948 -8.27564,-12.0948 m 258.90832,1.3442 1.18219,1.3436 -1.18219,-1.3436 m -269.5484,6.719 2.36449,4.0316 -2.36449,-4.0316 m -10.64006,1.3446 2.3645,8.0632 h 1.18219 l -3.54669,-8.0632 m 639.97997,2.2396 0.3951,0.8951 -0.3951,-0.8951 m -645.89108,0.4443 1.18223,1.3447 -1.18223,-1.3447 m 50.83586,0 4.72896,2.6881 v -1.3434 l -4.72896,-1.3447 m 744.80472,2.6881 v 1.3436 l 8.2755,-2.687 -8.2755,1.3434 m -39.0137,21.5021 v 1.3443 c 23.0239,-1.1262 45.7442,-13.2695 66.205,-24.1898 l -20.0979,7.5251 -46.1071,15.3204 m -736.52901,-21.5021 4.72896,8.0635 -4.72896,-8.0635 m 37.83137,2.6882 14.18675,2.687 -1.18222,2.6883 c 9.95321,3.0698 30.39751,6.4141 40.1958,4.0317 v -1.3438 l -8.27561,-1.3443 3.54671,-5.3753 h -15.36896 v 1.3434 l 3.54669,1.3445 v 1.3438 h -10.64008 c -1.91996,-6.5769 -21.91971,-10.6681 -26.00908,-5.3753 m 102.85395,-2.6882 c 7.5793,13.6745 37.36556,9.6118 49.65366,10.7514 -1.99797,-6.8419 -7.43032,-4.8722 -12.78702,-4.9245 -12.4666,-0.1191 -24.57737,-4.0237 -36.86664,-5.8269 m 644.31519,0 1.1823,1.3436 -1.1823,-1.3436 m -14.5804,1.7913 0.7873,0.4523 -0.7873,-0.4523 m -740.86433,0.8969 v 1.3436 l 14.18675,2.6879 -14.18675,-4.0315 m 189.1567,0 1.18227,1.3436 -1.18227,-1.3436 m 546.19023,0 1.1821,1.3436 -1.1821,-1.3436 m 11.8221,1.3436 v 1.3434 l 4.729,-1.3434 h -4.729 m -2.3644,13.4386 v 1.3443 l 30.738,-14.7829 c -7.9528,-2.4793 -22.9022,9.9824 -30.738,13.4386 m -802.73393,-13.4386 3.54669,13.4386 3.54669,-1.3436 -7.09338,-12.095 m 9.45788,0 5.91116,12.095 -5.91116,-12.095 m 9.45784,0 5.9111,9.4069 -5.9111,-9.4069 m 96.94281,0 v 1.3434 l 26.00909,2.6883 c -6.18785,-5.3286 -18.36599,-3.9215 -26.00909,-4.0317 m 686.8754,0 -2.3645,1.3434 v 1.3445 l 2.3645,-2.6879 m -715.24892,1.3434 -1.18221,1.3445 1.18221,-1.3445 m -42.56025,1.3445 c 1.42816,7.5794 4.87549,20.2965 11.82226,22.8457 l -7.09337,-21.5019 -4.72889,-1.3438 m 63.84038,0 -1.18221,2.6874 h -1.18219 l -1.18229,-2.6874 h 3.54669 m 770.81379,0 -1.1826,1.3438 1.1826,-1.3438 m -844.11203,1.3438 c 1.04862,7.9624 3.2547,17.6671 10.64005,20.1583 l -8.27557,-20.1583 h -2.36448 m 753.08023,0 1.1824,1.3436 -1.1824,-1.3436 m 82.7557,4.0317 h -7.0933 v -4.0317 l 7.0933,4.0317 m -819.28469,-2.6881 11.82233,21.5028 1.1822,-1.3445 -13.00453,-20.1583 m 732.98229,0 1.1823,1.3443 -1.1823,-1.3443 m -659.68405,5.3761 33.10241,4.0315 c -3.96874,-5.9267 -29.0261,-10.3965 -33.10241,-4.0315 m 695.15095,2.6872 v 1.3443 l 16.5512,-5.376 c -5.4038,-3.7436 -11.4025,1.2483 -16.5512,4.0317 m -47.2892,-4.0317 v 1.3445 h 3.5467 l -3.5467,-1.3445 m -698.69758,1.3445 c 3.00635,7.3102 6.44784,15.1711 13.00446,18.8138 -2.59145,-6.6522 -6.64291,-16.552 -13.00446,-18.8138 m 679.78208,4.0315 v 1.3436 l 16.5511,-4.0315 -16.5511,2.6879 m -670.3243,-2.6879 c 2.71914,7.3482 7.1738,16.4695 14.18676,18.8147 L 469.9792,1529.744 m 9.45784,1.3436 11.82228,18.8149 c -1.55105,-7.0049 -5.51035,-16.3878 -11.82228,-18.8149 m 7.09339,0 4.72889,6.7197 -4.72889,-6.7197 m 543.82567,0 v 4.0317 h 1.1822 l -1.1822,-4.0317 m -575.74587,1.3443 7.09339,13.4388 -7.09339,-13.4388 m 41.37805,0 13.00449,17.4706 -8.27558,-17.4706 h -4.72891 m 689.23972,0 1.1823,1.3436 -1.1823,-1.3436 m 16.5514,0 v 1.3436 h 3.5467 l -3.5467,-1.3436 m 18.9156,0 -26.0091,13.4388 v 1.3435 c 5.8556,-0.2935 27.7705,-6.083 26.0091,-14.7823 m -715.24891,1.3436 11.82233,18.8149 c 1.49785,-7.2816 -5.54945,-17.5932 -11.82233,-18.8149 m 11.82233,0 8.27558,24.1902 5.91117,-1.3436 -11.82232,-22.8466 h -2.36443 m 660.86638,0 v 2.6881 h 3.5467 v -2.6881 h -3.5467 m -4.7291,8.0635 v 1.3436 l 26.0092,-6.719 -26.0092,5.3754 m -641.95053,-4.0317 c 2.33369,8.3268 7.19978,20.0347 15.36897,21.5022 l -15.36897,-21.5022 m 11.82228,0 7.08982,13.4388 20.10148,26.8781 c -4.07165,-14.4982 -17.5337,-30.0559 -27.1913,-40.3169 m 575.74585,8.0634 c 3.8338,6.0904 8.9151,1.4873 14.1867,0.5636 10.6272,-1.8669 20.0093,-4.6652 30.7378,-7.2818 -11.1577,-4.5475 -32.7191,5.623 -44.9245,6.7199 m -626.58169,-6.7199 c 0.50337,6.2918 1.8655,9.5958 7.09336,12.0952 l -7.09336,-12.0952 m 555.64789,1.3445 v 1.3436 c 10.9191,2.3126 24.5655,7.6856 35.4669,4.0318 -10.4959,-5.3556 -24.1269,-5.3754 -35.4669,-5.3754 m 172.9992,2.2397 0.3951,0.895 -0.3951,-0.895 m -638.7977,1.7919 9.45788,4.0317 -9.45788,-4.0317 m 586.3859,-1.3445 1.1823,1.3445 -1.1823,-1.3445 m -83.9383,2.6883 1.1822,1.3436 -1.1822,-1.3436 m -47.2892,1.3436 v 2.6881 l 34.2847,4.0315 v -2.6879 l -34.2847,-4.0317 m 57.9293,0 v 2.6881 l 13.0045,-1.3438 -13.0045,-1.3443 m 17.7335,0 v 1.3443 h 4.7289 l -4.7289,-1.3443 m -517.81663,1.3443 v 1.3438 l 5.91111,2.6879 v -1.3443 l -5.91111,-2.6874 m 613.57723,1.3438 1.1821,1.3436 -1.1821,-1.3436 m -631.31067,1.3436 v 1.3443 l 37.83129,21.5021 c -8.35833,-12.137 -24.67544,-20.3036 -37.83129,-22.8464 m 24.82681,1.3443 v 1.3436 l 18.91564,10.7516 v -1.3446 l -18.91564,-10.7506 m 471.70956,0 2.3645,2.6874 v -2.6874 h -2.3645 m -712.88444,1.3436 v 2.688 h -8.27557 v -2.688 h 8.27557 m 719.97784,0 c 5.1108,8.2222 21.3571,6.6895 28.3735,2.688 v -1.3442 l -28.3735,-1.3438 m -451.61172,6.7197 -1.18221,4.0319 39.01358,18.814 -2.36448,-4.0318 27.19129,9.4076 v -1.3443 l -35.46689,-14.7822 v 2.6872 l -27.19129,-14.7824 m -169.05876,4.0319 2.3644,2.687 v -2.687 h -2.3644 m 167.87655,4.0316 c -0.10617,7.5157 7.43505,8.7769 13.00454,9.407 v -1.3438 l -13.00454,-8.0632 m -234.08145,1.3436 -1.18227,1.3436 1.18227,-1.3436 m 828.74288,5.3753 -1.1822,4.0317 -3.5466,-1.3436 5.911,5.3754 v 2.6878 l -11.8223,-1.3435 1.1824,8.0635 c -11.7975,-4.1984 -17.6531,-1.7581 -29.5558,1.3434 l 4.7289,-5.3754 c -0.778,-15.4013 24.523,-13.4315 34.2846,-13.4393 m -400.77581,20.1583 c -14.5426,-4.7728 -32.38006,-0.7697 -47.2892,-0.081 -13.2575,0.635 -27.07898,-2.0952 -40.19578,-3.979 l 16.55126,-5.189 49.65362,-8.25 20.54947,1.3818 0.73063,16.0887 m -178.51663,-16.1269 c 6.21144,11.5539 19.11078,12.4325 29.55577,14.7832 v -1.3436 l -29.55577,-13.4396 m 565.10584,1.3447 3.5465,4.0315 -3.5465,-4.0315 m -534.36786,5.3753 v 1.3434 l 15.36898,6.7198 v -1.3436 l -15.36898,-6.7196 m 534.36786,6.7196 v 1.3436 l -8.2756,1.3437 c 2.3313,-3.7429 4.4711,-3.7451 8.2756,-2.6873 m -516.63441,37.6288 c -10.91676,1.0331 -16.25215,-8.0492 -24.87298,-13.522 -7.50946,-4.7674 -18.65201,-7.6834 -23.59844,-16.0436 15.90102,2.4367 38.2085,15.4491 48.47142,29.5656 m 377.13131,-25.5338 8.2756,-1.3444 c -3.4143,-1.8104 -5.9786,-2.2443 -8.2756,1.3444 m 52.0181,-2.688 1.1822,1.3436 -1.1822,-1.3436 m 3.153,1.7913 0.7873,0.4524 -0.7873,-0.4524 m -414.56897,1.3437 c 0.91382,0 0.18915,0.6665 -0.39376,0.4522 l 0.39376,-0.4522 m -24.82681,7.6164 1.18221,1.3438 -1.18221,-1.3438 m 5.91117,4.0317 v 1.3436 l 4.72889,2.6881 -4.72889,-4.0317 m -143.04981,17.4702 -2.36441,4.0317 v -4.0317 h 2.36441 m 4.72896,5.3755 -2.3645,6.7197 h -2.36446 l -1.18221,-1.3444 v -2.6872 l 5.91117,-2.6881 m 39.01357,10.7514 1.1822,8.0633 c -4.83181,-1.684 -5.84024,-5.0506 -1.1822,-8.0633 z"
       id="path337" /><rect
       style="fill:#640d0d;fill-opacity:1;stroke:#ffffff;stroke-width:0.264999;stroke-opacity:1"
       id="rect2661"
       width="1564.6599"
       height="7.6950493"
       x="0"
       y="1685.2157" /><text
       xml:space="preserve"
       style="font-style:normal;font-variant:normal;font-weight:normal;font-stretch:normal;font-size:158.75px;line-height:0ex;font-family:'Gentium Book Plus';-inkscape-font-specification:'Gentium Book Plus, Normal';font-variant-ligatures:normal;font-variant-caps:normal;font-variant-numeric:normal;font-variant-east-asian:normal;fill:#ffffff;fill-opacity:1;stroke:#ffffff;stroke-width:0.264999;stroke-opacity:1"
       x="485.58765"
       y="1759.3282"
       id="text4221"><tspan
         sodipodi:role="line"
         id="tspan4219"
         style="font-style:normal;font-variant:normal;font-weight:normal;font-stretch:normal;font-size:52.9167px;font-family:'Gentium Book Plus';-inkscape-font-specification:'Gentium Book Plus, Normal';font-variant-ligatures:normal;font-variant-caps:normal;font-variant-numeric:normal;font-variant-east-asian:normal;fill:#ffffff;fill-opacity:1;stroke-width:0.265"
         x="485.58765"
         y="1759.3282">recognovit et praefatus est</tspan></text><text
       xml:space="preserve"
       style="font-style:normal;font-variant:normal;font-weight:normal;font-stretch:normal;font-size:105.833px;line-height:0ex;font-family:'Gentium Book Plus';-inkscape-font-specification:'Gentium Book Plus, Normal';font-variant-ligatures:normal;font-variant-caps:normal;font-variant-numeric:normal;font-variant-east-asian:normal;fill:#ffffff;fill-opacity:1;stroke:#ffffff;stroke-width:0.264999;stroke-opacity:1"
       x="399.13788"
       y="1940.7021"
       id="text4377"><tspan
         sodipodi:role="line"
         id="tspan4375"
         style="font-style:normal;font-variant:normal;font-weight:normal;font-stretch:normal;font-size:105.833px;font-family:'Gentium Book Plus';-inkscape-font-specification:'Gentium Book Plus, Normal';font-variant-ligatures:normal;font-variant-caps:normal;font-variant-numeric:normal;font-variant-east-asian:normal;stroke-width:0.265"
         x="399.13788"
         y="1940.7021">Lucianus Mueller</tspan></text><text
       xml:space="preserve"
       style="font-style:normal;font-variant:normal;font-weight:normal;font-stretch:normal;font-size:79.375px;line-height:0ex;font-family:'Gentium Book Plus';-inkscape-font-specification:'Gentium Book Plus, Normal';font-variant-ligatures:normal;font-variant-caps:normal;font-variant-numeric:normal;font-variant-east-asian:normal;fill:#ffffff;fill-opacity:1;stroke:#ffffff;stroke-width:0.264999;stroke-opacity:1"
       x="260.17523"
       y="2158.3511"
       id="text4385"><tspan
         sodipodi:role="line"
         id="tspan4383"
         style="stroke-width:0.265"
         x="260.17523"
         y="2158.3511">in aedibus B. G. Teubneri editus</tspan></text><text
       xml:space="preserve"
       style="font-style:normal;font-variant:normal;font-weight:normal;font-stretch:normal;font-size:79.375px;line-height:0ex;font-family:'Gentium Book Plus';-inkscape-font-specification:'Gentium Book Plus, Normal';font-variant-ligatures:normal;font-variant-caps:normal;font-variant-numeric:normal;font-variant-east-asian:normal;fill:#ffffff;fill-opacity:1;stroke:#ffffff;stroke-width:0.264999;stroke-opacity:1"
       x="630.85022"
       y="2241.7832"
       id="text4389"><tspan
         sodipodi:role="line"
         id="tspan4387"
         style="font-style:normal;font-variant:normal;font-weight:normal;font-stretch:normal;font-size:52.9167px;font-family:'Gentium Book Plus';-inkscape-font-specification:'Gentium Book Plus, Normal';font-variant-ligatures:normal;font-variant-caps:normal;font-variant-numeric:normal;font-variant-east-asian:normal;stroke-width:0.265"
         x="630.85022"
         y="2241.7832">MDCCCLXXIII</tspan></text><text
       xml:space="preserve"
       style="font-style:normal;font-variant:normal;font-weight:normal;font-stretch:normal;font-size:52.9167px;line-height:0ex;font-family:'Gentium Book Plus';-inkscape-font-specification:'Gentium Book Plus, Normal';font-variant-ligatures:normal;font-variant-caps:normal;font-variant-numeric:normal;font-variant-east-asian:normal;fill:#ffffff;fill-opacity:1;stroke:#ffffff;stroke-width:0.264999;stroke-opacity:1"
       x="850.3266"
       y="2415.9023"
       id="text4393"><tspan
         sodipodi:role="line"
         id="tspan4391"
         style="stroke-width:0.265"
         x="850.3266"
         y="2415.9023">in aedibus Magni Operis reditus  </tspan></text><text
       xml:space="preserve"
       style="font-style:normal;font-variant:normal;font-weight:normal;font-stretch:normal;font-size:52.9167px;line-height:0ex;font-family:'Gentium Book Plus';-inkscape-font-specification:'Gentium Book Plus, Normal';font-variant-ligatures:normal;font-variant-caps:normal;font-variant-numeric:normal;font-variant-east-asian:normal;fill:#ffffff;fill-opacity:1;stroke:#ffffff;stroke-width:0.264999;stroke-opacity:1"
       x="1356.0066"
       y="2477.5696"
       id="text4397"><tspan
         sodipodi:role="line"
         id="tspan4395"
         style="stroke-width:0.265"
         x="1356.0066"
         y="2477.5696">MMCCIV  </tspan><tspan
         sodipodi:role="line"
         style="stroke-width:0.265"
         x="1356.0066"
         y="2477.5696"
         id="tspan4399" /></text></g></svg>
