<?xml version="1.0" encoding="UTF-8" standalone="no"?>
<!-- Created with Inkscape (http://www.inkscape.org/) -->

<svg
   version="1.1"
   id="svg100"
   width="563.84003"
   height="393.3334"
   viewBox="0 0 563.84003 393.3334"
   sodipodi:docname="l1-f11-151-70-125-stein-Asinus_et_Leo_Venantes.png"
   inkscape:version="1.2.2 (b0a8486541, 2022-12-01)"
   xmlns:inkscape="http://www.inkscape.org/namespaces/inkscape"
   xmlns:sodipodi="http://sodipodi.sourceforge.net/DTD/sodipodi-0.dtd"
   xmlns:xlink="http://www.w3.org/1999/xlink"
   xmlns="http://www.w3.org/2000/svg"
   xmlns:svg="http://www.w3.org/2000/svg">
  <defs
     id="defs104" />
  <sodipodi:namedview
     id="namedview102"
     pagecolor="#ffffff"
     bordercolor="#000000"
     borderopacity="0.25"
     inkscape:showpageshadow="2"
     inkscape:pageopacity="0.0"
     inkscape:pagecheckerboard="0"
     inkscape:deskcolor="#d1d1d1"
     showgrid="false"
     inkscape:zoom="1.6348841"
     inkscape:cx="253.84062"
     inkscape:cy="200.93167"
     inkscape:window-width="1444"
     inkscape:window-height="864"
     inkscape:window-x="0"
     inkscape:window-y="0"
     inkscape:window-maximized="0"
     inkscape:current-layer="g106" />
  <g
     inkscape:groupmode="layer"
     inkscape:label="Image"
     id="g106"
     transform="translate(0,-4.8237095)">

    <path
       style="fill:#636363;stroke:none;stroke-width:0.64"
       d="m 79.360004,5.7600001 v 0.6400001 h 6.400001 C 85.955845,15.90112 84.817925,28.722945 74.240004,32.640001 78.301444,26.190273 77.795204,11.686464 70.330884,7.7298562 65.272963,5.0489089 56.635075,8.3452802 56.320003,14.08 47.812419,11.449792 44.800834,18.129152 44.800002,25.600001 l -10.88,5.76 3.851328,8.985216 -2.597504,7.654784 5.786176,11.52 c 8.756353,2.874305 14.246273,5.879041 23.680001,3.200001 0.82176,13.8688 -8.296832,27.14432 -1.28,40.319998 l -6.4,-1.92 c -5.246336,9.48736 2.113216,8.88128 4.283456,16.6624 1.324992,4.75072 0.196544,11.0656 0.196544,15.9776 h 0.64 l 1.92,-0.64 c 1.31904,-4.53376 2.193281,-14.16896 -0.292352,-18.4256 -1.453376,-2.48896 -6.260096,-3.48928 -6.494784,-6.59328 -0.454848,-6.01408 6.183168,-1.18464 8.067136,0.0589 -0.70016,-5.42144 -2.664512,-11.156478 -2.525952,-16.639998 0.122944,-4.86464 2.732032,-9.7824 3.450753,-14.6112 0.78592,-5.27936 -0.886401,-11.87584 6.1152,-11.6288 0.06592,3.19872 0.95936,6.40768 0.43136,9.6 -0.9472,5.72992 -3.9904,11.36 -4.05184,17.28 -0.144,13.935998 3.45152,28.183038 3.61792,42.239998 0.10688,9.00736 -2.23104,23.35808 2.56256,31.36 v -22.4 c 8.4448,1.93664 9.61856,4.09536 8.96,12.16 h 0.64 c 2.832641,-8.91712 -1.32736,-12.12352 -10.24,-13.44 l 0.64,-3.84 c 6.68352,2.25664 13.219201,4.33856 19.840001,6.83776 2.59328,0.9792 6.785925,2.3552 8.302085,4.85056 1.92768,3.17248 0.61632,9.65824 0.66048,13.27168 0.0294,2.384 1.59488,6.03136 0.56,8.20224 -2.61632,5.488 -10.535685,6.79104 -11.442565,13.55776 L 74.880004,176 l -0.64,2.56 14.720001,7.04 -5.760001,6.4 c -2.61376,-2.6432 -12.00576,-10.38016 -14.72,-5.76 3.59808,0.16704 11.2512,2.63232 12.53312,6.5184 0.94976,2.88192 -2.38784,9.05089 -3.09632,12.04161 -1.8592,7.84896 -1.76192,14.42432 -1.7568,22.4 l -22.400001,-10.24 -0.64,2.56 c 7.004096,3.69152 15.709441,8.29824 23.680001,8.32 0.352,8.19648 -3.13536,8.65152 -6.4,15.36 -6.076801,-3.96928 -12.523201,-10.21504 -19.840001,-11.52 v 2.56 l 19.840001,10.24 -0.64,5.12 -8.320001,-5.12 6.947841,7.70496 -3.747841,23.01504 c -2.363648,1.824 -1.333888,4.98176 -1.28,7.68 -19.203137,-4.96832 -37.240002,3.6768 -53.120002,13.44 v 0.64 l 21.120001,-10.20224 19.840001,-3.86816 12.16,1.2704 v 7.68 c -3.443072,-0.28096 -6.76896,-1.53728 -10.24,-1.55392 -11.702273,-0.0563 -21.038721,5.0464 -30.448386,11.29344 -4.274304,2.83776 -7.837568,4.83456 -10.511616,9.46048 15.608512,-7.6512 27.950209,-23.37472 47.360002,-17.92 v 0.64 l -16.640001,8.8672 -5.810368,2.74496 4.794048,6.49024 3.713088,6.33088 8.125953,1.04064 6.45728,3.96608 c -0.60352,5.1488 4.82176,13.15648 7.040001,17.92 -4.565697,-0.67456 -11.480513,-4.53056 -15.990593,-3.03168 -4.190592,1.39264 -7.196993,7.43872 -2.531904,10.0832 2.706688,1.53408 5.414144,0.0288 8.282496,0.039 4.315712,0.016 9.996801,2.48896 12.800001,5.70944 -4.462721,-0.8288 -12.944897,-3.61088 -17.161985,-1.25952 -3.180096,1.7728 -6.203649,9.53728 -2.400512,12.12096 3.072384,2.08768 11.275264,-1.7408 15.082496,-1.72672 5.313281,0.0205 11.898881,3.29344 16.640001,5.51488 2.02816,0.94976 5.087361,3.51744 7.486081,2.76544 2.31104,-0.72448 2.07488,-4.65024 2.11392,-6.53504 l 37.120005,-2.16 17.2128,0.35712 4.22592,5.45792 7.3184,6.08128 0.68288,6.26368 c -1.88224,0.30656 -4.5184,-0.1344 -5.85088,1.49312 -3.42592,4.1824 0.16256,12.16448 5.79328,11.55072 3.94752,-0.43008 5.18016,-6.57728 8.3776,-8.56384 v -12.8 c 5.63456,2.6304 11.58016,4.01856 11.92896,11.39968 0.1312,2.77696 -3.6128,2.89728 -4.87104,4.85184 -4.32896,6.72704 3.83104,9.97952 8.94208,9.34848 -0.3648,-4.5248 0.95616,-7.98784 5.76,-8.96 l -2.56,-19.84 c -7.34912,-2.34688 -9.82528,-9.60064 -10.88,-16.64 17.31968,9.12448 32.60864,22.69888 50.56,30.6944 12.79424,5.69856 21.01312,-3.08736 21.12,-15.9744 32.92416,2.68544 66.48513,4.85568 99.20001,-1.91808 7.90656,-1.63712 18.17728,-2.17664 25.51488,-5.49888 3.61408,-1.63648 3.02272,-7.50144 6.54528,-9.85984 7.17952,-4.80768 16.48256,-7.30624 24.25984,-11.05088 5.04896,-2.43136 10.48192,-6.88128 16,-8.06464 2.13376,-0.4576 3.74464,1.61088 5.76,1.96032 2.89664,0.50176 6.68672,-0.67072 9.6,-1.0336 14.29312,-1.7792 30.77824,-3.54688 44.16001,-9.05024 3.50208,-1.44064 5.81504,-4.80512 8.96,-6.80064 2.51136,-1.5936 5.57248,-1.3824 8.0704,-2.77248 2.14912,-1.19552 3.75808,-4.57664 4.79296,-6.71104 1.37152,-2.83008 5.02848,-8.45952 4.5632,-11.52 -0.864,-5.68576 -7.32096,-15.00288 -5.52704,-20.75136 2.37312,-7.6064 12.55104,-13.19296 12.84096,-21.4912 0.15424,-4.39808 -6.192,-11.7824 -10.66048,-11.51744 l -3.2,-12.16 -2.56,2.56 h -0.64 l -8.12032,-38.40001 -8.51968,-20.48 14.72,-3.2 v -0.64 c -6.07616,0.26112 -14.01664,4.47232 -18.56,-0.64 l 15.36,-3.84 -21.12001,0.64 v -1.28 c 4.44033,-1.05984 13.58529,-0.9664 16.64001,-4.48 -7.42208,0.95872 -15.10273,4.7424 -22.40001,1.92 l 10.24001,-3.2 v -0.64 c -4.93825,0.22912 -10.60225,3.97888 -14.72001,0.64 10.11584,-2.704 20.19009,-5.3696 30.08001,-8.8224 8.84224,-3.08736 18.0512,-7.73376 27.52,-8.2176 16.48576,-0.84288 34.26432,5.84512 48.64,13.2 -0.008,-10.1344 -17.63648,-14.11584 -26.24,-15.2736 -7.78496,-1.04768 -17.80928,-3.7536 -25.6,-2.3488 -19.8272,3.5744 -38.10688,17.00864 -58.24001,18.53824 -3.70688,0.28224 -6.60224,-2.82624 -9.6,-4.54016 -5.17568,-2.95872 -11.90656,-6.30784 -17.92,-6.61568 5.3152,-11.23136 7.64608,-27.44 18.0288,-35.35744 4.49408,-3.42784 10.43968,-2.95616 15.2512,-5.65696 3.27616,-1.83936 5.90848,-5.285118 9.6,-6.385918 6.66945,-1.98976 14.14721,4.984318 20.98561,0.13376 5.34976,-3.79456 2.14912,-9.1744 4.53568,-13.26848 1.53344,-2.63168 5.58528,-2.86912 6.7072,-6.08256 0.70272,-2.01152 -0.0525,-5.4784 -2.24256,-6.26944 -4.49344,-1.6224 -14.90688,5.20768 -19.74592,6.32704 4.97216,-6.43904 16.28032,-6.88768 20.25728,-13.32672 2.35456,-3.811072 5.32544,-12.716545 -0.60288,-15.077761 -2.57408,-1.025216 -6.10112,0.73792 -8.7744,0.859264 -9.28896,0.421696 -17.09248,2.385664 -26.05697,3.808448 -3.93984,0.625216 -8.72448,-1.866368 -12.71168,-2.297792 -5.49376,-0.59456 -10.7552,0.797824 -16.27136,0.43456 v -0.64 c 4.22784,-1.403264 1.58976,-5.835712 0.7904,-8.96 -1.82208,-7.125184 -5.2928,-13.291264 -9.57824,-19.2 -2.26176,-3.118721 -3.76192,-6.879553 -7.85216,-4.480001 0.25472,-3.034752 -1.17056,-4.499392 -3.84,-5.76 l 3.2,32.000001 -16.1088,-15.864192 -7.5712,-5.895808 h -0.64 c -3.3824,15.609984 9.97696,28.851968 12.53504,42.880001 0.5024,2.7552 -2.89792,6.75136 -3.57504,9.6 -6.2624,-1.10592 -7.95584,3.49952 -12.82496,6.2656 -12.34496,7.01312 -20.59264,20.049278 -37.05792,17.66848 -4.45632,-0.64448 -2.70464,-7.96352 -4.98944,-10.67968 -2.33024,-2.77056 -5.89312,-4.28992 -8.35136,-6.92096 -7.5264,-8.0544 -8.93376,-14.1632 -21.25632,-14.65344 -0.0838,-1.91744 -0.0934,-9.220929 -2.13184,-9.921985 -3.55776,-1.223808 -10.30208,10.449345 -11.94816,13.121985 l -0.64,-2.56 -3.2,4.48 c -7.50848,-3.59616 -6.55744,6.73088 -10.06592,9.79648 -1.45856,1.27488 -4.15488,0.3744 -5.93408,0.64128 -3.68577,0.55232 -5.73825,2.88768 -7.04001,6.20224 -4.20736,-7.38752 -12.78912,-12.1184 -20.48,-15.16544 -3.44384,-1.36448 -6.5632,-4.22912 -10.24,-4.94016 -2.3168,-0.448 -4.69696,0.5984 -7.04,0.5248 -11.3248,-0.35392 -25.42592,0.9792 -34.992,7.81312 -4.68096,3.34336 -7.57056,9.4656 -10.352,14.32768 -6.48384,11.336318 -12.17664,21.298558 -11.616,34.559998 -6.66176,-1.96032 -11.4016,-8.03584 -17.92,-10.23168 -10.40512,-3.50528 -19.85408,2.3552 -29.44,4.46208 -5.15136,1.13216 -11.24864,0.64768 -16,3.1584 -5.16928,2.73088 -9.19104,8.288 -11.62944,13.4912 -0.9344,1.99552 -1.22112,7.12768 -4.03712,7.42912 -2.57728,0.27584 -6.888965,-2.5312 -9.293445,-3.4976 -6.27392,-2.52224 -12.576001,-4.4512 -19.200001,-5.85152 v 3.2 h -0.64 l -1.28,-5.12 2.56,0.64 c -0.14784,-8.27904 -0.28992,-16.7552 -1.472,-24.96 -1.13856,-7.90144 -3.21408,-15.048958 -1.5456,-23.039998 1.1424,-5.47072 6.81984,-15.3632 0.4576,-19.84 v -0.64 c 6.43456,0.27584 17.255041,1.76192 23.040001,-1.641024 4.756485,-2.797504 5.752965,-7.234241 8.715525,-11.430593 1.02592,-1.45344 3.14112,-3.467072 2.5856,-5.431104 -0.6304,-2.229504 -3.62624,-3.683584 -5.54112,-4.53728 l 4.3776,-13.054272 -7.577605,-2.305728 C 101.72993,19.44736 100.36033,8.4712962 90.240005,15.36 l -1.28,-5.7599998 1.92,-3.2 C 86.817285,4.2704321 83.668484,4.5492993 79.360004,5.7600001 m -10.88,2.5600001 4.48,15.3600008 1.92,-0.64 -0.64,7.68 c -2.40064,-0.171456 -10.405569,-2.299712 -10.880001,-4.48 l 3.200001,0.64 C 62.096707,22.033793 58.259587,17.695296 58.240003,10.88 L 68.480004,8.3200002 M 117.12001,12.8 l 0.64,0.64 -0.64,-0.64 m -65.736775,3.015808 c 5.082432,-1.492032 10.881792,9.789057 11.577728,13.624193 0.328768,1.811584 0.614784,5.220224 -1.6992,5.928896 -8.43712,2.583744 -21.054337,-16.272257 -9.878528,-19.553089 m 29.896769,16.824193 c 0.94016,-2.757056 2.25728,-5.155136 3.694081,-7.68 1.17248,-2.060992 8.89344,-13.665921 11.91936,-7.476033 3.820805,7.817153 -9.74592,14.851649 -15.613441,15.156033 m -7.04,-13.866689 c 0.49472,0 0.1024,0.318656 -0.21312,0.213376 l 0.21312,-0.213376 M 422.40002,18.56 l -0.64,0.64 0.64,-0.64 m 12.8,32.640001 -10.70464,2.475072 -3.55008,-6.315072 -1.74528,-26.24 c 9.23008,4.500416 13.6,20.901568 16,30.08 m -371.840017,-27.52 v 1.28 h -1.28 v -1.28 h 1.28 m -7.68,17.28 h 0.64 l 3.2,-4.48 c 0.573568,5.757376 9.540481,12.398016 6.539521,18.996032 -1.169281,2.57184 -5.325505,0.596672 -6.697537,-0.787648 -2.965248,-2.991872 -4.7888,-8.421312 -3.681984,-12.448384 l -1.92,1.28 h -0.64 l -14.080001,-5.12 c -0.193408,-1.664128 -1.017408,-3.442752 -0.886912,-5.117568 0.280576,-3.601408 3.961024,-6.527552 7.287424,-4.669632 4.736001,2.645312 7.978817,7.567424 10.239489,12.3472 m 15.360001,5.76 h 0.64 l 2.56,-10.24 h 0.64 l 0.64,1.28 c 5.39712,-3.755456 10.774401,-3.24576 10.240001,3.84 h 2.56 l -1.28,-3.2 c 1.328,-4.101376 10.96832,-14.613056 15.313925,-7.402432 3.37472,5.599424 -10.459525,10.891264 -14.033925,11.242432 l -0.64,4.48 -2.56,-1.28 c -1.799041,6.00704 -8.277121,8.69888 -14.080001,9.6 l -0.64,-8.32 -3.2,3.2 c -2.080641,-3.766784 -6.690369,-17.128832 -1.13408,-19.752576 7.86496,-3.714112 5.90592,13.56704 4.97408,16.552576 m 8.96,-15.36 0.64,1.92 -0.64,-1.92 m 7.680001,0.64 0.64,1.28 h -1.28 l 0.64,-1.28 m 312.960015,0 c 1.1488,8.52352 4.88,22.413632 10.28736,29.237057 2.1856,2.757888 6.78912,1.338816 7.86112,-1.776833 0.89536,-2.600384 -0.97216,-6.31008 -1.50848,-8.900224 h -0.64 l -0.64,10.880001 c -8.43136,-2.338113 -12.43712,-18.321537 -12.8,-26.240001 4.32256,1.469568 7.4208,5.5488 10.28928,8.969344 7.23072,8.622464 15.27872,19.715713 15.31072,31.350657 2.6912,-1.56672 3.01824,-4.10944 2.56,-7.04 3.27552,-2.09024 6.24256,-4.830208 8.69248,-7.863232 1.3184,-1.632385 1.51872,-4.157057 3.5616,-5.104193 6.67584,-3.094656 13.13856,1.401664 19.74592,1.193088 6.96385,-0.219776 13.72865,-3.585664 21.12001,-3.585664 l -0.64,3.84 c -6.10176,-0.766976 -13.17888,0.72256 -18.56001,3.840001 5.66017,0.30688 16.46529,-1.245441 21.66849,-3.576321 4.30464,-1.928384 6.14016,-4.585472 11.61152,-4.74368 0,3.35136 0.58304,7.721281 -1.3696,10.669121 -4.71808,7.12416 -17.84064,6.2256 -22.77184,14.40864 -3.43296,5.69664 -0.59392,14.36928 6.86144,14.08704 3.97696,-0.1504 6.83136,-3.68576 10.24,-5.2448 2.6592,14.223998 -17.5104,5.712 -23.04001,6.75776 -3.69408,0.69824 -6.7552,4.62592 -10.24,6.11904 -5.21792,2.234238 -12.68032,2.353278 -16.9024,6.469118 -9.69664,9.45344 -12.44864,22.86016 -17.04512,35.05408 -4.29504,11.3952 -10.47808,22.40192 -17.744,32 -3.48544,4.60352 -6.56064,9.20768 -11.66848,12.16 0.9536,-4.1568 3.78496,-7.6064 5.42144,-11.52 2.66624,-6.37504 3.40224,-15.12512 9.93856,-19.2 l -3.2,11.52 c 5.63456,-5.55904 4.74816,-13.936 3.84,-21.12 l -2.49856,7.68 -5.18144,9.6 c -3.32544,-1.22816 -3.42464,2.67776 -4.11392,5.12 -2.1376,7.5712 -5.87712,13.77792 -9.8752,20.48 -10.81216,18.12417 -6.10496,38.08961 -4.62784,58.24001 0.60864,8.29952 -0.51904,19.03104 2.28608,26.87744 1.10336,3.08672 3.76064,8.7776 5.77664,11.34016 2.30528,2.92928 6.0864,4.6272 6.71424,8.5024 -4.60352,0 -15.3696,1.42528 -17.68704,-3.9584 -0.87808,-2.04096 0.95232,-4.08576 -0.10432,-6.0992 -2.01472,-3.83872 -4.55296,-5.02272 -4.60864,-9.7824 l -4.48,8.32 h -0.64 c 0.003,-5.38944 3.4048,-14.71424 0,-19.2 v -0.64 c 3.4592,-7.1904 -3.68,-12.71552 -1.92,-19.2 -3.06432,-2.032 -3.65248,-7.46112 -4.55424,-10.88 -1.27424,-4.83072 -1.05536,-9.96672 -2.34816,-14.72 -1.90656,-7.01248 -5.96032,-14.41856 -4.6176,-21.76001 -3.18912,1.48288 -3.79904,2.94912 -3.84,6.40001 l -14.08,-1.92001 c -2.1536,-4.34496 -7.25888,-9.24864 -7.82976,-14.08 -0.74496,-6.30272 4.29376,-11.96288 1.93024,-18.50048 -1.21536,-3.36192 -4.92288,-3.4368 -7.33184,-5.54368 -3.2832,-2.8704 -3.408,-6.4928 -3.40864,-10.51584 4.77632,-0.6432 23.10912,-4.82816 16,-12.16 3.65696,-2.2976 7.17056,-1.83552 8.96,-6.4 10.62272,0 13.77344,-4.82816 11.568,-14.72 -0.44352,-1.9872 0.1312,-3.85792 -0.90624,-5.73504 -1.92448,-3.48032 -5.84448,-5.64288 -8.10176,-8.98496 7.12192,-0.50304 15.10528,-0.4288 17.92,7.68 l -0.64,0.64 -10.24,-7.68 c 6.57856,6.44736 9.04768,11.70176 11.52,20.48 h 0.64 l -1.28,-10.24 h 0.64 l 2.56,2.56 4.48,-10.24 -5.76,6.4 c -1.6768,-4.52992 1.22048,-9.1424 5.12,-11.52 l 1.92,7.04 h 1.28 c 1.42464,-4.22592 4.70784,-8.914558 8.32,-11.519998 0.47808,3.67872 1.41504,6.088958 4.48,8.319998 -5.02464,-7.882878 -3.7568,-18.307198 6.4,-21.759998 -2.01344,8.50176 -3.73504,14.24192 -1.92,23.039998 l -4.48,-1.28 4.48,2.56 -0.64,13.44 h 0.64 c 1.48288,-4.03776 3.48928,-10.31936 0.64,-14.08 l 0.64,-2.56 h 0.64 c 4.27264,0.42752 3.77856,-8.553598 3.84,-11.519998 3.26528,1.37344 8.30976,6.47872 12.09344,4.48768 2.07488,-1.09184 3.32672,-3.67296 5.18656,-5.12768 v -0.64 c -2.61312,-2.99136 -2.55744,-7.08032 -2.56,-10.88 3.87584,1.54688 7.23392,2.12864 10.24,-1.28 -8.1056,1.49952 -10.47872,-2.87232 -14.72,-8.96 -7.03808,-10.102081 -15.7536,-25.101377 -14.08,-37.760001 h 1.92 m -326.613136,1.066688 -0.21376,0.426624 0.21376,-0.426624 m 4.05312,0.213312 v 1.92 h -0.64 l 0.64,-1.92 m -23.040001,0.64 1.28,3.2 -1.28,-3.2 m 142.720007,0.64 0.64,0.64 -0.64,-0.64 m -110.720005,0.64 -0.64,0.64 0.64,-0.64 m 0.64,4.48 -0.64,0.64 0.64,-0.64 m -32.000002,14.08 c -2.969856,-0.707008 -5.965696,-0.507968 -8.960001,-1.0336 -3.444224,-0.604608 -12.929152,-5.389888 -6.711104,-9.828608 6.37536,-4.551104 16.479681,4.309504 15.671105,10.862208 m 30.080002,-10.24 v 0.64 l 1.92,0.64 v -1.92 l -1.92,0.64 m 18.560005,3.2 c -3.55712,8.400064 -14.638725,11.108288 -22.400006,7.04 v -1.28 c 7.731201,-5.279744 12.917761,-11.150144 22.400006,-5.76 m -40.960007,11.52 c -4.35872,6.370561 -16.521665,3.566081 -19.200001,-3.2 6.652097,-2.251904 13.248321,-0.183808 19.200001,3.2 m 16.640001,-3.84 c -1.7952,7.492609 -6.0352,9.742721 -13.44,8.960001 2.62784,-4.907585 7.50784,-9.314817 13.44,-8.960001 m 357.120016,7.040001 -11.52,-3.200001 c 1.15072,-3.680256 7.93088,-6.506752 11.12704,-3.367424 1.60576,1.577408 0.60416,4.623744 0.39296,6.567425 m -366.720016,-7.040001 -0.64,0.64 0.64,-0.64 m 27.520001,2.56 v 1.28 c -5.5808,3.676609 -13.25312,5.651009 -19.840001,3.840001 l 3.2,-6.400001 16.640001,1.28 m 394.240025,-1.28 -1.92,4.480001 c 2.464,-0.865089 3.4304,-1.887297 3.84,-4.480001 h -1.92 m -42.24001,13.440001 c 3.69536,1.45792 5.95648,1.6896 9.6,0 l -7.04,2.56 c 3.46496,4.78592 12.1632,-1.72416 12.47744,-6.39936 0.27584,-4.105984 -6.29184,-7.178689 -9.80608,-5.579393 -3.29664,1.500033 -4.38976,6.271233 -5.23136,9.418753 m -384.640017,-9.600001 0.640001,2.560001 h -3.200001 l 2.56,-2.560001 m 365.440017,7.680001 -3.2,-7.680001 c 5.52384,0.133504 7.9168,3.729345 3.2,7.680001 m 56.32001,-3.84 2.56,-1.92 -2.56,1.92 m -23.68001,-1.28 -3.2,6.4 1.92,-6.4 h 1.28 m -8.32,0.64 3.2,3.84 v 1.28 c -4.39232,1.2512 -5.41376,-1.14048 -4.48,-5.12 h 1.28 m -140.16,1.92 c 0.688,12.72384 13.48544,13.9872 21.6512,19.67232 2.65344,1.84768 7.81888,5.73376 9.29088,8.60544 1.39072,2.71232 0.98432,6.02176 2.16192,8.842238 1.87136,4.48 5.3216,6.16832 8.11712,9.73312 0.85952,1.09568 1.66016,3.36448 -0.3584,3.7824 -2.24896,0.46528 -4.35776,-2.57152 -5.68768,-3.92512 -2.52224,-2.5664 -6.59264,-5.14368 -8.27776,-8.33536 -1.38752,-2.62784 -0.46528,-5.746558 -2.7712,-8.042878 -4.72512,-4.70336 -10.9696,-0.23808 -15.80608,1.66784 v 0.64 c 6.70784,0.05568 7.00352,1.93472 8.96,7.679998 -4.07296,-0.31744 -3.83744,-2.89792 -3.84,-6.399998 -8.22336,6.030718 7.21408,7.775358 8.32,9.599998 v -2.56 c 6.40576,-2.4992 13.36192,6.86592 16.64,11.52 l -5.12,1.28 6.4,1.28 c -0.82368,4.1696 -3.17504,8.28608 -7.6896,9.34784 -9.5616,2.24768 -15.67232,-6.88704 -25.58976,-1.7728 -4.95872,2.5568 -6.86464,8.92032 -1.24608,12.16256 5.936,3.42464 12.84288,2.68672 19.16544,1.3824 -1.41248,3.77792 -5.26976,4.6336 -8.96,5.27488 -10.92864,1.89888 -15.6864,-3.08736 -24.96,-7.19488 -1.088,9.77984 -12.64448,18.6432 -17.3568,26.88 -3.66976,6.41536 -2.42368,15.24416 -2.4832,22.4 h 0.64 c 1.83808,-9.89952 -0.6464,-23.79776 10.24,-29.44 0.12736,4.40256 1.62112,7.70688 0.36608,12.16 -1.62368,5.76064 -4.75392,12.56128 -8.7456,17.07968 -2.88576,3.2672 -6.45249,4.944 -8.62017,9.16032 -2.51264,4.88769 -2.51392,11.27745 -2.84032,16.64001 -10.34304,-5.87072 2.26944,-19.74593 5.40544,-25.60001 3.09313,-5.77472 -0.77696,-11.26592 0.65537,-17.28 0.88064,-3.69984 2.67072,-8.48704 5.17568,-11.38624 1.99936,-2.31296 5.41248,-3.58144 6.67264,-6.5344 1.05856,-2.48 -1.42464,-4.5568 -1.25056,-7.03936 0.25792,-3.68896 3.74656,-6.77312 5.74144,-9.6 -7.6288,3.71776 -8.32,12.90432 -11.23776,19.81504 -1.78688,4.2304 -4.12928,8.50368 -6.04225,12.82496 l -4.48,-3.2 c 0.96448,1.84128 2.19072,3.70496 2.63744,5.76 2.60545,11.98016 -11.02848,14.144 -14.79744,23.04 l 1.92,-1.92 h 0.64 v 3.84 h 0.64 c 1.10848,-8.71744 8.72,-10.24128 12.8,-17.28 h 0.64 c -6.4e-4,8.76608 -5.23456,11.66592 -7.88224,19.2 -1.38944,3.95393 -0.39104,9.09633 -2.95552,12.62209 -2.1888,3.00992 -6.74688,2.37888 -8.63552,5.99808 -2.55488,4.89536 0.25408,10.48064 -2.92672,15.29984 5.25376,-2.82816 2.1312,-9.90976 4.31232,-14.58304 1.36448,-2.92288 6.89088,-4.4288 9.76768,-5.25696 l -7.04,18.56 c 2.2496,-2.55232 2.65472,-6.13504 4.67968,-8.93504 1.98016,-2.73664 5.55456,-4.5152 6.74752,-7.72992 3.97184,-10.7008 0.42944,-18.84545 12.25281,-25.57505 2.5344,10.64448 -4.848,13.63521 -7.26144,22.45761 -1.08673,3.97056 1.92512,8.70016 -0.19904,12.56448 -1.38113,2.51328 -5.10529,2.4736 -7.16737,4.28608 -2.94976,2.592 -3.00416,7.59936 -3.29216,11.25184 l -6.4,-6.4 v 2.56 l -7.04,3.2 c 0.43712,5.09376 -5.5968,6.06464 -9.6,6.4 v 1.28 l 7.68,-1.92 -8.32,12.8 7.68,5.76 c -2.00704,-5.51616 -0.0755,-9.93792 3.84,-14.08 l -6.4,9.6 -3.84,-1.92 8.44736,-11.52 4.99264,-6.4 c -0.071,3.43488 -0.16064,7.53152 -3.2,9.6 2.56064,3.65632 0.46592,8.0512 0.75776,12.16 0.53184,7.47904 2.85504,16.89408 8.20224,22.4 -5.5296,-11.87712 -8.09728,-22.74496 -5.88224,-35.84 0.416,-2.45952 -0.1024,-7.29536 1.4176,-9.28512 2.35392,-3.08096 5.49504,4.21632 8.10112,3.76128 1.57568,-0.2752 1.75296,-3.51104 2.12352,-4.71616 l 13.44001,8.32 c -1.23456,5.12576 -3.31712,12.12672 -3.49568,17.28 -0.10432,2.9984 1.48992,5.89952 1.40992,8.96 -0.10368,3.94176 -1.30816,8.96512 0.49728,12.71744 1.792,3.7248 8.01408,4.37888 9.06176,8.46912 1.05536,4.11712 -2.704,6.50688 -6.19328,6.97344 -0.73088,-5.0048 -6.96256,-14.03392 -10.88001,-17.28 1.55648,5.95072 14.96385,21.27808 1.28128,21.0848 -1.51744,-0.0211 -2.99584,-0.32896 -4.48128,-0.6048 3.87648,-6.07744 -0.76544,-11.9744 -1.92,-19.2 -4.9056,5.52576 3.27424,9.68448 2.61056,14.68544 -0.67136,5.06368 -8.88704,4.06464 -10.816,0.60544 -2.15872,-3.87072 1.66912,-6.5408 1.54496,-10.17088 -0.0973,-2.84352 -3.49504,-4.2272 -4.73792,-6.50624 -1.43424,-2.62976 0.12992,-5.23328 -2.0416,-7.57376 0.41984,2.58816 0.48,6.00448 -2.1696,7.55328 -2.44736,1.42976 -5.41632,-1.10336 -5.09632,-3.71136 0.35456,-2.8864 3.46368,-4.59584 4.70592,-7.04192 -5.58272,-0.41728 -7.23712,-5.56096 -11.52,-8.32 1.40224,3.73376 2.49472,8.48576 7.04,8.96 -1.05664,3.52064 -5.77024,11.42656 0.67712,13.54496 3.7312,1.22688 6.83072,-2.23424 9.47328,2.45824 2.95488,5.24736 -5.48416,8.62464 2.0096,14.0768 v 1.28 l -10.24,2.56 c 5.10784,8.83392 16.26624,-0.97216 23.04,0 -1.01056,3.56736 -3.58592,4.92992 -7.04,5.76 v 0.64 c 3.3792,0.95424 6.864,2.4256 10.13056,0.16512 4.64705,-3.21472 3.73953,-9.83616 9.70945,-11.04512 l -5.12,10.24 c 7.56608,-2.78592 18.61504,-12.42496 12.12544,-21.62368 -2.38848,-3.3856 -7.94496,-3.51808 -9.1968,-7.84192 -0.86144,-2.97536 0.37632,-6.49408 0.2464,-9.5744 -0.38336,-9.08928 -1.10784,-18.12928 2.58496,-26.88 2.75072,2.53312 4.94528,5.2928 8.96,5.12 l 4.48,9.6 h -4.48 c 3.56352,4.38272 7.99168,2.50432 12.8,3.2 -1.5872,6.91072 2.86016,15.2224 3.17504,22.4 0.2784,6.36352 -2.85184,13.9296 -1.72864,19.9488 0.91584,4.90752 7.1072,14.4128 5.44128,19.0912 -2.84928,8.00256 -20.06976,14.39936 -28.00768,13.4976 -4.52224,-0.51392 -8.176,-4.36608 -12.80001,-4.41984 -5.05344,-0.0582 -9.3376,3.42336 -14.07936,4.60992 -5.06624,1.26848 -10.7744,-0.60416 -16.00064,-0.0499 -4.27008,0.45248 -8.464,3.2416 -12.8,2.84288 -6.04928,-0.5568 -10.4608,-5.24864 -16,-7.07392 -8.62784,-2.84224 -23.67232,-4.26368 -32.64,-3.64672 v 1.28 l 28.8,4.3264 19.84,8.06592 16.64,-2.04352 12.8,-0.19328 12.16,-4.85952 14.08001,4.69824 18.56,-4.23424 c -0.62784,3.648 -2.54528,15.04384 -5.48096,17.26464 -4.45184,3.36768 -14.96768,0.832 -20.30144,1.24672 -12.73857,0.99008 -25.66209,5.38944 -38.21761,7.72864 l -3.2,-5.76 c -7.84832,-0.16704 -15.56352,-4.6336 -23.04,-6.76416 -17.08736,-4.87104 -33.47584,-10.33792 -49.92,-17.11552 -10.78016,-4.44288 -23.7664,-11.2928 -35.84,-9.40032 0,-5.74592 -8.55168,-11.18912 -12.16,-16 -9.95072,-13.2672 -18.9696,-23.85856 -26.240005,-38.4 -1.4848,-2.9696 -7.77024,-13.7376 -8.96,-13.44 l -4.480001,-14.72 c -2.95936,-10.52736 -4.39552,-23.08608 -3.08224,-33.92 0.54272,-4.47168 3.0144,-9.05729 3.08224,-13.44001 l 3.200001,-5.12 h 3.84 l 12.800005,-12.8 h -2.560005 v -0.64 l 2.560005,0.64 h 0.64 l 1.92,-1.92 c 3.16736,6.27584 3.42976,11.97248 -2.59456,16.79296 -2.378885,1.90336 -6.638725,3.30816 -7.530885,6.52096 -2.35456,8.48001 4.74944,18.08833 -0.75456,24.68609 8.936965,-5.93664 -1.57056,-16.1472 3.80032,-24.90241 4.876165,-7.94816 16.193285,-13.25504 20.393605,-22.0256 1.6032,-3.3472 0.50432,-9.42784 1.34144,-13.2416 1.65184,-7.5232 5.86752,-13.14688 10.40448,-19.1872 4.84992,-6.4576 18.7712,-8.81984 21.02016,-16.6432 -16.51392,1.65504 -35.22816,9.53152 -38.1184,27.52 -1.3248,8.24192 2.32768,18.8192 -1.5616,26.24 -4.41152,-3.1424 -5.58848,-13.53152 -5.24608,-18.56 0.89856,-13.1904 1.408,-32.84672 17.40608,-37.01568 4.41792,-1.15136 8.96896,-0.9632 13.44,-2.2976 5.9744,-1.78368 10.07424,-5.23712 16.64,-4.78912 12.52608,0.85376 23.2928,9.71328 35.2,13.5936 8.05248,2.624 16.94912,1.29536 25.1424,2 9.24608,0.79552 17.9872,4.37952 27.3376,4.1888 l -0.64,1.92 c 3.36192,0.80064 7.60512,-0.0608 9.6,3.2 -4.98816,0.0448 -9.4656,1.3152 -12.16,5.76 h -0.64 l 3.2,-8.96 c -9.4368,5.10976 -1.57504,14.43072 -2.56,22.4 -1.65184,0.73536 -2.98944,1.68 -4.48128,2.7104 -1.48224,1.024 -3.10144,1.9104 -4.3936,3.184 -5.86496,5.77984 1.15776,11.664 1.83488,17.7856 -6.12352,-1.08224 -9.39456,2.52992 -6.4,8.32 l 1.28,-3.84 c 2.33536,0.47744 4.8512,1.13728 6.2848,-1.35872 2.38848,-4.15872 -2.13824,-9.01824 -0.008,-13.35808 2.94976,-6.0096 10.70656,-5.5808 12.28288,-12.8032 -3.7664,-1.21984 -4.67072,-5.83808 -3.0528,-9.06944 2.656,-5.30496 7.57184,-9.11936 13.2928,-10.77056 v 3.84 l -5.76,3.2 10.88,-3.84 -6.4,10.88 c 7.64992,-4.42176 5.184,-8.76864 8.2912,-15.36 1.94688,-4.12992 6.00512,-7.008 7.0688,-11.52 h -0.64 l -11.52,14.72 c -1.66976,-7.28704 4.24576,-10.55488 7.68,-16 -2.88576,1.90912 -5.45344,3.97888 -7.17056,7.04064 -0.8352,1.48992 -1.7856,4.8512 -3.776,5.16992 -3.32928,0.53248 -3.07072,-5.95136 -1.94176,-7.59424 2.14592,-3.1232 6.8288,-4.26752 9.61856,-6.77888 2.86656,-2.57984 4.624,-6.93312 7.10976,-9.99744 l -4.48,1.92 c -1.40032,9.58848 -15.1616,9.78048 -14.72,19.84 h -5.12 l 1.92,-3.2 c -14.51264,-1.18528 -28.1888,-5.76064 -42.88,-5.76 -4.76544,0 -13.24096,1.45344 -16.72832,-2.87936 -1.62176,-2.01472 -0.6784,-5.08352 -0.25664,-7.36064 1.22112,-6.60224 2.97216,-11.89888 5.93024,-17.92 3.776,-7.685118 7.30944,-16.533118 14.43776,-21.950718 9.53024,-7.24288 29.53536,-8.97856 40.77696,-6.20928 l -1.28,1.28 v 0.64 l 5.12,5.76 c 6.93056,0.29504 14.21376,12.02944 19.84,16 l -13.44,-14.07744 -7.68,-8.32256 c 7.57824,0.77568 13.62112,6.27008 19.8304,10.1408 3.25952,2.03136 6.56064,4.30272 5.1296,8.4192 l -4.48,-3.2 3.2,8.32 c 3.18656,-0.41344 8.62592,-0.9472 11.35425,-2.57792 2.30016,-1.37472 2.93376,-3.9648 5.9264,-4.35776 4.77184,-0.6272 12.34624,2.9568 12.70464,8.21568 0.24192,3.551358 -0.9056,7.335038 -1.18528,10.879998 7.68128,-8.83776 2.28032,-21.874558 -10.24,-21.012478 -6.11456,0.42112 -10.33857,6.48768 -16.64001,7.57248 1.1776,-4.53568 3.80864,-11.55328 8.96065,-12.5792 2.08448,-0.41536 5.67872,1.53088 7.3024,0.48192 1.71904,-1.1104 2.23104,-5.84896 2.93696,-7.74272 h 0.64 c 0.25216,4.13248 0.0352,9.14688 3.2,12.16 -0.86528,-4.592 -3.09376,-11.70368 0.64,-15.36 l 9.6,19.84 h 0.64 c -1.24672,-8.50496 -9.50528,-11.9232 -7.68,-21.76 l 6.4,10.88 c -2.39296,-3.6832 -5.89568,-10.54208 -0.64,-13.44 l 5.12,16.64 5.12,3.84 h 0.64 l 1.28,-1.92 c -8.1472,-2.77184 -12.016,-14.13888 -9.6,-21.76 h 0.64 c 1.0624,7.88352 6.79616,15.80352 14.08,19.2 v -0.64 c -7.56544,-3.92448 -13.9232,-11.8432 -11.52,-20.48 h 1.92 m 94.08,4.48 c 2.08704,4.27712 -1.12512,7.40992 -2.20544,11.52 -0.912,3.46816 -0.35648,7.33248 -0.35456,10.88 -8.40512,-4.61056 -2.76672,-17.51744 2.56,-22.4 m -75.52,9.6 c -4.62144,-0.4736 -12.03712,-3.57824 -13.44,-8.32 5.73888,1.1136 10.37376,3.05984 13.44,8.32 m 78.72,-5.76 5.12,19.2 c -5.6256,0.44672 -5.75744,-5.33888 -5.76,-9.6 h -0.64 c -0.69312,5.60768 1.29024,8.3936 3.2,13.44 -10.15424,-3.48352 -5.62304,-15.86368 -3.2,-23.04 h 1.28 m 84.38785,0.44672 c 4.02816,0.22208 0.90624,5.05152 -0.56256,6.25472 -3.78944,3.10464 -12.12032,8.39872 -17.25312,7.73824 -3.40608,-0.43776 -4.22336,-4.79296 -1.72864,-6.93376 3.2768,-2.81152 9.88736,-3.04064 13.87648,-4.9088 1.67168,-0.78336 3.73952,-2.25728 5.66784,-2.1504 m -255.90786,3.39328 v 0.64 l 3.2,0.64 v -0.64 l -3.2,-0.64 m 161.28001,0 c -1.056,3.37472 -5.85664,5.62752 -8.96,7.04 0.69632,-4.42048 4.88,-6.33472 8.96,-7.04 m 10.88,0 -0.64,1.28 0.64,-1.28 M 191.36001,128 c 10.51584,-3.73824 8.23744,-23.35936 11.52896,-31.999998 1.65568,-4.34688 8.00832,-13.48928 12.80064,-14.67712 3.0016,-0.74368 5.74208,1.90336 8.9504,1.23712 v -1.28 c -9.85664,-4.24704 -17.41504,-0.02944 -22.51264,9.6 C 196.23169,102.01728 196.28161,116.16384 191.36001,128 m 53.12,-49.919998 v 0.64 l 3.2,1.28 v -0.64 l -3.2,-1.28 m -7.04,0.64 v 0.64 l 3.84,0.64 v -0.64 l -3.84,-0.64 m 19.84,0.64 v 0.64 l 12.8,10.24 c -3.08096,-4.37376 -7.75104,-8.92736 -12.8,-10.88 m -15.36,0.64 v 0.64 c 9.47264,6.3904 18.14592,10.45632 24.32,20.479998 h 0.64 c -1.10848,-9.964798 -16.20992,-18.594558 -24.96,-21.119998 m 6.4,0 0.64,0.64 -0.64,-0.64 m 163.20001,0 v 1.92 h 0.64 l -0.64,-1.92 m -10.24,0.64 -0.64,22.399998 h -2.56 c -0.9728,-6.618238 -1.65568,-16.890878 3.2,-22.399998 m -10.88,3.84 c -0.74176,3.55968 -3.02336,4.2016 -6.4,4.48 1.37536,-2.86144 3.30432,-3.98848 6.4,-4.48 m -104.32,3.2 v 0.64 c 1.88544,0.47744 2.75904,0.76608 3.2,-1.28 l -3.2,0.64 m -36.48001,0 c 2.17984,2.80192 4.81152,4.49408 8.32,5.12 l -8.32,-5.12 m 61.44001,0 3.84,3.84 -3.84,-3.84 m -32.00001,3.2 v 0.64 l 3.84001,-1.28 -3.84001,0.64 m 109.44001,-1.28 -8.96,15.999998 c -4.11264,-6.929278 1.78048,-14.879358 8.96,-15.999998 m 154.24001,0.64 -0.64,1.28 0.64,-1.28 m -252.80001,3.84 v 0.64 l 8.32,5.759998 -7.68,-3.199998 5.76,3.839998 -3.2,1.28 v 0.64 c 3.51168,0.24768 5.952,0.68864 7.04,-3.199998 h -0.64 V 101.12 c -1.1648,-4.760318 -4.31424,-8.167038 -9.6,-7.039998 m 88.32,0 c -0.75264,4.6368 -6.06336,8.668158 -9.6,11.519998 0.54848,-5.32928 4.57024,-9.822718 9.6,-11.519998 m -119.68001,0.64 c 0.73216,3.19168 4.95168,7.096958 4.56256,10.230398 -0.32128,2.58496 -4.0416,4.37888 -5.44576,6.46912 -4.53312,6.74752 -12.48192,15.27744 -12.5568,23.62048 l 7.23264,-9.33248 10.68736,-6.02752 h -2.56 c 3.2224,-5.99424 6.61696,-5.53088 12.16,-8.58432 4.2784,-2.35648 7.52064,-4.99648 12.16001,-6.77568 l 0.64,1.92 c -4.93249,1.9136 -9.88289,3.46304 -11.52001,8.96 h 3.2 l -0.64,1.92 9.60001,-5.12 v -0.64 l -10.24001,2.56 c 1.55712,-2.80256 7.25825,-6.84032 10.69761,-5.34592 3.74016,1.62496 10.27968,8.39936 14.2624,2.78592 -7.92064,-0.36288 -15.28192,-5.91424 -16,-14.079998 h -0.64 c -1.984,6.984958 -4.79745,6.924158 -10.88001,10.879998 l -0.64,-2.56 9.60001,-4.48 v -0.64 l -10.24001,5.12 1.92,-5.12 -6.4,6.4 v 0.64 l 4.48,-0.64 -9.98784,6.90496 -7.93216,8.45504 c 4.28736,-6.0384 6.30336,-10.38208 12.8,-14.08 l 1.28,-7.04 c -5.2544,2.5152 -6.2272,-3.511038 -9.6,-6.399998 m 80.00001,7.039998 -10.24,-5.759998 c 4.69952,-3.21024 11.95328,-0.55168 10.24,5.759998 m -69.12001,-0.64 3.2,-2.559998 -3.2,2.559998 m 144.64001,-1.279998 c -4.62464,4.887038 -7.39392,13.836798 -7.68,20.479998 h 0.64 c 1.70816,-5.97568 8.13632,-14.22592 7.04,-20.479998 m -46.72,1.279998 v 3.2 l -2.56,-2.56 2.56,-0.64 m 49.28,0 -8.32,26.88 h 0.64 c 2.84672,-6.6144 10.4224,-19.84064 8.96,-26.88 h -1.28 m -32,3.84 1.92,2.56 v -2.56 h -1.92 m 17.92,1.28 -1.28,8.32 h 0.64 l 0.64,-8.32 m 3.2,0 c -3.06816,7.95392 -4.48,16.44224 -4.48,24.96 l -2.56,-0.64 c 1.65824,11.27744 -2.02304,15.71776 -6.4,25.6 10.13184,-2.04416 8.5568,-14.03904 9.21088,-21.76 0.4512,-5.3248 1.7248,-10.688 2.42496,-16 0.50112,-3.80864 2.96,-8.3904 1.80416,-12.16 m 14.72,0.64 -8.96,23.68 c 4.5952,-2.5536 12.3968,-18.96 8.96,-23.68 m -99.2,1.28 v 0.64 c 3.61088,1.14496 10.9344,3.86432 13.44,0 l -13.44,-0.64 m 72.32,0 -4.48,20.48 h -0.64 v -3.2 h -0.64 l -0.64,6.4 c 5.06432,-2.92864 10.19328,-18.67136 6.4,-23.68 m -12.16,1.28 c 0.7712,9.44064 2.6112,16.04608 0.64,25.6 6.4704,-3.56736 2.56832,-20.04224 0.64,-25.6 h -1.28 m -39.68,2.56 c -0.004,5.23072 -1.3952,8.70336 -7.04,9.6 v 0.64 c 6.9536,1.89184 10.31616,-4.34048 8.32,-10.24 h -1.28 m -53.76,1.28 c -5.53792,4.25664 -12.36673,8.15616 -14.08001,15.36 3.56864,-2.59776 14.82497,-10.79232 14.08001,-15.36 m 73.6,0.64 3.84,23.04 c 4.66624,-4.98048 1.10336,-19.13344 -3.84,-23.04 m 15.36,0 2.09664,13.44 -2.73664,10.88 c 6.6656,-3.88864 5.76576,-19.44128 0.64,-24.32 m -108.16001,2.56 v 0.64 l 4.48,-2.56 -4.48,1.92 m 131.84001,-0.64 -6.68096,18.56 -8.03904,10.88 c 8.31232,-2.33984 16.66432,-21.21024 14.72,-29.44 m -107.52,1.28 -8.32,7.04 v 0.64 c 4.17408,-0.62592 9.01632,-2.6816 8.32,-7.68 m 65.92,0 c 1.63712,5.16608 1.00544,12.8896 -6.4,10.88 v -0.64 c 3.36128,-2.76992 3.2,-5.50208 3.2,-9.6 l 3.2,-0.64 m -83.20001,0.64 -3.84,4.48 3.84,-4.48 m 97.92001,0 -1.28,19.2 c 6.4096,-3.904 2.8128,-13.3088 2.56,-19.2 h -1.28 m -62.08,17.28 h 0.64 c 2.78528,-9.16672 3.94368,-13.3696 14.08,-16 -11.7024,-4.91072 -14.72,7.66144 -14.72,16 m 35.2,-14.72 v 0.64 l 5.12,1.28 -5.12,-1.92 m -99.84001,80.64001 -1.92,-1.92001 h -0.64 c 0.56384,6.90049 3.504,16.46657 -7.04,15.36001 v -8.32 l 4.48,4.48 0.64,-0.64 c -4.40064,-8.61248 -4.73408,-16.92929 1.34016,-24.93441 2.54336,-3.35168 6.84032,-6.07552 8.89152,-9.68512 1.70432,-3.00032 0.19456,-7.31648 2.31424,-10.00256 2.22464,-2.81856 5.59744,-2.97984 7.29408,-6.57792 h -1.28 l 9.264,-18.5504 13.77601,-15.3696 c -3.23905,1.54304 -4.57409,4.5184 -7.09953,6.9216 -4.3904,4.17792 -8.18688,5.79968 -10.93312,11.6384 -1.59168,3.38432 -1.14176,7.08736 -3.49568,10.21248 -1.93856,2.57344 -7.96608,7.67296 -10.47168,3.86752 l -6.57472,11.52 -10.70528,20.48 0.64,0.64 h 1.28 l 12.8,-28.16 h 3.84 c -1.4688,4.33856 -0.66304,9.51232 -3.21856,13.43744 -3.808,5.85088 -10.9856,8.87616 -11.50144,16.64256 l -3.2,-1.28 c 1.50656,8.19392 -7.13408,3.8752 -11.52,4.48 3.79072,4.41024 7.73248,3.30496 12.8,2.56 l -0.64,17.28001 c -4.9664,-5.1264 -9.72544,-12.06016 -16.64,-14.72001 l 1.28,3.20001 c -3.23584,0.69312 -1.89888,5.55968 -0.32,7.62688 2.00768,2.62848 5.21984,4.16 6.89792,7.2352 1.33824,2.45312 0.28544,5.69024 1.9552,8.17792 3.408,5.07648 6.48384,6.76352 8.10688,12.8 l -0.64,0.64 -5.12,-0.64 1.92,7.04 -5.76,-6.4 v -0.64 h 2.56 l -10.61952,-6.46656 -0.88384,-6.97344 -4.49664,-10.88 h -0.64 l 1.28,9.6 h 1.92 c -0.0774,3.75168 -1.90272,9.12192 -0.44224,12.6912 3.30048,8.06528 16.48704,11.136 24.12224,11.6288 1.15776,-10.37248 -3.78688,-15.96736 -9.18272,-23.6896 -1.97952,-2.832 -0.99392,-6.04608 -2.45184,-8.94976 -2.18944,-4.3616 -6.63744,-6.91776 -8.84544,-11.52064 l 21.76,14.08 v -0.64 l -1.28,-1.92 4.48,-1.28 -0.64,4.48 3.2,-5.76 1.28,8.32 h 0.64 c 1.3152,-3.26336 1.21024,-8.05632 -1.92,-10.24 0.70848,-4.45248 -0.96768,-9.1872 1.28768,-13.43937 2.07936,-3.92 7.06176,-5.21728 8.49984,-9.60128 2.06272,-6.288 -3.7344,-11.03808 3.65248,-15.35936 l -0.64,2.56 4.1984,-5.57504 10.5216,-7.86496 c -3.88032,8.15552 -13.13856,14.26944 -12.16,24.32 h -1.28 l -0.64,-7.04 h -0.64 l 0.47296,16.6304 -7.8752,10.88961 0.56704,12.16 -3.4048,6.4 5.12,-2.56 c -1.45152,-8.21568 4.08896,-15.16992 10.24,-19.84 l -1.28,-5.76001 h -0.64 c -0.23744,5.42465 -3.09952,6.30849 -5.92768,10.34945 -1.5232,2.17664 -1.7856,5.19232 -3.03232,7.57056 -2.224,-9.34592 5.96928,-10.79168 8.0192,-18.56001 1.70432,-6.4576 1.64864,-12.28672 4.52736,-18.56 2.24512,-4.89344 6.87808,-8.78208 8.71936,-13.71136 1.32352,-3.54496 0.20224,-6.92992 2.21184,-10.58368 2.18496,-3.97312 6.89537,-5.32416 9.32993,-9.01056 1.71584,-2.59904 0.70912,-5.59168 1.86432,-8.29184 2.22656,-5.20512 6.75328,-10.23744 9.488,-15.36256 -13.55968,2.0416 -24.00705,19.5488 -28.09537,31.36 -1.10528,3.1936 -0.49792,7.29792 -2.00256,10.2304 -2.86656,5.58848 -11.45664,7.37024 -14.00896,12.86912 -1.29664,2.79296 1.69216,6.34176 0.97408,9.54048 -1.37856,6.1408 -10.5408,8.62208 -8.7072,15.36001 M 405.76002,121.6 v 1.92 h 0.64 l -0.64,-1.92 m -141.44001,7.68 7.04,-7.04 c -3.76192,1.12768 -5.424,3.58592 -7.04,7.04 m 34.56001,-5.76 -6.4,14.72 c 4.14912,-3.33888 6.79872,-9.536 7.68,-14.72 h -1.28 m 96.21312,1.06688 0.21376,0.42624 -0.21376,-0.42624 m -99.41312,0.21312 -13.44,20.48 h 0.64 l 5.12,-5.76 c -0.4352,4.00896 -2.49344,7.6 -6.40001,8.96 l 0.64001,-3.2 h -0.64001 l -7.68,16 c -3.26464,-1.1488 -2.32,-4.31552 -1.3664,-7.04 2.29504,-6.55616 7.28,-9.84256 10.96641,-15.36 l -5.76001,3.84 c 0.73728,-3.1776 2.7264,-9.95264 7.04001,-7.68 1.4688,-5.31456 6.112,-6.42304 9.6,-10.24 h 1.28 m -23.04001,0.64 -3.84,5.12 3.84,-5.12 m 132.48001,0 -0.64,7.04 0.64,-7.04 m -59.52,6.4 c -3.51424,6.19712 -10.4672,5.03296 -16,2.65536 -1.73696,-0.74624 -6.28928,-2.34816 -5.46496,-5.01504 0.59264,-1.91424 3.9776,-1.50016 5.46496,-1.44576 5.68448,0.20736 10.19648,3.7568 16,3.80544 m -23.68,-1.92 c 2.6336,5.40096 8.99776,6.76992 14.08,8.96 -3.8176,2.608 -11.46496,0.91904 -15.16608,-1.53152 -3.26528,-2.1632 -1.7504,-5.9968 1.08608,-7.42848 m -183.04001,3.2 c -3.7888,4.62272 -9.70624,7.02656 -13.6448,11.6288 -6.56512,7.67104 -7.76128,16.93504 -10.6752,26.1312 -4.51584,-14.68224 6.56704,-39.55264 24.32,-37.76 M 0,157.44 l 14.080001,-6.4 v -2.56 l 0.64,1.92 c 4.504384,-2.1632 15.204289,-3.19616 16.640001,-8.32 2.974656,1.88096 5.900736,-0.75584 8.96,-1.60704 6.641664,-1.84704 14.214721,-3.37024 21.120001,-3.51296 v 9.6 c -3.77344,-0.4768 -8.62208,-1.632 -12.159488,0.27776 -5.768769,3.11424 -6.092417,13.28256 -0.640512,17.00224 -0.557184,-3.2384 -2.223297,-6.22272 -1.796545,-9.6 0.910081,-7.20192 9.180737,-7.58144 14.596545,-5.76 v 3.2 c -8.19264,1.06368 -9.69952,6.78272 -7.04,14.08 h 1.28 l 0.64,-0.64 c -3.494144,-9.03936 2.018304,-7.72608 5.751616,-14.1472 2.349504,-4.04096 2.722624,-12.09408 1.928384,-16.5728 -4.183616,1.14688 -8.017472,-0.37696 -12.16,0.29952 -12.729409,2.07744 -24.437186,6.10688 -36.480002,10.53952 C 9.2702085,147.48032 0.08981056,149.85664 0,157.44 m 283.52002,-21.76 0.64,0.64 -0.64,-0.64 m 18.56,1.92 -6.4,13.44 8.96,-12.8 -2.56,-0.64 m -26.24001,0.64 -5.12,4.48 c 2.54848,-0.5248 4.62656,-1.79392 5.12,-4.48 m -189.440005,1.92 -0.64,0.64 0.64,-0.64 m -55.680003,1.28 v 1.28 l -1.28,-1.28 h 1.28 m 270.080018,23.68 c -5.70368,-5.01568 -2.58624,-11.51872 0.90048,-16.64 0.89792,-1.31968 3.99808,-7.41376 6.32384,-5.27872 1.58016,1.45024 -0.9984,4.14144 -1.792,5.27872 -3.43296,4.9216 -5.3088,10.66112 -5.43232,16.64 m 140.16,-21.76 1.92,2.56 -1.92,-2.56 m -194.56001,1.92 -8.32,8.96 c -0.55424,-5.27232 3.8848,-7.664 8.32,-8.96 m -227.200009,0.64 -0.64,0.64 0.64,-0.64 m 294.400019,1.28 -7.68,14.08 c -4.26944,-4.576 0.91392,-17.11872 7.68,-14.08 m 194.56001,103.68001 c -1.14176,5.904 -6.288,11.70176 -9.60064,16.64 -4.45952,6.64768 -11.456,21.02016 -18.58496,24.69184 -13.15521,6.77504 -29.60193,8.4224 -43.49441,13.42976 -4.4544,1.60512 -10.48832,2.23296 -14.08,5.3984 14.43136,-1.86496 29.6576,-7.46304 43.52,-11.88864 5.66465,-1.808 13.52449,-3.01312 18.34945,-6.60672 4.52736,-3.37152 5.9456,-10.41216 10.45056,-14.14464 l 6.4,17.28 -5.12,10.24 h -0.64 c -3.8336,-1.93408 -13.02976,4.10496 -17.28,5.18656 -11.57249,2.94464 -23.33569,4.65216 -35.20001,5.74144 -3.94176,0.3616 -8.93504,2.10688 -12.8,0.87168 -3.4336,-1.0976 -6.23168,-4.04672 -8.7744,-6.44544 -4.37184,-4.12544 -8.02432,-5.76 -8.44608,-12.3936 -0.56704,-8.9088 1.14688,-17.96096 1.22048,-26.88064 9.70496,3.13536 16.5472,5.66144 26.88,3.2 -1.55328,-3.49376 -1.84,-7.63968 -3.84896,-10.88 -4.25984,-6.86976 -11.32352,-11.81184 -15.0592,-19.2 -3.57312,-7.0656 -1.98656,-16.40064 -3.75168,-23.8432 -0.8224,-3.46752 -3.1456,-6.56064 -4.0032,-10.0768 -1.64224,-6.73536 -1.56672,-13.76961 -3.06624,-20.48257 -0.92672,-4.14912 -3.07456,-9.80736 -2.52416,-14.07488 0.40256,-3.12064 4.43776,-5.85024 6.2432,-8.3232 3.20384,-4.38784 5.69216,-10.56064 6.17024,-15.99936 3.3664,1.21152 7.71968,3.9904 8.32,7.68 h 0.64 l 0.64,-1.28 27.52,15.22112 7.82848,3.75424 4.36545,11.10464 8.94464,35.20001 16.62144,29.44 c -4.21952,1.45152 -4.3008,4.57344 -5.7632,8.32 -2.77632,7.11616 -9.69792,13.66592 -10.8768,21.12 h 0.64 c 2.79424,-5.88032 7.56288,-10.67456 10.30336,-16.64 2.00128,-4.35648 2.34752,-10.02432 7.61664,-11.52 -0.66816,-9.21472 -10.7008,-18.66112 -14.73216,-26.88 -6.26432,-12.76992 -5.93472,-28.21825 -11.33312,-41.60001 -1.29856,-3.21856 -1.63136,-8.05504 -4.20865,-10.52352 -2.17152,-2.07936 -5.54432,-2.78912 -8.12608,-4.2464 -8.64128,-4.8768 -17.80928,-9.02208 -26.24,-14.23232 -1.9296,-1.19296 -10.56384,-4.27968 -10.31552,-6.81152 0.4864,-4.9632 6.77504,-1.97824 9.03552,-0.80832 9.1264,4.72064 18.49664,8.83648 27.52,13.78176 3.2928,1.8048 7.90912,3.64544 10.49921,6.37568 21.47712,22.63808 10.56,62.24321 38.1408,81.10465 M 76.160004,147.84 l 1.28,1.28 -1.28,-1.28 m 216.320016,0.64 c 0.9376,3.27296 0.2976,6.52416 -3.2,7.68 l 1.92,-7.68 h 1.28 m 26.88,12.16 c -6.33792,-1.34016 -4.68864,-7.30304 -4.48,-12.16 3.9424,1.30752 3.5488,8.56 4.48,12.16 m -241.280016,-11.52 0.64,0.64 -0.64,-0.64 m 243.200016,0 v 5.76 l -2.56,-5.76 h 2.56 m 128,0 0.64,0.64 -0.64,-0.64 m -369.920016,1.28 1.92,2.56 -1.92,-2.56 m 167.680006,0.64 -1.92,3.84 1.92,-3.84 m 65.28001,1.92 c 1.4048,5.55904 -1.87456,11.07584 -1.6864,16.64 0.17792,5.26976 2.91904,10.08448 2.84928,15.36 -0.0531,4.01088 -2.71616,7.61856 -3.48288,11.52 -1.1328,5.76385 0.74368,11.64417 -0.53376,17.28001 -1.21536,5.36128 -5.15648,9.1168 -6.92032,14.08 -2.1632,6.08576 4.46976,12.5472 -0.44672,18.256 -4.17664,4.84992 -10.52864,0.0384 -8.3392,-5.456 l 4.48,1.92 -5.76,-5.12 -0.64,6.4 c -2.52032,-0.64384 -5.248,-1.22112 -7.69536,-1.97312 -8.49217,-2.6112 -0.1024,-10.64576 1.6576,-14.09344 1.072,-2.0992 1.03104,-4.688 0.91776,-6.97344 3.83488,-3.37216 7.40096,-14.7456 8.32,-19.84 6.61568,5.8336 -0.73728,13.31008 -1.7248,19.84 -0.656,4.33728 0.8224,7.4176 -1.4752,11.52 l 3.84,-0.64 2.56,8.32 h 1.28 c -0.25408,-5.55968 -5.54176,-10.5536 -4.2784,-16 1.74656,-7.53216 10.99392,-10.85888 10.0384,-19.2 h -0.64 c -0.71296,5.39136 -3.41632,9.67168 -8.32,12.16 l 5.76,-12.8 h -0.64 l -2.56,3.84 c 0,-3.93472 -1.60768,-4.49536 -3.2,-7.68001 -1.3536,-2.70784 0.3968,-10.0192 -3.84,-8.96 -0.35648,-8.43968 3.80416,-16.54784 8.32,-23.68 2.36288,8.07296 -4.78208,15.77728 -7.04,23.04 l 8.96,-15.36 h 0.64 l 5.12,3.2 c -3.82208,8.54848 -6.4256,15.71456 -6.4,24.96001 h 0.64 l 1.92,-10.88001 h 0.64 l 0.64,11.52001 h 1.28 c 0,-4.86209 -1.78688,-10.72897 -1.12704,-15.36001 0.71232,-4.9984 4.24384,-8.94656 4.31104,-14.35136 0.10944,-8.8064 -5.11744,-13.856 2.576,-21.48864 m -246.400016,0.64 1.28,7.04 h 0.64 l -0.64,-7.04 h -1.28 m 15.36,0 0.64,5.76 h 0.64 l -1.28,-5.76 m 16.853121,1.70688 0.21376,0.42624 -0.21376,-0.42624 M 265.60001,154.88 v 1.28 l 1.28,-1.28 h -1.28 m 124.16001,3.2 1.92,-1.92 -1.92,1.92 m 83.84001,-1.28 v 0.64 l 5.12,-0.64 h -5.12 m -151.68001,0 c 2.64576,4.528 8.75008,8.1856 10.39552,12.8 1.65248,4.6336 -3.05792,9.88736 -2.5536,14.72 0.55232,5.29472 5.81824,9.74016 7.5968,14.72 2.064,5.78113 -0.46016,10.34817 -1.00224,16.00001 -0.53504,5.57632 6.4256,13.40544 -0.4416,17.77344 -7.12128,4.52928 -11.40352,-6.75904 -13.26016,-12.02304 -1.23328,-3.49696 3.79968,-8.96 4.39936,-12.7904 0.97984,-6.25536 -2.6048,-12.47809 -3.21408,-18.56001 h 0.64 c 2.95872,5.536 5.88992,9.54688 6.4,16.00001 h 0.64 c -0.2624,-7.00097 -4.71424,-11.43489 -6.05184,-17.92001 -0.99136,-4.8064 1.63392,-9.91808 0.36864,-14.72 -1.05984,-4.02368 -5.93408,-12.29888 -3.9168,-16 m 192.00001,0 c -6.4e-4,4.65856 0.57216,12.43712 -2.09856,16.46208 -1.49632,2.25536 -5.15712,3.10592 -7.50144,4.20864 -6.30592,2.9664 -14.47744,5.62304 -19.84,10.04928 8.09984,2.32192 19.71008,-6.8736 26.88,-10.24 l 1.28,5.12 h 0.64 l 3.2,-19.2 h 0.64 c 3.02656,7.23072 6.68288,14.14912 -2.56,18.56 v 0.64 c 6.79168,-0.43264 6.74624,-3.4496 8.32,-8.96 5.57632,2.42112 12.3104,3.11744 14.08,9.6 -5.04,0.80192 -9.07712,-0.64 -10.24,5.76 h 0.64 l 5.12,-3.84 -4.48,5.12 3.84,-0.64 0.64,1.92 c 3.06752,-1.61088 2.82176,-3.90976 3.2,-7.04 h 1.28 c 2.43456,4.32256 8.09536,6.66112 7.68,12.16 l -7.68,0.77568 -9.6,-2.05568 v 0.64 l 10.24,4.48 -1.28,3.20001 c -5.01312,0 -10.48192,-1.2288 -15.36,0.0346 -10.31808,2.67264 -20.30848,14.81664 -23.04,24.92544 l 4.48,-0.64 c 1.55264,2.60288 3.31648,3.94496 6.4,3.84 v -0.64 l -4.48,-4.48 1.92,1.28 8.96,-1.28 v -0.64 c -5.11232,-2.81152 -10.2304,-0.88896 -15.36,1.28 5.9392,-8.9888 13.14304,-18.39488 23.68,-22.32 3.18976,-1.18784 6.32704,1.06112 9.54304,1.11872 5.13664,0.0922 3.9264,-2.98112 7.29984,-4.92224 3.02592,-1.74145 5.5392,-1.09697 6.90496,-5.23713 2.12672,-6.44672 -5.43552,-7.89824 -7.67296,-12.34432 -1.09568,-2.17664 -0.0627,-4.51776 -1.84704,-6.58944 -1.42784,-1.6576 -4.176,-2.07616 -5.04448,-4.22592 -1.84512,-4.56832 -0.256,-10.816 -2.14336,-15.87968 h -1.28 c -1.39968,4.2944 -2.9312,11.9552 -7.68,13.44 l -5.76,-13.44 h -1.92 m -269.44002,1.28 V 160 h 0.64 l -0.64,-1.92 m 15.36,1.28 v 1.28 h -1.28 v -1.28 h 1.28 m 54.40001,0 c 8.43776,7.89376 4.048,14.59264 3.2,24.32 -5.78496,-4.05952 -5.98208,-18.43456 -3.2,-24.32 M 257.92001,160 v 1.28 h -1.28 V 160 h 1.28 m -171.520005,1.28 c 2.60416,3.44 12.40512,6.12864 16.640005,7.04 v -0.64 l -16.640005,-6.4 m 157.866885,0.21312 0.42624,0.21376 -0.42624,-0.21376 m 11.52,0.21376 -0.21376,0.42624 0.21376,-0.42624 M 303.36002,161.28 c 3.23584,4.5984 4.42624,10.4544 3.84,16 -4.82432,-3.16288 -8.13568,-11.06048 -3.84,-16 m -236.800016,0.64 -4.480001,5.76 c 2.83584,-0.46784 4.920961,-2.79616 4.480001,-5.76 m 174.720006,0 c 0.95808,8.3584 -9.30752,7.56672 -10.88,15.36 -6.85376,-5.24096 7.51296,-11.70048 9.6,-15.36 h 1.28 m 78.72001,0.64 1.92,4.48 h -0.64 l -1.28,-4.48 m 210.56001,0.64 c 0,5.15008 1.04832,10.77888 -5.76,8.32 l 4.48,-8.32 h 1.28 m -413.44002,3.84 -0.64,0.64 0.64,-0.64 m -36.480006,1.92 v 0.64 l 16.640001,7.68 c -3.15392,-4.03072 -11.40096,-9.74272 -16.640001,-8.32 m 241.280016,-0.64 c 3.97888,5.3472 0.6912,12.59712 0.24576,18.56 -0.4896,6.56192 2.98624,12.5664 2.9536,19.20001 -0.023,4.79296 -3.4016,8.256 -3.63584,12.8 -0.28224,5.4784 4.56448,7.95008 2.99648,14.08 l 0.64,0.64 c 6.3744,-0.24512 1.0624,7.62944 -0.64,2.56 h -0.64 c 1.3568,6.4864 5.03424,0.62976 7.68,-1.28 -0.0422,5.13024 -1.03104,10.42688 -7.04,10.88 v 0.64 c 6.00128,0.4352 5.0368,-3.71584 8.96,-6.4 l 12.8,27.52 c 5.47776,0.25408 14.87488,6.832 5.76,10.24 l -8.3104,-5.83872 -5.7696,-6.96128 c 0.78336,7.07456 21.03936,16.64704 7.67744,22.1824 -1.62624,0.67328 -3.42528,1.0208 -5.11744,1.4976 l -0.64,-0.64 c 2.98304,-7.32416 -0.68672,-13.6128 -7.68,-17.28 1.72864,3.47008 5.63008,6.06272 6.87424,9.62496 1.83872,5.26592 -5.37984,9.65632 -9.03808,5.40608 -1.67296,-1.94368 0.17792,-4.5152 0.0403,-6.71104 -0.28544,-4.55296 -3.42528,-8.60224 -3.63648,-13.44 h -0.64 c -0.008,2.75136 -2.25152,13.45536 -6.60608,7.53088 -1.75296,-2.38528 -0.86976,-6.64768 -1.07392,-9.45088 h -0.64 l -1.28,7.68 h -0.64 c -2.368,-5.32928 -1.81248,-18.75776 2.56,-23.04 l 7.68,14.72 c -2.29632,-4.36544 -9.6416,-14.49856 -3.84,-17.92 -2.95936,-4.4576 -5.82464,-5.83168 -9.6,-1.28 l 5.76,-1.92 -1.92,6.4 c -9.41888,-0.9888 -7.9072,-10.56576 -7.04,-17.28 h -0.64 l -1.28,7.68 c -1.72096,-1.504 -1.50784,-4.27008 -0.86464,-6.4 0.96704,-3.20192 3.93088,-5.1936 4.92736,-8.3296 1.6544,-5.20896 -2.01728,-13.85664 2.97728,-17.2704 l 2.15232,19.1904 -4.71232,14.0896 h 0.64 l 4.48,-11.52 v 10.24 h 0.64 l 1.12128,-11.52 -2.7968,-20.0864 5.2192,-12.55361 -2.34496,-8.32 3.28128,-17.92 m 195.20001,1.28 c -0.40896,1.0688 -0.77184,2.11904 -1.104,3.216 -2.36864,7.82016 4.23232,3.76576 1.104,-3.216 m -378.24002,87.04001 9.6,5.12 3.2,-2.56 c 0.71872,3.1328 2.25152,6.10688 5.12,7.68 0.17024,8.90496 10.60224,15.7728 16.64,20.8576 10.6048,8.93184 23.75424,13.57248 34.52544,22.40256 5.6352,4.62016 6.992,12.304 11.99488,17.17888 1.99872,1.94752 5.3952,1.49504 7.87968,2.39936 3.61536,1.31648 6.1952,4.064 9.6,5.6416 3.50016,-6.42496 1.7728,-13.99296 2.15936,-21.12 0.16832,-3.10208 1.01824,-6.69312 -1.32928,-9.28128 -5.45088,-6.00832 -15.54624,-4.5952 -22.59008,-6.33344 -8.3744,-2.06656 -16.04224,-7.86944 -24.32,-9.34528 l 10.88,-16 c -3.29408,0.95424 -5.44448,4.09088 -8.96,4.69504 -4.51008,0.7744 -7.88224,-2.13248 -5.43424,-6.61376 0.84736,-1.55072 1.99104,-2.944 2.87424,-4.48128 l -7.68,-1.92 v 1.28 c 7.36448,3.06624 -4.21504,13.49696 6.4,14.08 -1.39072,8.71872 -9.37088,0.29696 -12.52864,-3.20704 -4.64384,-5.15328 -9.54432,-9.51168 -13.20576,-15.53536 -3.25312,-5.35296 -6.71488,-15.02528 -12.0256,-18.3776 1.4496,-2.88576 -2.18304,-6.9088 -3.56864,-9.6 -4.4544,-8.65088 -8.99584,-17.088 -13.71136,-25.6 6.70528,-0.44544 19.06688,-8.97089 23.38048,-14.09217 2.85248,-3.3856 3.9776,-7.98592 7.33952,-10.86784 0.62144,4.81216 2.26624,9.45856 -0.17856,14.08 -1.56864,2.9664 -4.9088,5.00609 -5.83552,8.32001 -1.056,3.7792 0.89408,9.9648 0.89408,14.08 l 3.2,1.28 -1.79328,-13.3312 7.55328,-14.82881 16.64,8.96001 c -2.43136,-6.00193 -17.008,-7.66593 -14.72,-14.08001 l -3.84,-5.76 8.32,0.64 v -0.64 l -7.68,-1.28 c 1.33696,-4.3616 5.70688,-1.88864 8.96,-0.8576 6.71424,2.128 20.1408,5.3728 23.04,12.3776 l -0.64,0.64 -7.68,-3.84 7.68,7.04 -0.64,0.64 -4.48,-1.92 4.48,2.56 c -1.57824,4.85121 -4.75072,8.69057 -6.3424,13.44001 -2.38976,7.13216 -0.3744,14.9472 2.20352,21.76 2.096,5.5392 5.80096,9.65376 8.52992,14.72 1.47392,2.736 0.98752,6.02176 3.25248,8.36608 3.61536,3.74208 12.39744,3.2928 13.4464,9.44768 0.8096,4.75008 -4.21056,5.97888 -6.36992,9.06624 l 8.32,-2.56 c 1.10912,4.60544 0.94976,7.74144 -0.64,12.16 h -0.64 c 0.5248,-3.3568 -0.1568,-8.32384 -3.2,-10.24 l 0.64,12.8 c 6.1216,-1.81952 10.3776,-12.0032 3.84,-16 l 0.64,-7.04 -2.76288,-4.33408 -13.87712,-6.54592 c 3.2256,-0.6912 1.73504,-5.3664 0.23104,-7.43104 -6.54208,-8.98048 -12.34176,-16.00896 -12.39104,-27.76896 h -0.64 v 2.56 h -0.64 c 0.79808,-5.872 5.44,-15.68832 9.6,-19.84001 0.34944,4.00513 2.04288,7.62113 2.86848,11.52001 1.56672,7.39968 0.29632,12.59264 9.93152,13.44 l -3.84,-12.8 h -0.64 l 0.64,10.24 h -2.56 l -1.74272,-14.72 -1.45728,-10.88001 c -3.30816,-0.8416 -3.32224,-3.56224 -2.56,-6.4 h 1.28 c 2.50304,4.61504 9.96416,9.2992 14.72,11.52001 0.6688,-4.34625 -5.99616,-7.53729 -8.96,-9.97505 -10.73664,-8.832 -23.28064,-12.73664 -36.48,-16.26496 v -1.28 l 15.36,-0.64 c -2.9248,-3.84192 -14.92672,-3.34848 -18.50048,-0.43648 -6.51648,5.30944 -9.52256,13.85408 -15.44704,19.52768 -6.88,6.5888 -17.29472,8.45825 -23.93408,14.80641 -3.69664,3.53536 -5.93984,13.6064 -5.82592,18.5824 0.13632,5.96928 3.0528,11.5104 4.16512,17.28 0.49344,2.55808 -0.41408,5.35232 1.05536,7.6704 1.8816,2.96832 5.64224,6.0704 9.20704,5.7696 M 82.560004,172.16 l 0.64,0.64 -0.64,-0.64 M 64.640003,176 66.560004,174.08 64.640003,176 m 416.000027,0.64 v 0.64 c 3.55072,0.49664 11.08672,-0.28992 13.44,-3.2 l -13.44,2.56 m 36.48,-1.92 -0.64,0.64 0.64,-0.64 m -417.280025,3.2 -1.28,1.28 v -1.28 h 1.28 m 395.520025,0 -12.16,4.48 c 2.54848,-0.0794 12.68288,-1.23904 12.16,-4.48 m -89.60001,1.28 1.28,5.12 -5.12,-1.92 3.84,-3.2 m -152.74689,1.06688 0.21376,0.42624 -0.21376,-0.42624 m -134.61312,0.85312 -10.7552,15.9424 -6.96896,7.12257 1.74208,6.37504 -0.65792,14.08 h 0.64 l 0.64,-3.84 c 3.80096,6.04416 7.51168,14.57024 8.16064,21.76 0.24064,2.66496 -1.34592,7.31776 -4.33664,7.97312 -2.04352,0.44864 -3.88608,-2.24384 -5.744,-2.85312 l 5.21088,6.55168 1.82912,12.64832 10.88,-4.48 v 4.48 c -8.3424,4.6912 0.55232,11.48032 5.76,13.44 l -5.76,7.68 c 4.67008,-0.055 7.24992,-3.61536 7.04,-8.32 l 2.56,-0.64 -3.84,8.32 c 5.63776,-1.8016 7.15648,-5.42912 5.76,-10.88 -2.57408,0.33088 -5.18912,1.15776 -7.6704,-0.006 -5.53152,-2.59456 -5.28192,-7.808 -0.01,-10.23424 l -5.76,-5.12 3.2,-8.32 h -0.64 c -2.15168,4.21504 -5.4976,8.46592 -9.6,10.88 -0.0742,-5.96224 -1.56608,-10.69312 5.76,-8.96 -0.51776,-2.98048 -2.3616,-3.1328 -5.12,-3.2 l 2.93888,-10.24 -9.68192,-24.2944 1.50144,-5.84512 -3.7184,-7.62048 c 6.42816,-1.67808 10.39104,-9.09505 14.25984,-14.08001 1.90208,-2.4512 4.29888,-5.32864 2.38016,-8.32 m -24.320005,1.49312 c 0.49472,0 0.1024,0.31872 -0.21312,0.21376 l 0.21312,-0.21376 m 15.146885,0.21376 -0.21376,0.42624 0.21376,-0.42624 M 251.52001,182.4 l -1.28,2.56 h 0.64 l 0.64,-2.56 m 243.84002,4.48 v 0.64 l 14.08,-4.48 -14.08,3.84 m -325.76002,-3.84 c 2.69504,3.34848 12.3904,6.8608 16.64,7.68 v -0.64 l -16.64,-7.04 m 8.96,0 0.64,0.64 -0.64,-0.64 m 176.00001,8.32 1.92,-6.4 v -1.28 c -5.72224,-1.20256 -5.91168,5.09504 -1.92,7.68 m 46.72,-8.32 3.84,5.76 -3.84,-2.56 8.96,8.96 -0.64,9.60001 -4.48,-3.2 5.76,7.68 c -8.624,-2.2368 -19.64992,-11.31073 -19.84,-20.48001 h 0.64 c 2.35136,5.11872 8.22272,9.0304 12.8,12.16001 -3.25568,-3.50337 -10.10432,-7.35233 -10.88,-12.16001 l 5.76,1.92 -3.2,-2.56 1.28,-3.2 3.2,1.28 0.64,-3.2 m 79.14689,1.06688 -0.21376,0.42624 0.21376,-0.42624 M 181.12001,184.32 v 0.64 l 4.48,1.28 -4.48,-1.92 m 67.84,0.64 -4.48,5.12 c 2.1984,-1.02848 4.53504,-2.51264 4.48,-5.12 m 248.32002,5.76 v 0.64 c 4.6368,-0.8736 10.58688,-1.744 14.08,-5.12 l -14.08,4.48 m -311.04002,-4.48 v 0.64 l 3.2,1.28 v -0.64 l -3.2,-1.28 m 44.8,1.28 v 1.92 l -5.12,-0.64 5.12,-1.28 m 85.12001,0 c -6.4e-4,6.08384 -0.21568,14.91713 -5.12,19.20001 -1.7344,-7.28449 1.90144,-12.46785 3.84,-19.20001 h 1.28 m -144.00001,0.64 v 0.64 l 17.28,8.96 v -0.64 l -17.28,-8.96 m 145.28001,0.64 c 2.49984,3.65888 1.91424,11.03936 -1.28,14.08001 l 1.28,-14.08001 m 188.16001,3.84 v 0.64 l 5.12,-1.28 -10.88,9.60001 c 4.3104,-2.22657 13.67488,-7.03425 14.08,-12.16001 l -8.32,3.2 m -261.76002,-1.92 -0.64,3.2 h 0.64 v -3.2 m 282.24002,0 2.56,2.56 -2.56,-2.56 m -462.720027,0.64 -0.64,0.64 v 1.28 l 10.880001,5.12 -10.240001,-7.04 m 125.226887,0.21312 0.42624,0.21376 -0.42624,-0.21376 M 400.00002,191.36 V 192 l 3.84,1.92 v -0.64 l -3.84,-1.92 m 87.04001,3.2 v 0.64 l 7.04,-3.2 -7.04,2.56 m -296.96002,-1.92 0.64,0.64 -0.64,-0.64 m 172.16001,0 c -0.71424,2.90048 -2.38208,7.33952 -1.34592,10.24001 0.84672,2.368 3.09056,3.90912 3.70304,6.4 1.92384,7.82784 1.87328,15.7568 4.45056,23.68 1.52448,4.6848 -0.40896,8.61056 4.07232,12.16 -3.15392,-10.9536 -8.12992,-26.27072 -5.76,-37.76 -6.84928,-4.92992 -2.62336,-8.20609 -3.84,-14.72001 h -1.28 m 28.16,0.64 3.2,8.96001 -0.64,-3.20001 c 6.31936,2.13121 11.83168,12.08449 18.56,11.52001 l 1.28,6.4 c -5.29728,-1.9424 -15.62176,-7.98528 -18.56,-12.8 h -0.64 l 1.92,5.12 c 3.65248,-0.6016 6.66688,2.09728 9.6,4.05312 2.74624,1.83168 7.67744,4.144 9.39648,7.00224 4.66752,7.75872 1.27616,19.48928 5.95584,27.2352 1.48032,2.44992 4.35584,3.71968 6.13952,5.92704 1.65824,2.05248 1.86816,4.83008 3.66208,6.7744 1.53408,1.66208 4.4416,2.82112 4.79104,5.32736 0.52096,3.74144 -5.7568,5.21536 -8.18496,3.84064 -2.82112,2.44352 -5.50912,1.55264 -8.96,1.28 l -1.92,-20.48 h -0.64 l -4.48,8.32 -16.64,-10.88 c 4.4384,6.17024 14.1952,8.58816 15.75936,16.64064 1.12192,5.776 1.52128,13.35616 0.68864,19.19936 -1.2992,9.11616 -4.37248,18.3904 2.752,25.6 v 0.64 c -18.88768,13.48864 -43.71968,13.44512 -65.92,15.46816 -5.7088,0.52032 -11.55072,0.80704 -17.28,0.81408 -1.64288,0.002 -3.93728,0.76608 -5.38368,-0.30272 -2.48128,-1.83296 -2.87616,-8.06208 -3.80352,-10.85952 -1.23712,-3.73184 -3.31264,-8.21312 -3.47264,-12.16 -0.12352,-3.05024 1.47136,-5.8944 1.39712,-8.96 -0.12608,-5.22112 -1.33952,-11.5968 -0.25728,-16.64 2.98944,1.30624 4.96768,-0.736 7.68,-1.92 2.89408,4.78528 -1.75872,10.40832 3.84,13.44 l -6.4,8.96 25.6,-9.6 c -6.4e-4,4.3328 0.0166,7.7728 -4.48,9.6 v -7.04 l -6.4,10.88 c 11.84384,-2.70848 13.8432,-10.52416 13.44,-21.76 3.98336,1.40032 2.69632,6.8512 2.56,10.24 5.95136,-3.51488 8.42816,-10.62144 3.2,-16 0.64448,-5.712 -4.85568,-7.83296 -9.6,-8.96 -1.42016,-10.53952 -13.9584,-18.5568 -14.72,-29.44 11.83424,-1.84704 5.80416,-10.69568 4.70016,-17.92 -0.47552,-3.1136 0.88896,-10.01088 2.54272,-12.70464 2.42816,-3.95392 11.12704,-0.41664 15.15712,-1.37536 l 1.92,1.92 5.02016,22.4 2.20864,12.8 4.08064,10.24 2.77056,32.64 3.2,-3.84 c 7.23904,3.56096 1.07328,7.29984 2.62336,12.16 2.07232,6.49664 15.26208,12.55232 21.63392,9.85408 4.71744,-1.99808 1.56736,-13.27616 -0.91776,-16.04608 -3.76192,-4.192 -8.1472,-9.59936 -10.1536,-14.9376 -1.0912,-2.90368 -0.14912,-6.55872 -0.32192,-9.5904 -0.40256,-7.04768 -1.02528,-14.0512 -1.3696,-21.12 -0.18176,-3.728 -1.87456,-7.12256 -2.05504,-10.88 -0.43968,-9.15904 0.4064,-18.96 0.80064,-28.16 3.27872,2.16576 4.59072,7.98464 6.12864,11.52 4.208,9.67424 8.6368,19.4368 12.00448,29.44 1.3984,4.15488 2.22912,11.776 6.18688,14.08 -1.45408,-16.65408 -12.34112,-31.52384 -18.1216,-46.72 -1.5296,-4.02112 -6.48128,-14.00641 -1.0784,-16.00001 m -146.56001,1.28 v 3.84 h 0.64 l -0.64,-3.84 m 160.64001,0 3.2,2.56 v -0.64 l -3.2,-1.92 m 92.16001,1.28 v 0.64 l 4.48,-1.28 -4.48,0.64 M 293.76002,195.2 c 1.00608,6.32449 -2.32768,11.04321 -4.4864,16.64001 -1.07456,2.78528 -0.81664,5.82016 -2.5536,8.32 -3.91936,-9.10912 1.47584,-17.60768 7.04,-24.96001 m 193.92001,5.76001 8.32,-4.48001 -8.32,4.48001 m 20.48,0 5.76,-3.20001 c -2.608,-0.63104 -4.47872,1.03936 -5.76,3.20001 M 200.32001,197.76 l -0.64,0.64 0.64,-0.64 m -125.440006,0.64 3.2,1.92 v -0.64 l -3.2,-1.28 m -15.360001,0.64 -0.64,2.56001 16.640001,5.76 L 59.520003,199.04 m 110.080007,1.28 -1.32608,12.16001 7.42656,10.24 11.0144,26.88 5.28512,9.6 -8.90496,-22.4 -6.27776,-17.16864 -6.09856,-6.53888 -1.11872,-12.77249 m 234.88001,0.64001 0.64,0.64 -0.64,-0.64 m 101.76001,4.48 8.96,-4.48 -8.96,4.48 m -320.00002,-3.84 5.76,5.12 v -0.64 l -5.76,-4.48 m 304.64002,13.44 13.44,-12.16 c -5.37984,2.06976 -10.42304,7.34016 -13.44,12.16 m -314.24002,-11.52 0.64,0.64 -0.64,-0.64 m 312.96002,5.76 6.4,-5.12 -6.4,5.12 m 15.36,-3.2 -1.92,2.56 1.92,-2.56 m -448.000027,0.64 c -0.618112,4.23296 13.250561,7.35424 17.280001,8.32 l -17.280001,-8.32 m 273.920017,0 c -0.49536,6.06272 -3.69152,10.77312 1.92,15.36 l -1.92,-15.36 m -101.12001,2.77312 c 0.49472,0 0.1024,0.31872 -0.21312,0.21376 l 0.21312,-0.21376 m -96.64,0.42688 c 4.2368,7.73568 7.63264,15.94944 11.80096,23.68 1.5744,2.91904 2.77632,6.63488 6.11904,7.68 v 0.64 l -1.28,0.64 3.2,2.56 c -1.45728,5.51424 6.89728,14.16128 9.8624,18.55936 6.6368,9.84512 15.95392,20.09472 26.1696,26.34752 9.47072,5.79712 21.2192,7.6 30.528,13.33312 l -1.28,1.92 c 9.18144,3.76704 12.06336,9.9616 19.2,16 -0.54592,3.43104 0.98688,7.00416 -2.56,8.96 -4.40192,-8.69888 -5.6384,-17.13536 -15.36,-21.76 6.18688,6.05952 11.22112,11.5936 12.8,20.48 -4.99072,-1.34272 -4.80256,-6.20416 -6.92544,-10.2304 -1.9808,-3.75744 -5.41952,-6.71424 -9.07456,-8.77184 -16.9056,-9.51424 -36.08704,-17.46624 -49.8624,-31.58272 -10.22144,-10.47424 -17.2352,-24.82752 -23.79072,-37.73504 -4.32704,-8.5184 -15.80416,-20.78912 -10.82688,-30.72 h 1.28 m 263.04001,0 0.64,0.64 -0.64,-0.64 m 103.04001,0.64 -6.4,8.32 c 2.51008,-1.4752 6.46656,-5.3216 6.4,-8.32 m -420.693146,1.70688 -0.21376,0.42624 0.21376,-0.42624 m 318.293136,-0.42688 1.92,4.48 h 1.28 l 0.64,-0.64 v -1.28 l -3.84,-2.56 m -319.573136,3.62688 -0.21376,0.42624 0.21376,-0.42624 m 160.853126,-0.42688 v 1.92 l -1.28,-0.64 v -0.64 l 1.28,-0.64 m 163.20001,0.64 8.32,5.76 -8.32,-5.76 m -1.70688,1.70688 0.21376,0.42624 -0.21376,-0.42624 m -233.17313,4.69312 c -2.62976,6.41088 -2.78912,12.68736 5.76,13.44 -1.7024,3.2576 -4.81792,4.144 -8.32,3.84 l 3.84,3.2 v -2.56 h 0.64 c 0.45696,2.86656 1.80992,3.63328 4.48,4.48 -1.66016,5.23648 -1.69088,8.26432 4.48,8.32 v 3.2 l 2.56,-3.84 c -5.5168,-2.46336 -7.35488,-7.01312 -0.64,-10.24 v -0.64 h -2.56 c 2.1248,-3.9808 0.70336,-7.3664 0,-11.52 l -5.12,3.2 3.2,-11.52 -5.76,12.16 h -0.64 c -2.44992,-5.34464 0.0365,-7.82272 1.92,-12.8 -2.8576,-1.7984 -8.38528,-1.46688 -3.84,1.28 m 71.68,-3.2 c 0.032,1.96992 -0.19008,3.57504 1.92,3.84 1.04,2.75264 2.9536,3.83424 5.76,4.48 l 0.64,-3.2 c -3.9424,-0.0576 -5.82336,-2.38592 -8.32,-5.12 m -108.8,0.64 c 2.064,8.68992 8.43264,18.0448 13.14112,25.6 2.7264,4.3744 6.76416,8.1152 7.33888,13.44 -5.664,-1.60768 -12.98112,-1.90976 -16.63424,-7.22496 -2.65088,-3.85728 -0.78464,-12.89856 -5.76576,-14.53504 l 0.64,-17.28 h 1.28 m 181.12001,0.64 -5.76,14.08 h -0.64 c -1.69664,-5.7536 1.83296,-9.7024 5.12,-14.08 h 1.28 m 90.24,0 c 0.82112,3.54688 1.86816,7.61088 5.12,9.6 l -5.12,-9.6 m 10.24,1.92 1.92,1.28 -1.92,-1.28 m 104.32001,1.92 1.28,2.56 h 0.64 c 4.07104,-2.35392 10.88256,-0.46336 15.36,-0.1184 10.1984,0.78528 21.06688,0.1184 31.36,0.1184 v -4.48 c -15.92256,0.0883 -33.03168,-1.80608 -48.64,1.92 m -230.40001,-1.28 c 1.99936,3.59296 -2.24832,5.52768 -3.93089,8.32256 -1.24544,2.06848 -1.39008,4.70784 -1.82912,7.03744 -10.28864,-5.91744 1.91424,-10.71872 5.76001,-15.36 m 48,0 c 0.76736,4.39872 -0.9952,6.42688 -3.84,9.6 l 1.92,0.64 c 2.76736,-3.5392 5.9072,-6.24 1.92,-10.24 m -240.640015,0.64 -0.64,2.56 8.32,0.64 c -2.89856,9.0656 -1.17696,10.92672 7.680005,13.44 l -3.84,6.4 c 8.36736,-3.3472 3.23264,-9.86624 0.64,-16 h -0.64 l 0.64,5.76 c -7.191045,-0.81088 -1.7312,-6.82368 -0.64,-10.88 l -11.520005,-1.92 m 433.280025,0 v 1.28 h -1.28 v -1.28 h 1.28 m -473.600027,0.64 5.76,4.76928 16.640001,8.67072 c -3.4336,-5.35296 -16.277313,-11.89952 -22.400001,-13.44 m 203.520007,0 c 0.20032,6.1856 -5.56416,2.4256 -8.96,1.92 v 1.92 h 2.56 l 1.97632,9.59744 -7.09632,7.68256 h 4.48 l -1.28,0.64 v -0.64 l 5.12,-6.4 5.12,1.28 0.64,-0.64 -6.4,-7.68 c 2.24512,1.2352 5.03808,2.928 7.04,0.64 l -7.68,-1.92 v -1.28 c 3.06176,-0.73152 8.44864,-1.18848 4.48,-5.12 m 253.44002,1.92 -0.64,0.64 0.64,-0.64 m -288.64002,1.28 v 0.64 l 1.92,1.92 h 0.64 l -2.56,-2.56 m 88.96001,1.28 v 1.92 h 0.64 l 0.64,-1.92 h -1.28 m -74.88001,0.64 -0.64,0.64 0.64,-0.64 m -10.88,0.64 1.28,1.28 -1.28,-1.28 m 182.40001,1.28 v 1.28 h 1.28 l -1.28,-1.28 m 93.01313,1.06688 0.21376,0.42624 -0.21376,-0.42624 m -322.77314,0.21312 c 0.55104,4.36288 -1.78752,15.82912 -7.04,7.68 3.8848,-1.10336 4.6272,-4.14592 5.76,-7.68 h 1.28 m 334.08002,0 3.2,2.56 -1.28,2.56 0.64,2.56 -5.12,-3.2 2.56,4.48 -4.48,-2.56 c 2.50176,8.32256 9.45536,2.3008 9.6,-3.84 l -5.12,-2.56 m -219.52001,0.64 -1.28,1.92 1.28,-1.92 m 209.28001,1.28 1.28,3.2 3.2,-0.64 -0.64,-2.56 h -3.84 m 6.61312,1.06688 0.21376,0.42624 -0.21376,-0.42624 m 2.98688,-0.42688 1.92,1.92 -1.92,-1.92 m -224.00001,1.28 0.64,1.92 h -1.28 l 2.56,1.92 0.64,-4.48 -2.56,0.64 m -206.080016,0 c -0.12096,4.07936 -2.43264,7.34912 -2.05952,11.52256 0.77376,8.6656 4.86272,21.872 9.204481,29.39968 1.1392,1.97568 3.43616,2.29504 4.67648,4.07808 4.69952,6.75776 7.584,14.34304 12.841605,20.91968 3.81504,4.77248 6.8352,12.61888 12.45696,15.36 -2.82624,-6.3424 -8.3264,-11.56864 -12.224,-17.28 -4.419845,-6.47744 -7.265285,-13.94688 -11.592325,-20.39488 -1.36832,-2.0384 -3.91936,-2.47296 -5.11872,-4.65024 -5.624961,-10.21248 -6.526081,-22.05248 -8.824961,-33.19488 l 4.48,7.68 c -0.03392,6.55168 6.538241,16.336 10.133761,21.76 9.116165,13.75296 17.761925,27.75552 27.726085,40.9504 3.41184,4.5184 9.86176,7.89696 11.42016,13.4496 l -3.2,0.64 v 0.64 c 10.44736,0.006 21.66784,1.71392 31.36,5.76 v 0.64 c -3.5872,-0.92864 -9.73888,-3.82016 -12.8,-1.28 6.31168,0.51648 14.63488,2.09728 19.84,5.76 0.94912,-4.33792 15.21984,3.91232 17.92,5.26208 13.32928,6.66496 29.06176,8.63552 42.88,14.16896 6.2528,2.50432 13.05728,2.89152 15.36,10.00896 l -8.96,-4.48 5.76,5.76 -5.76,-2.56 c 3.0688,2.68096 8.32,5.71072 7.68,10.24 l -9.6,-6.04672 -15.36,-4.19328 c 1.7152,3.27872 9.3184,6.91776 12.8,5.12 4.43328,1.10848 8.26432,3.44704 10.24,7.68 l -5.12,-0.64 1.92,1.92 v 1.28 c -2.61696,0.36992 -3.74656,-0.81536 -5.76,-2.43584 -3.73568,-3.00608 -14.49152,-5.9264 -14.72,-11.00416 l -18.56,-10.88 -0.64,1.92 14.08,8.32 c -8.4064,0.4928 -16.98496,-6.80128 -23.6896,-11.00096 -4.46336,-2.79616 -9.42464,-4.71168 -14.06976,-7.19296 -3.4912,-1.86496 -7.7856,-5.46944 -8.96064,-9.32608 l 3.84,-1.28 -12.16,-1.92 v 0.64 l 6.4,1.92 v 0.64 h -3.2 c 3.31456,3.81824 7.4912,6.45504 10.18048,10.88 2.69184,4.43008 3.232,9.82464 5.91168,14.0704 1.82144,2.88704 5.17376,4.48832 6.94208,7.2896 5.50272,8.71616 0.15232,16.7424 -7.67424,20.24 l -0.64,-2.56 c 5.8368,-2.6336 7.60128,-12.53568 1.1968,-16.18624 -4.65536,-2.65344 -9.4464,-3.80096 -13.9392,-7.08352 -4.62208,-3.376 -7.7216,-8.40512 -13.4976,-10.13824 -5.02784,-1.50848 -11.42528,-0.512 -16.64,-0.512 v 1.92 c 12.2912,0 18.98496,0.49664 27.9456,9.75488 1.35936,1.40416 3.69088,2.64192 4.49408,4.45888 1.30944,2.96384 -0.30528,7.61728 -0.43968,10.74624 -2.23872,1.23392 -2.48,2.63808 -2.56,5.12 h -1.28 v -2.56 h -3.84 c 1.3856,-3.13344 5.0336,-7.60448 3.12512,-11.312 -1.4336,-2.78528 -5.39904,-4.832 -7.47072,-7.248 -2.31424,-2.69824 -3.40288,-5.79968 -7.17696,-6.63424 -12.69632,-2.8064 -25.24288,0.34368 -37.75744,1.96928 -4.86464,0.63168 -9.838725,-0.10432 -14.720005,0.18496 l 0.64,-9.6 c -4.49728,2.74112 -2.99392,10.16192 -3.84,14.72 -13.265281,-1.1584 -21.180161,-9.13472 -35.200002,-4.48 l 3.84,-5.76 -5.76,-0.64 v 0.64 l 3.2,0.64 v 1.28 c -4.762816,2.1632 -5.428608,-3.09184 -1.702208,-5.0624 2.70976,-1.43296 5.999424,0.0934 8.742208,0.64448 3.2224,0.64768 6.380801,0.0806 9.600001,1.07328 3.57824,1.10272 6.49152,3.39968 10.24,3.98464 v -0.64 l -4.48,-3.2 6.4,-3.2 -9.6,2.56 1.92,-2.56 -1.92,1.28 h -0.64 c -5.05856,-4.55104 -11.715329,-7.66592 -18.560001,-6.4 l 1.28,-2.56 -7.04,-0.64 v -1.28 h 7.04 l -5.12,-2.56 17.280001,1.92 2.56,7.68 h 0.64 l 1.28,-1.92 3.2,3.2 2.56,-12.8 -4.48,10.88 c -6.61632,-9.21216 -8.2304,-20.55744 -15.756033,-29.42784 -4.178048,-4.92416 -11.377024,-0.67456 -13.683969,-7.69216 l 7.680001,1.28 c -1.589248,-5.03168 -10.702657,-1.67552 -11.570369,-7.06624 -0.38464,-2.38976 4.942272,-3.07392 6.450369,-3.6288 3.23168,-1.18784 5.690368,-4.32384 8.96,-5.09888 3.236224,-0.76736 6.987776,0.81536 10.240001,1.07392 l 0.64,6.4 c 0.1568,-6.47616 4.76352,-7.5392 10.24,-8.96 0.91072,5.47264 -0.94784,11.18656 -7.04,11.52 l 0.64,1.92 c 3.8208,-0.64 4.8256,2.50112 7.04,5.12 l -2.56,-7.04 8.32,7.68 -5.76,-10.24 c 7.503361,5.75552 12.130561,13.8432 21.144961,18.10688 3.862405,1.8272 8.076805,1.46816 12.144645,2.30592 3.53216,0.72768 9.7024,2.85888 12.7904,0.7072 l 5.12,-1.28 c -19.91936,0 -49.936646,-5.9744 -49.920006,-30.72 l -8.32,2.56 v -7.68 l -4.48,1.28 -0.13184,-14.08 4.94592,-16.64 1.68448,-15.97504 6.30144,-7.70496 m 143.360006,0.64 -3.2,1.92 1.92,-0.64 v -0.64 h -1.28 l 2.56,-0.64 m -173.440007,2.56 0.64,1.92 1.92,-1.28 -2.56,-0.64 m 3.2,1.28 0.64,0.64 -0.64,-0.64 m 46.080002,0 2.560005,6.4 -2.560005,-6.4 m 207.360015,0 1.28,7.68 h 0.64 l 0.64,-1.92 c 4.68096,2.41536 1.456,7.74528 0,11.52 h 0.64 l 3.2,-8.32 c 6.5184,2.62016 0.22784,12.03008 -5.12,12.16 l -5.04512,-10.88 3.76512,-10.24 m -252.160017,0.64 v 0.64 l 2.56,0.64 v -0.64 l -2.56,-0.64 m 183.040007,0 -1.92,5.12 1.92,-5.12 m -178.773319,2.13312 0.426624,0.21376 -0.426624,-0.21376 m 121.813319,0.42688 c -2.84672,5.15968 -0.26752,7.5648 5.12,7.68 -1.3312,-1.99488 -2.88448,-1.53728 -5.12,-1.28 v -6.4 m 59.52,1.28 0.64,2.56 -2.56,-0.64 v -1.28 l 0.64,-0.64 h 1.28 m -190.720007,3.2 v 3.2 l 18.560001,6.4 c -2.727041,-5.32096 -13.172545,-7.64224 -18.560001,-9.6 m 258.560017,1.28 -1.28,4.48 1.28,-4.48 m -198.40001,2.56 -0.64,0.64 0.64,-0.64 m 74.88,0 -2.56,7.68 c 2.29312,-1.90336 3.6128,-4.74368 2.56,-7.68 m 16,0.64 1.28,1.28 v -1.28 h -1.28 m -68.48,2.56 c 0.1472,2.82624 0.65024,4.94784 3.2,6.4 l -0.64,1.92 c 11.95776,0.8672 10.40064,15.09312 -1.92,12.16 2.17792,4.43392 5.4784,3.84576 9.6,2.56 v 3.84 l 2.56,-0.64 c 1.4944,1.49824 3.07648,0.0358 3.26528,-1.93216 0.3648,-3.80736 -1.6896,-6.33344 -0.0653,-10.22784 l -4.48,-5.12 -1.92,0.64 -9.6,-9.6 m 44.8,0 -2.56,7.04 9.6,1.92 -0.64,-1.92 5.12,-2.56 c -4.71488,0.69376 -7.92256,2.46208 -12.16,-0.64 v -0.64 l 0.64,-3.2 m 23.68,0 c 0.2816,8.68224 19.79136,15.43552 5.11744,21.47648 -1.7152,0.70592 -3.28384,0.87936 -5.11744,0.92352 v 0.64 c 8.17536,1.94752 8.03648,3.5392 5.76,11.52 10.15872,-1.50144 7.70176,-7.00224 7.17568,-14.72 -0.23296,-3.42208 0.49024,-7.06944 -1.8816,-10.02048 -3.36064,-4.18112 -8.42496,-3.62176 -9.77408,-9.81952 h -1.28 m -166.400008,3.84 12.8,-1.28 c -3.26592,-2.48704 -10.354112,-2.28992 -12.8,1.28 m 14.080001,-2.56 c 2.014784,2.85248 14.807744,5.7312 18.560001,6.4 -4.462273,-5.20576 -12.131649,-5.89248 -18.560001,-6.4 m 366.720017,0.64 c 1.27104,3.74656 3.90592,11.32032 0,14.08 l -2.56,-12.8 2.56,-1.28 m -387.200019,2.56 3.840001,-0.64 -3.840001,0.64 m 106.240009,-1.28 -0.64,0.64 0.64,-0.64 m -7.04,1.28 1.28,7.04 6.4,7.68 -6.4,-14.72 h -1.28 m 69.12,1.28 1.28,2.56 -1.28,-2.56 m 158.29313,0.42688 0.21376,0.42624 -0.21376,-0.42624 m -204.37313,0.85312 -0.64,18.56 3.2,-1.28 -1.92,-14.08 h 1.28 c 1.77088,5.60768 2.94592,7.58592 1.28,13.44 6.11328,-3.81568 0.9728,-12.34752 -1.92,-16.64 h -1.28 m 168.96001,0 0.64,0.64 -0.64,-0.64 m -301.440019,5.76 c 10.739968,-2.5568 23.659265,-1.62048 34.560002,-0.53056 4.249792,0.42432 8.69056,3.4432 12.8,2.45056 -7.917184,-6.81088 -26.554177,-6.89728 -36.480002,-5.3824 -3.769536,0.57472 -8.728256,-0.2336 -10.88,3.4624 m 235.520009,-2.56 2.56,-1.92 -2.56,1.92 m 70.40001,-1.92 -0.64,1.92 h 0.64 v -1.92 m -127.36001,1.92 7.04,5.76 c -1.15584,-2.57728 -3.79008,-7.31712 -7.04,-5.76 m -162.346696,3.62688 0.213376,0.42624 -0.213376,-0.42624 m 2.773376,-0.21376 0.426624,0.21376 -0.426624,-0.21376 m 108.8002,0.85376 -0.21376,0.42624 0.21376,-0.42624 M 10.880001,284.16001 c 17.749953,-8.49088 31.716225,-10.79552 51.200002,-8.32 -2.697664,-3.66336 -9.326144,-3.2 -13.44,-3.2 -10.639233,-6.4e-4 -32.229762,0.26944 -37.760002,11.52 m 133.760009,-8.96 0.64,4.48 -2.56,-3.84 0.64,-0.64 h 1.28 m 213.12001,1.28 c 1.03488,3.91232 2.0224,7.18848 -1.28,10.24 v -10.24 h 1.28 m -145.92001,0.64 c 0,4.53824 0.66816,8.46272 -3.84,10.88 l 1.28,-10.88 h 2.56 m -209.4933411,3.41312 0.4266624,0.21376 -0.4266624,-0.21376 m 192.2133411,0.42688 -3.2,7.68 -2.56,-1.28 c 1.5456,-3.05664 1.95584,-6.09664 5.76,-6.4 m 332.16002,7.04 1.28,17.28 -15.36,-13.44 c -0.0166,6.10752 -1.04576,11.81504 0.24,17.92 0.45952,2.17984 2.57856,5.27872 1.17568,7.4304 -1.42464,2.18496 -4.93952,2.7168 -7.17568,3.66272 -7.1552,3.02784 -14.49472,4.37696 -21.76,6.89152 -12.03072,4.16448 -22.86977,7.97952 -35.84001,8.51584 -8.25792,0.34112 -17.48224,-1.46304 -25.6,-0.0499 -5.0048,0.87104 -8.78976,4.21632 -13.44,5.80928 -6.448,2.20864 -13.37152,2.93056 -19.84,4.86016 3.4976,6.0512 6.43648,8.98048 13.44,7.68 -2.83392,4.30464 -3.92576,9.4464 -7.33952,13.41248 -2.27904,2.64832 -6.76736,3.49888 -8.38336,6.51264 -2.0736,3.86688 0.45056,12.26432 -5.39712,12.07488 0,8.18688 2.73792,13.59232 11.52,8.32 -2.46656,-6.40256 -3.25568,-14.80832 5.12,-16.64 l -3.84,10.24 c 3.00288,-1.984 3.40608,-6.10752 5.56032,-8.89088 3.19872,-4.13376 11.90976,-5.97056 16.83968,-5.18912 -5.76576,5.1392 -14.30272,3.40864 -17.28,11.52 l 2.56,3.2 h -2.56 l 0.64,3.2 -5.76,-2.56 c 1.65632,10.17728 15.89632,-0.0102 7.04,-4.48 3.99168,-5.21536 7.99744,-3.97568 13.49696,-5.86112 3.63008,-1.2448 6.47104,-5.09632 10.1856,-5.66144 9.74272,-1.48224 20.2496,3.296 30.1344,3.14496 10.72576,-0.16448 20.45953,-3.91872 30.66305,-6.3424 0,13.90016 8.97536,6.23616 17.89504,4.14144 3.23968,-0.76032 7.136,1.56672 10.01024,-0.77632 2.336,-1.90464 1.44192,-4.71296 0.89472,-7.20512 3.63968,-0.91712 12.53824,-6.6304 6.19648,-10.86208 -2.72704,-1.82016 -8.77568,-0.65792 -11.95648,-0.65792 v -0.64 l 13.44256,-7.62048 12.13248,2.4608 10.35584,-5.48864 3.10912,-5.99168 c -1.1232,-2.91648 -2.42816,-6.15104 -2.48832,-9.32864 -0.0403,-2.10624 1.25312,-3.90336 0.528,-6.03072 -1.43424,-4.20608 -6.22656,-6.11072 -7.36192,-10.24128 -2.38144,-8.66368 -1.42912,-21.52704 -13.07776,-24.31936 m -33.92,0.64 0.64,3.2 c -10.35712,1.78304 -28.33089,9.92832 -35.84001,17.28 l 0.64,0.64 c 11.68705,-6.00448 24.21185,-14.47488 37.12001,-17.28 l -2.56,-3.84 m -157.44001,1.92 c -1.45728,3.35872 -3.97504,5.20128 -7.68,5.12 2.18368,-2.25664 4.3744,-5.24864 7.68,-5.12 m -266.240016,1.28 0.64,5.76 -9.600001,-1.28 8.960001,-4.48 m 461.440026,0.64 c 4.07488,6.60352 8.7616,13.54112 6.4,21.76 l -5.12,-0.64 c -1.0432,-6.66112 -4.55424,-14.30848 -2.56,-21.12 h 1.28 m -138.88001,0.85312 c 0.49472,0 0.1024,0.31872 -0.21312,0.21376 l 0.21312,-0.21376 m -4.05312,2.13376 -0.21376,0.42624 0.21376,-0.42624 m 4.69312,0.85312 -1.92,-1.28 1.92,1.28 m 135.04001,27.52 0.64,0.64 4.48,-7.68 c 6.6176,0.004 8.78592,2.7008 12.8,7.68 v 0.64 l -0.64,4.48 -7.68,-5.12 -2.56,4.48 5.12,-1.92 0.64,2.56 -7.68,1.28 c 5.34016,4.53632 6.96192,2.90624 12.8,1.28 0.86208,4.14272 -6.032,6.41664 -1.28,8.96 -3.30048,5.64864 -12.84672,-0.21056 -17.28,-1.92 l -1.28,3.2 10.88,2.56 v 1.28 l -12.8,-1.88096 -19.2,11.48096 c -0.0986,-4.9792 -1.03424,-10.11968 -6.4,-11.52 5.69472,10.736 1.27232,14.85504 -1.28,25.6 3.27232,-0.75008 10.864,-4.11328 13.44,-1.28 h 0.64 0.64 v -1.28 l 3.2,0.64 -0.64,1.92 -2.56,-1.28 -1.92,1.28 4.48,1.28 v 0.64 l -22.4,5.12 -3.84,-19.84 -0.64,10.88 c -4.73152,-0.83584 -7.15904,1.75488 -11.52,2.84544 -6.26433,1.56672 -14.02113,2.75264 -20.48001,1.90592 -3.45152,-0.45248 -8.2912,0.51136 -9.6,-3.47136 h -1.92 v 1.92 l -17.28,-1.56864 -10.88,0.28864 c -3.81248,5.0304 -15.08352,4.28224 -20.46848,7.6832 -7.02016,4.4352 -2.48,10.20992 -3.85472,15.89888 -0.67328,2.78592 -2.89664,1.02208 -2.5568,-1.18208 l -3.84,2.56 0.64,-5.76 h 2.56 c -1.5808,-10.11264 5.744,-13.9968 11.25248,-20.5888 3.7856,-4.52992 4.2912,-11.152 8.28608,-15.82464 3.24992,-3.8016 8.6304,-4.67392 11.82144,-8.38656 -7.48672,1.33056 -21.184,15.904 -24.96,3.2 4.87424,-0.9184 10.10176,-1.42528 14.72,-3.32672 4.8704,-2.00576 11.40992,-6.58752 16.64,-6.9568 17.0816,-1.20576 33.47968,7.74848 50.56001,1.32352 l -23.68001,0.64 v -1.28 l 23.04001,-1.28 -1.92,-0.64 c 2.8256,-2.96832 8.8032,-3.4912 12.8,-3.84 v -0.64 l -3.84,0.64 c 2.0576,-2.15744 5.15648,-3.22048 7.68,-1.28 h 0.64 l 3.2,-1.28 v -1.28 l 1.92,1.28 c 3.3984,-5.36448 15.44256,-7.99104 21.12,-10.88 l -8.96,7.04 4.48,0.64 c -0.11072,-6.944 7.66784,-2.04544 10.88,-1.92 -5.41056,-5.7824 -8.08128,-13.3472 -8.99136,-21.12 -0.17792,-1.51488 -1.62816,-6.67328 0.84928,-7.09056 2.42432,-0.40832 5.23456,4.8736 6.47552,6.45056 5.12128,6.50816 10.90432,13.0432 5.50656,21.12 m -133.12001,-27.52 -0.64,0.64 0.64,-0.64 m -322.560016,8.96 3.2,-5.76 c -3.04896,0.9088 -6.1088,2.78912 -3.2,5.76 m 208.000006,-5.12 0.64,0.64 -0.64,-0.64 m 15.36001,0.64 c -0.22656,3.3792 -1.49696,5.41696 -4.48,7.04 l 1.92,-7.04 h 2.56 m -238.720017,10.88 c 1.05376,-0.33152 2.200448,-0.59136 3.12096,-1.24032 10.199361,-7.18976 -12.426816,-12.76928 -5.77728,-2.07104 0.736,1.184 1.77504,2.23552 2.65632,3.31136 m 181.120007,-2.56 -0.64,0.64 -15.36,-8.32 c 5.50528,0.0493 13.95072,1.93216 16,7.68 m -199.680008,-7.04 0.64,0.64 -0.64,-0.64 m 479.360028,0 c 0.51264,3.08416 3.95584,9.98144 7.04,10.88 -1.73568,-4.2304 -3.2256,-8.12864 -7.04,-10.88 m -459.520027,1.28 c 2.624768,1.79008 2.459328,3.44064 1.92,6.4 h -0.64 l -0.64,-1.92 h -0.64 v 2.56 l -2.56,-1.28 v -1.28 h 2.56 v -4.48 m 163.200007,0 1.28,1.92 -1.28,-1.92 m -7.68,0.64 6.4,4.48 -6.4,-4.48 m 56.32,0.64 v 0.64 c -2.61056,1.69856 -4.58048,2.7616 -7.68,1.92 2.28096,-2.13312 4.57728,-3.31584 7.68,-2.56 m -45.44,0 v 1.28 l -1.28,-1.28 h 1.28 m 1.92,0.64 c 4.79872,3.11744 10.5312,5.78752 10.88,12.16 -2.49152,-0.76672 -11.4048,-9.87008 -10.88,-12.16 m 57.60001,0.64 c -1.2736,3.74336 -3.79777,5.78304 -7.68001,6.4 1.6576,-3.61536 3.90592,-5.37024 7.68001,-6.4 m 171.30688,2.13312 0.42624,0.21376 -0.42624,-0.21376 m 39.25313,-0.21312 c -1.50336,5.06624 -8.42368,4.72576 -12.16,7.824 -11.0688,9.17824 -27.72033,9.48864 -41.60001,12.30336 -4.56896,0.92672 -10.70976,3.80672 -15.36,3.08416 -7.10848,-1.10336 -10.09728,-11.74528 -7.68,-17.45152 4.5984,1.76832 8.40128,5.5232 13.44,6.35264 16.37952,2.69504 37.43296,-4.22336 53.12001,-8.5856 3.53984,-0.98432 6.5632,-2.976 10.24,-3.52704 m -280.96002,1.28 c 7.42976,3.9744 13.03936,9.7984 13.44,18.56 -6.09408,-1.59168 -6.58688,-7.01888 -9.9296,-11.52 -1.58912,-2.13952 -4.16,-4.2144 -3.5104,-7.04 m -145.280006,1.92 1.28,4.48 h 0.64 l -1.92,-4.48 m 348.800016,0.64 c -3.17056,6.27264 -2.51136,10.12864 0,16.64 -7.31904,1.32096 -14.31296,7.39904 -21.12,10.4544 -5.93984,2.66624 -14.4256,3.90336 -19.7056,7.42592 -3.3728,2.25024 -3.1648,8.22272 -6.7104,9.89568 -4.92736,2.32512 -12.36544,2.49664 -17.744,3.58656 -14.26624,2.89024 -31.53024,7.04128 -46.08,5.11744 l 8.08448,-24.96 6.20352,-10.22144 10.032,-0.2848 26.24,-1.12256 31.36,-5.0688 12.16,-1.74656 17.28,-9.71584 m -353.706705,1.06688 0.213376,0.42624 -0.213376,-0.42624 m 9.386689,0.21312 3.84,6.4 -3.84,-6.4 m -13.440001,0.64 c 0.65248,4.35008 5.66016,10.5088 8.960001,13.44 -0.08256,-5.35296 -5.537665,-9.75424 -8.960001,-13.44 m 19.200001,1.28 7.680001,8.96 h 0.64 l -8.320001,-8.96 m -7.68,1.92 4.48,6.4 h 0.64 l -5.12,-6.4 m -4.48,0.64 0.64,0.64 -0.64,-0.64 m 0.64,1.28 1.92,3.84 h 0.64 l -2.56,-3.84 m 20.480001,1.28 4.48,5.76 -4.48,-5.76 m 140.160005,0.64 0.64,0.64 -0.64,-0.64 m -145.920006,3.2 1.28,1.92 -1.28,-1.92 m -5.76,0.64 1.28,3.84 h 0.64 l -1.92,-3.84 m 346.453136,1.06688 0.21376,0.42624 -0.21376,-0.42624 m -349.653136,0.21312 0.64,0.64 -0.64,-0.64 m 27.520001,0 2.560005,1.28 v -0.64 l -2.560005,-0.64 m 403.200025,1.28 v 0.64 l 4.48,-1.28 -4.48,0.64 m -21.12,10.24 v 0.64 c 12.464,-0.53632 24.76352,-6.31936 35.84,-11.52 l -10.88,3.584 -24.96,7.296 m -398.720026,-10.24 2.560001,3.84 -2.560001,-3.84 m 20.480006,1.28 7.68,1.28 -0.64,1.28 c 5.38816,1.46176 16.45568,3.05472 21.76,1.92 v -0.64 l -4.48,-0.64 1.92,-2.56 h -8.32 v 0.64 l 1.92,0.64 v 0.64 h -5.76 c -1.03936,-3.13216 -11.86624,-5.08032 -14.08,-2.56 m 55.68,-1.28 c 4.10304,6.512 20.22784,4.57728 26.88,5.12 -1.0816,-3.25824 -4.0224,-2.32 -6.92224,-2.34496 -6.7488,-0.0576 -13.30496,-1.91616 -19.95776,-2.77504 m 348.80002,0 0.64,0.64 -0.64,-0.64 m -7.89312,0.85312 0.42624,0.21376 -0.42624,-0.21376 m -401.066905,0.42688 v 0.64 l 7.680005,1.28 -7.680005,-1.92 m 102.400005,0 0.64,0.64 -0.64,-0.64 m 295.68002,0 0.64,0.64 -0.64,-0.64 m 6.4,0.64 v 0.64 l 2.56,-0.64 h -2.56 m -1.28,6.4 v 0.64 l 16.64,-7.04 c -4.30528,-1.1808 -12.39808,4.75392 -16.64,6.4 m -434.560026,-6.4 1.92,6.4 1.92,-0.64 -3.84,-5.76 m 5.12,0 3.2,5.76 -3.2,-5.76 m 5.12,0 3.2,4.48 -3.2,-4.48 m 52.480006,0 v 0.64 l 14.08,1.28 c -3.34976,-2.5376 -9.9424,-1.86752 -14.08,-1.92 m 371.84002,0 -1.28,0.64 v 0.64 l 1.28,-1.28 m -387.20002,0.64 -0.64,0.64 0.64,-0.64 m -23.040005,0.64 c 0.77312,3.6096 2.63936,9.66592 6.4,10.88 l -3.84,-10.24 -2.56,-0.64 m 34.560005,0 -0.64,1.28 h -0.64 l -0.64,-1.28 h 1.92 m 417.28002,0 -0.64,0.64 0.64,-0.64 m -456.960025,0.64 c 0.56768,3.792 1.76192,8.41344 5.76,9.6 l -4.48,-9.6 h -1.28 m 407.680025,0 0.64,0.64 -0.64,-0.64 m 44.8,1.92 h -3.84 v -1.92 l 3.84,1.92 m -443.520025,-1.28 6.400005,10.24 0.64,-0.64 -7.040005,-9.6 m 396.800025,0 0.64,0.64 -0.64,-0.64 m -357.12002,2.56 17.92,1.92 c -2.14848,-2.8224 -15.71328,-4.95104 -17.92,-1.92 m 376.32002,1.28 v 0.64 l 8.96,-2.56 c -2.92544,-1.78304 -6.1728,0.59456 -8.96,1.92 m -25.6,-1.92 v 0.64 h 1.92 l -1.92,-0.64 m -378.24002,0.64 c 1.62752,3.4816 3.49056,7.22496 7.04,8.96 -1.40288,-3.168 -3.59616,-7.88288 -7.04,-8.96 m 368.00002,1.92 v 0.64 l 8.96,-1.92 -8.96,1.28 m -362.88002,-1.28 c 1.472,3.49952 3.88352,7.8432 7.68,8.96 l -7.68,-8.96 m 5.12,0.64 6.4,8.96 c -0.83968,-3.33568 -2.98304,-7.80416 -6.4,-8.96 m 3.84,0 2.56,3.2 -2.56,-3.2 m 294.40001,0 v 1.92 h 0.64 l -0.64,-1.92 m -311.68001,0.64 3.84,6.4 -3.84,-6.4 m 22.4,0 7.04,8.32 -4.48,-8.32 h -2.56 m 373.12002,0 0.64,0.64 -0.64,-0.64 m 8.96,0 v 0.64 h 1.92 l -1.92,-0.64 m 10.24,0 -14.08,6.4 v 0.64 c 3.16992,-0.13824 15.0336,-2.89728 14.08,-7.04 m -387.20002,0.64 6.4,8.96 c 0.81088,-3.46752 -3.00416,-8.37824 -6.4,-8.96 m 6.4,0 4.48,11.52 3.2,-0.64 -6.4,-10.88 h -1.28 m 357.76002,0 v 1.28 h 1.92 v -1.28 h -1.92 m -2.56,3.84 v 0.64 l 14.08,-3.2 -14.08,2.56 m -347.52002,-1.92 c 1.26336,3.96544 3.8976,9.54112 8.32,10.24 l -8.32,-10.24 m 6.4,0 3.83808,6.4 10.88192,12.8 c -2.20416,-6.90432 -9.49184,-14.3136 -14.72,-19.2 m 311.68001,3.84 c 2.07552,2.90048 4.82624,0.70848 7.68001,0.26752 5.75296,-0.88896 10.832,-2.22144 16.64,-3.46752 -6.04032,-2.16576 -17.71264,2.67776 -24.32001,3.2 m -339.20001,-3.2 c 0.27264,2.99648 1.00992,4.5696 3.84,5.76 l -3.84,-5.76 m 300.80001,0.64 v 0.64 c 5.91104,1.10144 13.29856,3.66016 19.2,1.92 -5.68192,-2.5504 -13.06112,-2.56 -19.2,-2.56 m 93.65313,1.06688 0.21376,0.42624 -0.21376,-0.42624 m -345.81314,0.85312 5.12,1.92 -5.12,-1.92 m 317.44002,-0.64 0.64,0.64 -0.64,-0.64 m -45.44001,1.28 0.64,0.64 -0.64,-0.64 m -25.6,0.64 v 1.28 l 18.56,1.92 v -1.28 l -18.56,-1.92 m 31.36,0 v 1.28 l 7.04,-0.64 -7.04,-0.64 m 9.6,0 v 0.64 h 2.56 l -2.56,-0.64 m -280.32001,0.64 v 0.64 l 3.2,1.28 v -0.64 l -3.2,-1.28 m 332.16002,0.64 0.64,0.64 -0.64,-0.64 m -341.76002,0.64 v 0.64 l 20.48,10.24 c -4.5248,-5.77984 -13.35808,-9.66912 -20.48,-10.88 m 13.44,0.64 v 0.64 l 10.24,5.12 v -0.64 l -10.24,-5.12 m 255.36001,0 1.28,1.28 v -1.28 h -1.28 m -385.920017,0.64 v 1.28 h -4.48 v -1.28 h 4.48 m 389.760017,0 c 2.76672,3.91552 11.5616,3.18592 15.36,1.28 v -0.64 l -15.36,-0.64 m -244.48001,3.2 -0.64,1.92 21.12,8.96 -1.28,-1.92 14.72,4.48 v -0.64 l -19.2,-7.04 v 1.28 l -14.72,-7.04 m -91.52,1.92 1.28,1.28 v -1.28 h -1.28 m 90.88,1.92 c -0.0576,3.57952 4.02496,4.17984 7.04,4.48 v -0.64 l -7.04,-3.84 m -126.720006,0.64 -0.64,0.64 0.64,-0.64 m 448.640026,2.56 -0.64,1.92 -1.92,-0.64 3.2,2.56 v 1.28 l -6.4,-0.64 0.64,3.84 c -6.38656,-1.99936 -9.55648,-0.83712 -16,0.64 l 2.56,-2.56 c -0.42112,-7.3344 13.27552,-6.39616 18.56,-6.4 m -216.96001,9.6 c -7.87264,-2.27328 -17.52896,-0.36544 -25.60001,-0.025 -7.17696,0.30272 -14.6592,-0.99776 -21.76,-1.89504 l 8.96,-2.47104 26.88001,-3.92896 11.12448,0.65792 0.39552,7.66208 m -96.64001,-7.68 c 3.36256,5.50208 10.3456,5.92064 16,7.04 v -0.64 l -16,-6.4 m 305.92002,0.64 1.92,1.92 -1.92,-1.92 m -289.28002,2.56 v 0.64 l 8.32,3.2 v -0.64 l -8.32,-3.2 m 289.28002,3.2 v 0.64 l -4.48,0.64 c 1.26208,-1.7824 2.42048,-1.78368 4.48,-1.28 m -279.68002,17.92 c -5.90976,0.49216 -8.79808,-3.83296 -13.46496,-6.43968 -4.06528,-2.27008 -10.09728,-3.65888 -12.77504,-7.64032 8.608,1.16032 20.68416,7.35744 26.24,14.08 m 204.16001,-12.16 4.48,-0.64 c -1.84832,-0.86208 -3.23648,-1.0688 -4.48,0.64 m 28.16,-1.28 0.64,0.64 -0.64,-0.64 m 1.70688,0.85312 0.42624,0.21376 -0.42624,-0.21376 m -224.42689,0.64 c 0.49472,0 0.1024,0.31872 -0.21312,0.21376 l 0.21312,-0.21376 m -13.44,3.62688 0.64,0.64 -0.64,-0.64 m 3.2,1.92 v 0.64 l 2.56,1.28 -2.56,-1.92 m -77.44,8.32 -1.28,1.92 v -1.92 h 1.28 m 2.56,2.56 -1.28,3.2 h -1.28 l -0.64,-0.64 v -1.28 l 3.2,-1.28 m 21.12,5.12 0.64,3.84 c -2.61568,-0.80192 -3.1616,-2.40512 -0.64,-3.84 z"
       id="path337" />
  </g>
</svg>
